<?xml version="1.0" encoding="utf-8" ?>
<svg baseProfile="full" height="300mm" version="1.1" viewBox="0,0,200,300" width="200mm" xmlns="http://www.w3.org/2000/svg" xmlns:ev="http://www.w3.org/2001/xml-events" xmlns:xlink="http://www.w3.org/1999/xlink"><defs /><rect fill="#222222" height="300" width="200" x="0" y="0" /><text fill="#FFFFFF" style="font-size:12px; font-family:Arial; font-weight:bold;" x="10" y="20">Over 10km Runs</text><text fill="#FFFFFF" style="font-size:4px; font-family:Arial" x="10" y="280">ATHLETE</text><text fill="#FFFFFF" style="font-size:9px; font-family:Arial" x="10" y="290">脂肪怪</text><text fill="#FFFFFF" style="font-size:4px; font-family:Arial" x="120" y="280">STATISTICS</text><text fill="#FFFFFF" style="font-size:3px; font-family:Arial" x="120" y="285">Number: 6</text><text fill="#FFFFFF" style="font-size:3px; font-family:Arial" x="120" y="290">Weekly: 1.0</text><text fill="#FFFFFF" style="font-size:3px; font-family:Arial" x="141" y="285">Total: 85.2 km</text><text fill="#FFFFFF" style="font-size:3px; font-family:Arial" x="141" y="290">Avg: 14.2 km</text><text fill="#FFFFFF" style="font-size:3px; font-family:Arial" x="167" y="285">Min: 11.6 km</text><text fill="#FFFFFF" style="font-size:3px; font-family:Arial" x="167" y="290">Max: 17.0 km</text><polyline fill="none" points="28.666727581992745,34.0 38.00976659730077,47.123256312450394 40.18980903364718,59.89178569219075 52.64719438739121,61.66518909204751 67.59605681151152,84.71935654757544 52.02432511933148,60.95582783361897 36.76402806304395,62.37455021729693 33.6496817227453,74.78834804217331 49.22141341492534,100.67985052266158 64.17027583904564,103.51726452168077 70.0875338818878,90.03952879621647 53.27006365545094,62.01986967166886 39.25550513342023,60.60114715364762 33.338247088715434,73.72430984745733 50.15571731701493,101.74388102535158 64.48171047121286,103.51726452168077 70.0875338818878,89.68485088297166 53.27006365545094,62.01986967166886 39.56693976558745,60.24646644038148 33.338247088715434,74.07898927945644 50.46715194918215,101.74388102535158 64.48171047121286,103.51726452168077 70.39896851591766,90.03952879621647 53.27006365545094,62.01986967166886 39.878374399617314,60.24646644038148 33.338247088715434,74.07898927945644 49.22141341492534,100.67985052266158 64.17027583904564,103.87194111919962 70.0875338818878,89.68485088297166 52.958629021421075,62.01986967166886 37.07546269521117,62.01986967166886 33.6496817227453,74.43366867816076 50.46715194918215,101.74388102535158 65.72744900919497,102.80791122489609 70.0875338818878,89.68485088297166 53.27006365545094,62.01986967166886 44.86132854223251,58.827743247151375 36.76402806304395,62.37455021729693 33.961116356775165,75.49770666984841 51.40145585127175,102.80791122489609 66.03888364136219,102.45323452539742 69.77609924785793,88.6208169395104 52.02432511933148,60.95582783361897 36.76402806304395,62.37455021729693 33.961116356775165,75.49770666984841 52.64719438739121,105.29064717539586 69.1532299797982,99.26114271348342 68.53036071360111,83.30064266663976 49.5328480489552,59.182424095924944 37.07546269521117,60.60114715364762 33.026812456548214,70.88687317888252 47.97567488066852,99.9704966857098 61.055929500609636,106.0 71.33327241800725,92.16759556997567 57.941583164036274,64.85731308837421 51.40145585127175,58.47306236438453 40.81267830170691,58.47306236438453 32.7153778206557,70.17751367413439 50.15571731701493,101.74388102535158 61.99023340269923,106.0 71.33327241800725,92.5222732478287 56.38440999388695,61.31050848029554 41.124112935736775,58.47306236438453 33.338247088715434,74.43366867816076 50.15571731701493,101.74388102535158 64.48171047121286,103.51726452168077 70.39896851591766,90.39420667570084 54.515802189707756,62.01986967166886 39.25550513342023,60.24646644038148 34.272550988942385,73.36963038239628 49.84428268298507,101.38920422433876 64.17027583904564,103.51726452168077 70.39896851591766,90.03952879621647 54.515802189707756,62.01986967166886 39.878374399617314,60.24646644038148 34.272550988942385,73.72430984745733 49.5328480489552,101.38920422433876 64.17027583904564,103.51726452168077 70.0875338818878,90.39420667570084 55.13867145776749,62.37455021729693 40.81267830170691,59.53710491140373 34.272550988942385,73.01495088334195 49.22141341492534,101.03452739026397 63.85884120501578,103.51726452168077 70.0875338818878,90.03952879621647 54.82723682373762,62.01986967166886 40.18980903364718,59.89178569219075 34.272550988942385,73.01495088334195 49.22141341492534,101.38920422433876 63.85884120501578,103.51726452168077 70.0875338818878,90.03952879621647 54.515802189707756,61.66518909204751 40.501243667677045,59.53710491140373 34.272550988942385,73.01495088334195 48.90997878089547,101.03452739026397 63.54740657098591,103.51726452168077 70.0875338818878,90.39420667570084 54.82723682373762,62.01986967166886 40.501243667677045,59.53710491140373 34.272550988942385,73.01495088334195 48.90997878089547,101.03452739026397 63.85884120501578,103.51726452168077 70.0875338818878,90.03952879621647 55.13867145776749,62.01986967166886 40.501243667677045,59.53710491140373 34.272550988942385,73.36963038239628 49.22141341492534,101.38920422433876 64.17027583904564,103.51726452168077 69.77609924785793,90.03952879621647 54.82723682373762,61.66518909204751 40.18980903364718,59.89178569219075 34.272550988942385,73.01495088334195 48.90997878089547,101.03452739026397 63.85884120501578,103.51726452168077 69.77609924785793,90.39420667570084 54.82723682373762,62.01986967166886 40.501243667677045,59.53710491140373 34.272550988942385,73.01495088334195 49.22141341492534,101.38920422433876 63.23597193881869,103.87194111919962 69.77609924785793,90.39420667570084 55.13867145776749,62.37455021729693 40.18980903364718,59.89178569219075 34.272550988942385,73.36963038239628 49.22141341492534,101.38920422433876 63.54740657098591,103.87194111919962 69.77609924785793,90.39420667570084 55.13867145776749,62.37455021729693 40.18980903364718,59.89178569219075 34.272550988942385,73.01495088334195 49.22141341492534,101.38920422433876 63.54740657098591,103.87194111919962 70.0875338818878,90.39420667570084 54.82723682373762,62.01986967166886 40.501243667677045,59.53710491140373 33.961116356775165,72.66027134982869 49.22141341492534,101.38920422433876 63.54740657098591,103.87194111919962 69.77609924785793,90.39420667570084 54.82723682373762,62.01986967166886 40.81267830170691,59.53710491140373 34.272550988942385,73.36963038239628 49.22141341492534,101.38920422433876 63.85884120501578,103.51726452168077 70.0875338818878,90.39420667570084 54.82723682373762,62.01986967166886 40.18980903364718,59.89178569219075 34.272550988942385,73.01495088334195 49.22141341492534,101.38920422433876 63.54740657098591,103.87194111919962 69.77609924785793,90.03952879621647 54.82723682373762,62.01986967166886 40.81267830170691,59.53710491140373 33.961116356775165,73.01495088334195 48.90997878089547,101.03452739026397 63.85884120501578,103.51726452168077 70.0875338818878,90.39420667570084 54.82723682373762,62.01986967166886 40.18980903364718,59.89178569219075 34.272550988942385,73.01495088334195 49.22141341492534,101.38920422433876 63.54740657098591,103.87194111919962 69.77609924785793,90.39420667570084 55.13867145776749,62.01986967166886 40.501243667677045,59.53710491140373 33.961116356775165,72.66027134982869 48.90997878089547,101.03452739026397 64.17027583904564,103.51726452168077 70.0875338818878,90.39420667570084 54.82723682373762,62.01986967166886 40.18980903364718,59.89178569219075 34.272550988942385,73.36963038239628 48.90997878089547,101.03452739026397 63.85884120501578,103.51726452168077 70.0875338818878,90.39420667570084 55.13867145776749,62.37455021729693 40.501243667677045,59.53710491140373 34.272550988942385,73.01495088334195 49.22141341492534,101.38920422433876 63.85884120501578,103.51726452168077 69.77609924785793,90.39420667570084 54.82723682373762,62.01986967166886 40.501243667677045,59.53710491140373 34.272550988942385,73.36963038239628 49.22141341492534,101.38920422433876 63.85884120501578,103.51726452168077 69.77609924785793,90.03952879621647 54.82723682373762,62.01986967166886 40.501243667677045,59.53710491140373 34.272550988942385,73.01495088334195 48.90997878089547,101.03452739026397 63.54740657098591,103.87194111919962 69.77609924785793,90.39420667570084 54.82723682373762,62.01986967166886 40.501243667677045,59.53710491140373 33.961116356775165,72.66027134982869 48.90997878089547,101.03452739026397 63.54740657098591,103.87194111919962 69.77609924785793,90.03952879621647 54.82723682373762,62.01986967166886" stroke="#4dd2ff" stroke-linecap="round" stroke-linejoin="round" stroke-width="0.5"><title>2022-08-04 12.6km</title></polyline><polyline fill="none" points="121.35278857126832,59.87510090600699 153.95133950561285,105.43750339839607 173.70803704299033,101.50002568168566 178.15329398959875,80.12510090507567 151.97566975280643,38.500025681685656 127.77371526882052,36.81251645181328 120.85887113213539,57.62509662518278 149.01216512173414,103.18751645321026 171.23844985105097,103.18751645321026 178.64721142686903,82.37509662518278 151.48175231553614,37.93752265768126 127.77371526882052,37.375019582454115 120.85887113213539,58.18759777629748 147.530412806198,101.50002568168566 171.23844985105097,103.18751645321026 178.15329398959875,80.6875999160111 150.49391743727028,37.375019582454115 125.79804551787674,39.06252865213901 121.35278857126832,60.43760184152052 149.50608256086707,103.18751645321026 171.7323672901839,103.18751645321026 178.15329398959875,80.6875999160111 150.9878348764032,37.93752265768126 127.77371526882052,37.375019582454115 120.85887113213539,58.18759777629748 149.50608256086707,103.18751645321026 171.7323672901839,103.18751645321026 178.64721142686903,81.8125977749005 151.48175231553614,37.93752265768126 128.2676327098161,36.81251645181328 120.85887113213539,58.18759777629748 147.530412806198,102.06252265814692 170.7445324137807,103.75001326948404 178.64721142686903,81.8125977749005 151.48175231553614,37.93752265768126 126.29196295328438,38.500025681685656 120.85887113213539,58.75009887246415 148.02433024719357,102.06252265814692 171.7323672901839,103.18751645321026 177.65937655232847,80.12510090507567 151.97566975280643,39.06252865213901 128.2676327098161,36.81251645181328 120.36495369486511,57.62509662518278 147.530412806198,101.50002568168566 169.75669753551483,104.31251003220677 178.64721142686903,82.37509662518278 151.97566975280643,39.06252865213901 129.74938502535224,36.25001326855272 120.85887113213539,58.18759777629748 147.03649536892772,101.50002568168566 169.75669753551483,104.31251003220677 178.64721142686903,82.37509662518278 151.97566975280643,38.500025681685656 130.24330246075988,35.687510032672435 120.85887113213539,57.62509662518278 145.55474305339158,99.8125344295986 169.26278009824455,104.8750067409128 179.1411288678646,84.6250914898701 152.4695871900767,39.06252865213901 129.74938502535224,35.687510032672435 120.36495369486511,57.62509662518278 147.530412806198,101.50002568168566 169.26278009824455,104.8750067409128 178.64721142686903,82.93759542051703 151.48175231553614,38.500025681685656 129.74938502535224,35.687510032672435 120.85887113213539,58.18759777629748 147.530412806198,102.06252265814692 171.23844985105097,103.18751645321026 178.64721142686903,82.37509662518278 152.4695871900767,39.06252865213901 129.74938502535224,36.25001326855272 120.36495369486511,57.06259542098269 147.03649536892772,100.93752865027636 169.26278009824455,104.8750067409128 178.64721142686903,82.93759542051703 151.97566975280643,38.500025681685656 132.21897221542895,35.125006741378456 120.85887113213539,57.62509662518278 147.03649536892772,100.93752865027636 168.76886265911162,104.8750067409128 179.1411288678646,85.1875900705345 153.45742206834257,40.18753442913294 132.21897221542895,34.562503398396075 120.36495369486511,57.62509662518278 146.54257793165743,100.93752865027636 169.26278009824455,104.8750067409128 179.1411288678646,84.6250914898701 152.4695871900767,39.06252865213901 130.7372198998928,35.687510032672435 120.85887113213539,57.62509662518278 147.530412806198,101.50002568168566 169.75669753551483,104.31251003220677 179.1411288678646,83.50009416276589 152.4695871900767,39.06252865213901 130.24330246075988,35.687510032672435 120.36495369486511,57.62509662518278 145.55474305339158,99.8125344295986 169.26278009824455,104.31251003220677 179.1411288678646,83.50009416276589 151.97566975280643,38.500025681685656 130.24330246075988,35.687510032672435 120.85887113213539,57.62509662518278 147.03649536892772,101.50002568168566 169.75669753551483,104.31251003220677 179.1411288678646,82.93759542051703 151.97566975280643,38.500025681685656 130.24330246075988,35.687510032672435 120.36495369486511,57.62509662518278 147.03649536892772,101.50002568168566 169.26278009824455,104.8750067409128 179.1411288678646,85.1875900705345 151.97566975280643,39.06252865213901 130.24330246075988,35.687510032672435 120.36495369486511,57.06259542098269 146.04866049066186,99.8125344295986 168.76886265911162,104.8750067409128 178.64721142686903,82.93759542051703 152.4695871900767,39.06252865213901 130.7372198998928,35.125006741378456 120.36495369486511,57.62509662518278 147.03649536892772,101.50002568168566 169.75669753551483,104.31251003220677 179.1411288678646,85.1875900705345 151.97566975280643,38.500025681685656 130.24330246075988,35.687510032672435 120.36495369486511,57.62509662518278 145.55474305339158,99.8125344295986 168.76886265911162,104.8750067409128 179.1411288678646,84.6250914898701 151.97566975280643,38.500025681685656 130.7372198998928,35.687510032672435 120.36495369486511,57.06259542098269 146.54257793165743,100.375031566713 168.27494522184134,104.8750067409128 179.1411288678646,84.6250914898701 153.45742206834257,40.18753442913294 132.71288965456188,34.562503398396075 120.36495369486511,55.93759285379201 146.04866049066186,100.375031566713 167.7810277827084,105.43750339839607 179.63504630327225,87.43758386513218 153.45742206834257,40.18753442913294 133.20680709183216,34.562503398396075 120.36495369486511,55.93759285379201 146.04866049066186,99.8125344295986 169.26278009824455,104.8750067409128 179.1411288678646,85.1875900705345 153.45742206834257,40.18753442913294 132.71288965456188,34.562503398396075 120.36495369486511,55.93759285379201 145.55474305339158,99.8125344295986 169.26278009824455,104.8750067409128 179.1411288678646,84.6250914898701 152.96350462920964,39.62503156717867 132.71288965456188,34.562503398396075 120.36495369486511,55.93759285379201 144.07299073785543,97.56254534376785 164.81752315163612,106.0 179.63504630327225,88.00008218036965 153.45742206834257,40.18753442913294 133.20680709183216,34.562503398396075 120.36495369486511,55.93759285379201 144.56690817512572,98.12504269462079 165.31144059076905,106.0 179.63504630327225,88.00008218036965 153.45742206834257,40.7500372370705 134.6885594073683,34.0 122.83454088680446,42.43754534376785 120.36495369486511,55.93759285379201 144.07299073785543,97.00004793750122 164.81752315163612,106.0 179.63504630327225,88.56258044112474 145.0608256161213,34.562503398396075 125.79804551787674,39.06252865213901 121.35278857126832,59.87510090600699 147.530412806198,101.50002568168566 171.7323672901839,103.18751645321026 178.64721142686903,81.8125977749005 149.99999999813735,37.375019582454115 127.27979783155024,37.375019582454115 121.35278857126832,59.312599915545434 149.50608256086707,103.75001326948404 175.18978935852647,99.8125344295986 178.15329398959875,80.12510090507567 149.99999999813735,37.375019582454115 127.27979783155024,37.93752265768126 121.35278857126832,59.87510090600699 148.02433024719357,102.06252265814692 171.7323672901839,103.18751645321026 178.64721142686903,82.37509662518278 149.99999999813735,36.81251645181328 127.27979783155024,37.375019582454115 120.85887113213539,58.75009887246415 148.02433024719357,102.06252265814692 172.22628472745419,102.62501958291978 178.64721142686903,82.37509662518278 151.48175231553614,38.500025681685656 127.77371526882052,37.375019582454115 121.35278857126832,60.43760184152052 148.02433024719357,102.06252265814692 171.7323672901839,103.18751645321026 178.64721142686903,82.37509662518278 150.49391743727028,37.375019582454115 127.77371526882052,37.375019582454115 121.35278857126832,59.312599915545434 148.02433024719357,102.06252265814692 171.7323672901839,103.18751645321026 178.64721142686903,82.93759542051703 150.49391743727028,37.375019582454115 127.77371526882052,37.375019582454115 120.85887113213539,58.18759777629748 147.530412806198,101.50002568168566 171.23844985105097,103.18751645321026 178.64721142686903,82.37509662518278 151.48175231553614,38.500025681685656 127.77371526882052,37.375019582454115 120.85887113213539,58.18759777629748 147.530412806198,102.06252265814692 173.70803704299033,101.50002568168566 178.15329398959875,81.25009887246415 149.99999999813735,36.81251645181328 127.27979783155024,37.93752265768126 121.35278857126832,59.312599915545434 149.01216512173414,102.62501958291978 173.70803704299033,101.50002568168566 178.15329398959875,80.12510090507567 149.99999999813735,36.81251645181328 125.79804551787674,39.06252865213901 122.83454088680446,62.68760505132377" stroke="#4dd2ff" stroke-linecap="round" stroke-linejoin="round" stroke-width="0.5"><title>2022-07-31 14.7km</title></polyline><polyline fill="none" points="22.80007765069604,141.34894126048312 49.75495565496385,182.09304592432454 73.76930151320994,180.97677285177633 78.67018842324615,162.0000981572084 50.73513303697109,117.34885679697618 28.191053250804543,116.79071413120255 21.819900268688798,139.11637940490618 48.28468958288431,180.97677285177633 71.80894674919546,182.09304592432454 78.67018842324615,162.0000981572084 50.245044343173504,116.79071413120255 27.700964560732245,117.34885679697618 21.329811576753855,138.00009815813974 48.28468958288431,180.97677285177633 71.80894674919546,182.09304592432454 78.67018842324615,162.0000981572084 52.20539910905063,118.46514197392389 27.700964560732245,117.34885679697618 21.819900268688798,139.67451994773 49.26486696302891,182.09304592432454 73.76930151320994,180.97677285177633 78.18009973317385,160.32568273833022 50.245044343173504,116.79071413120255 28.191053250804543,116.79071413120255 21.819900268688798,139.67451994773 47.79460088908672,180.97677285177633 71.80894674919546,182.65118237957358 79.16027711518109,162.0000981572084 52.20539910905063,118.46514197392389 30.15140801668167,115.67442863760516 20.839722886681557,137.44195745605975 48.28468958288431,180.97677285177633 71.80894674919546,182.65118237957358 78.67018842324615,160.88382126390934 49.75495565496385,116.79071413120255 27.700964560732245,117.34885679697618 21.819900268688798,139.67451994773 49.26486696302891,182.09304592432454 62.987350311130285,186.0 75.23956758528948,179.30236284760758 77.6900110412389,159.20940552651882 45.34415743686259,114.55814293166623 28.191053250804543,116.79071413120255 20.34963419660926,131.86054750764742 44.854068743065,177.06981543125585 66.90805983915925,184.8837276706472 79.16027711518109,164.23265130631626 53.18557649105787,119.58142693527043 34.562206234782934,114.0 20.34963419660926,135.20939411362633 46.324334817007184,179.30236284760758 67.39814852923155,184.8837276706472 79.65036580339074,167.0233415500261 53.675665182992816,120.13956933608279 32.60185146890581,114.55814293166623 20.34963419660926,135.20939411362633 45.834246126934886,178.74422607384622 67.88823722302914,184.32559142820537 79.16027711518109,164.23265130631626 53.675665182992816,120.13956933608279 34.562206234782934,114.0 20.839722886681557,135.20939411362633 44.854068743065,177.06981543125585 66.90805983915925,184.8837276706472 79.16027711518109,163.67451310018077 52.69548779912293,119.02328448090702 32.60185146890581,114.55814293166623 20.839722886681557,137.44195745605975 46.81442350894213,179.86049956828356 69.35850329510868,183.76745513034984 79.16027711518109,164.23265130631626 53.18557649105787,119.58142693527043 32.60185146890581,114.55814293166623 20.839722886681557,135.76753502851352 46.81442350894213,179.86049956828356 69.35850329510868,183.76745513034984 79.16027711518109,164.23265130631626 53.18557649105787,119.58142693527043 32.60185146890581,114.55814293166623 20.34963419660926,135.20939411362633 46.324334817007184,179.30236284760758 69.35850329510868,183.76745513034984 79.16027711518109,163.67451310018077 52.69548779912293,119.02328448090702 31.131585396826267,115.11628581210971 20.839722886681557,136.88381669903174 46.324334817007184,179.30236284760758 68.86841460317373,183.76745513034984 79.16027711518109,162.55823652306572 52.20539910905063,118.46514197392389 31.131585396826267,115.11628581210971 20.839722886681557,137.44195745605975 47.79460088908672,180.41863623727113 69.84859198331833,183.76745513034984 79.16027711518109,162.55823652306572 52.69548779912293,119.02328448090702 30.641496704891324,115.67442863760516 20.839722886681557,136.88381669903174 48.28468958288431,180.97677285177633 71.31885805726051,182.65118237957358 78.67018842324615,161.44195973780006 52.20539910905063,118.46514197392389 29.171230632811785,116.23257141048089 21.329811576753855,138.00009815813974 48.28468958288431,180.97677285177633 69.35850329510868,183.76745513034984 79.16027711518109,162.55823652306572 52.20539910905063,118.46514197392389 30.15140801668167,115.67442863760516 21.329811576753855,138.00009815813974 47.304512199014425,180.41863623727113 69.84859198331833,183.76745513034984 79.65036580339074,164.23265130631626 52.20539910905063,118.46514197392389 30.15140801668167,115.67442863760516 20.839722886681557,137.44195745605975 47.79460088908672,180.97677285177633 70.33868067525327,183.20931878173724 78.67018842324615,162.0000981572084 52.20539910905063,118.46514197392389 30.641496704891324,115.11628581210971 20.839722886681557,136.88381669903174 46.324334817007184,179.30236284760758 69.35850329510868,183.76745513034984 79.16027711518109,164.23265130631626 53.18557649105787,119.58142693527043 33.58202885091305,114.0 20.839722886681557,135.20939411362633 46.324334817007184,179.30236284760758 67.39814852923155,184.8837276706472 79.65036580339074,167.0233415500261 53.18557649105787,119.58142693527043 32.60185146890581,114.55814293166623 20.839722886681557,135.20939411362633 46.324334817007184,179.30236284760758 69.35850329510868,183.76745513034984 79.16027711518109,163.67451310018077 53.18557649105787,119.58142693527043 34.07211754284799,114.0 20.34963419660926,134.65125314472243 44.854068743065,177.06981543125585 66.90805983915925,184.8837276706472 79.65036580339074,164.23265130631626 53.18557649105787,119.58142693527043 33.09194016084075,114.55814293166623 20.34963419660926,135.20939411362633 46.324334817007184,179.30236284760758 69.35850329510868,183.76745513034984 78.67018842324615,162.0000981572084 52.20539910905063,118.46514197392389 30.641496704891324,115.67442863760516 20.839722886681557,137.44195745605975 47.79460088908672,180.97677285177633 69.84859198331833,183.76745513034984 79.16027711518109,164.23265130631626 52.20539910905063,118.46514197392389 31.131585396826267,115.11628581210971 20.839722886681557,136.88381669903174 46.324334817007184,179.30236284760758 68.86841460317373,183.76745513034984 79.16027711518109,162.55823652306572 52.20539910905063,118.46514197392389 30.641496704891324,115.67442863760516 21.329811576753855,138.00009815813974 47.79460088908672,180.41863623727113 69.84859198331833,183.76745513034984 79.16027711518109,163.67451310018077 52.20539910905063,118.46514197392389 30.15140801668167,115.67442863760516 20.839722886681557,137.44195745605975 47.79460088908672,180.97677285177633 69.35850329510868,183.76745513034984 79.16027711518109,162.55823652306572 52.20539910905063,118.46514197392389 32.60185146890581,114.55814293166623 20.839722886681557,137.44195745605975 47.79460088908672,180.97677285177633 71.31885805726051,182.65118237957358 78.67018842324615,162.0000981572084 51.71531041897833,118.46514197392389 30.15140801668167,115.67442863760516 20.839722886681557,137.44195745605975 47.79460088908672,180.97677285177633 69.84859198331833,183.76745513034984 78.67018842324615,162.0000981572084 52.20539910905063,118.46514197392389 29.661319322884083,115.67442863760516 20.839722886681557,136.88381669903174 47.79460088908672,180.41863623727113 69.84859198331833,183.20931878173724 79.16027711518109,162.0000981572084 51.71531041897833,117.90699941245839 29.661319322884083,115.67442863760516 21.329811576753855,137.44195745605975 47.79460088908672,180.97677285177633 69.84859198331833,183.76745513034984 79.16027711518109,162.55823652306572 52.20539910905063,118.46514197392389 29.661319322884083,116.23257141048089 20.839722886681557,136.88381669903174 47.79460088908672,180.97677285177633 69.84859198331833,183.76745513034984 78.67018842324615,162.0000981572084 52.20539910905063,118.46514197392389 30.15140801668167,115.67442863760516 20.839722886681557,136.88381669903174 47.79460088908672,180.41863623727113 69.84859198331833,183.76745513034984 78.67018842324615,162.0000981572084 52.20539910905063,118.46514197392389 28.681141942739487,116.79071413120255 20.839722886681557,137.44195745605975 48.28468958288431,180.97677285177633 71.31885805726051,182.65118237957358 78.67018842324615,162.0000981572084 51.71531041897833,118.46514197392389 28.191053250804543,116.79071413120255 20.839722886681557,137.44195745605975 48.28468958288431,180.97677285177633 71.80894674919546,182.65118237957358 78.67018842324615,162.0000981572084 52.20539910905063,118.46514197392389 28.191053250804543,116.79071413120255 20.839722886681557,137.44195745605975 48.28468958288431,180.97677285177633 69.84859198331833,183.76745513034984 79.16027711518109,162.0000981572084" stroke="#4dd2ff" stroke-linecap="round" stroke-linejoin="round" stroke-width="0.5"><title>2022-06-19 14.5km</title></polyline><polyline fill="none" points="124.51539291627705,141.9070815932937 148.52973420731723,182.65118238097057 172.54407549649477,182.09304592385888 178.42513867095113,163.67451309924945 152.94053158536553,117.90699941292405 128.926190296188,116.79071413166821 122.55503852292895,138.0000981586054 147.05946841277182,181.53490941599011 170.58372110500932,183.76745513360947 178.42513867095113,163.67451309924945 151.4702657945454,116.79071413166821 129.41627889312804,116.79071413166821 122.55503852292895,138.0000981586054 147.54955700971186,181.53490941599011 172.05398689955473,182.65118238097057 177.93505007214844,163.67451309924945 152.94053158536553,118.46514197252691 130.39645608887076,115.67442863807082 122.06494992785156,136.3256758917123 146.56937981396914,180.97677285317332 170.09363250620663,183.76745513360947 178.42513867095113,163.67451309924945 152.94053158536553,118.46514197252691 130.39645608887076,115.67442863807082 122.06494992785156,135.76753502897918 146.56937981396914,180.97677285317332 170.09363250620663,184.32559142960235 177.93505007214844,163.67451309924945 152.94053158536553,118.46514197252691 129.90636749006808,116.23257141234353 122.06494992785156,136.3256758917123 147.05946841277182,181.53490941599011 170.09363250620663,183.76745513360947 178.42513867095113,164.23265130771324 153.43062018230557,119.02328448183835 131.86672188341618,115.11628581257537 122.06494992785156,135.76753502897918 147.05946841277182,181.53490941599011 168.13327811844647,185.44186386372894 178.42513867095113,164.23265130771324 153.43062018230557,119.02328448183835 131.86672188341618,115.11628581257537 122.06494992785156,136.3256758917123 147.05946841277182,181.53490941599011 168.13327811844647,184.8837276720442 178.42513867095113,164.23265130771324 152.94053158536553,118.46514197252691 130.39645608887076,115.67442863807082 122.06494992785156,135.76753502897918 147.05946841277182,181.53490941599011 170.09363250620663,184.32559142960235 177.93505007214844,163.11637483909726 152.94053158536553,118.46514197252691 129.90636749006808,116.23257141234353 122.06494992785156,136.3256758917123 146.56937981396914,180.97677285317332 168.6233667153865,184.8837276720442 178.42513867095113,164.23265130771324 153.43062018230557,119.02328448183835 131.86672188341618,115.11628581257537 122.06494992785156,135.76753502897918 146.56937981396914,180.97677285317332 168.13327811844647,184.8837276720442 178.42513867095113,164.7907894635573 153.43062018230557,119.02328448183835 131.3766332846135,115.11628581257537 122.06494992785156,136.3256758917123 146.56937981396914,180.97677285317332 168.13327811844647,184.8837276720442 178.42513867095113,164.23265130771324 153.92070878110826,119.02328448183835 132.35681048035622,115.11628581257537 122.06494992785156,136.3256758917123 146.56937981396914,180.97677285317332 168.6233667153865,184.8837276720442 178.42513867095113,164.23265130771324 153.43062018230557,119.02328448183835 131.86672188341618,115.11628581257537 122.06494992785156,135.76753502897918 146.56937981396914,180.97677285317332 168.6233667153865,184.8837276720442 178.42513867095113,163.67451309924945 152.94053158536553,118.46514197252691 130.39645608887076,115.67442863807082 122.06494992785156,135.76753502897918 146.0792912170291,180.4186362386681 166.17292372509837,186.0 178.42513867095113,164.23265130771324 153.92070878110826,119.58142693713307 132.84689907729626,114.55814293213189 121.57486132904887,134.0931121245958 145.58920262008905,179.86049957107753 165.1927465312183,186.0 178.42513867095113,165.90706561179832 156.37115176953375,122.93028054991737 134.31716487184167,114.0 121.57486132904887,133.53497104998678 147.05946841277182,181.53490941599011 168.13327811844647,185.44186386372894 178.42513867095113,164.7907894635573 154.900885976851,120.69771168613806 132.35681048035622,115.11628581257537 122.06494992785156,135.76753502897918 146.56937981396914,180.97677285317332 168.13327811844647,185.44186386372894 178.42513867095113,164.23265130771324 153.43062018230557,118.46514197252691 130.88654468394816,115.67442863807082 122.06494992785156,136.3256758917123 147.05946841277182,181.53490941599011 170.09363250620663,183.76745513360947 178.42513867095113,163.67451309924945 153.43062018230557,118.46514197252691 130.39645608887076,115.67442863807082 122.06494992785156,136.3256758917123 147.05946841277182,181.53490941599011 169.60354391112924,184.32559142960235 178.42513867095113,163.67451309924945 152.94053158536553,118.46514197252691 130.88654468394816,115.67442863807082 122.06494992785156,135.76753502897918 146.56937981396914,180.97677285317332 168.6233667153865,184.8837276720442 178.42513867095113,163.67451309924945 152.94053158536553,118.46514197252691 131.86672188341618,115.11628581257537 121.57486132904887,135.20939411455765 147.05946841277182,181.53490941599011 167.64318951778114,185.44186386372894 178.42513867095113,163.67451309924945 153.92070878110826,119.02328448183835 132.35681048035622,114.55814293213189 121.57486132904887,135.20939411455765 146.56937981396914,180.97677285317332 166.17292372509837,186.0 178.42513867095113,164.23265130771324 153.43062018230557,119.02328448183835 131.86672188341618,115.11628581257537 122.06494992785156,135.76753502897918 147.05946841277182,181.53490941599011 170.09363250620663,183.76745513360947 178.42513867095113,163.67451309924945 152.94053158536553,118.46514197252691 129.90636749006808,116.23257141234353 122.06494992785156,135.76753502897918 147.05946841277182,181.53490941599011 169.60354391112924,184.32559142960235 178.42513867095113,164.23265130771324 153.43062018230557,118.46514197252691 131.86672188341618,115.11628581257537 122.06494992785156,135.76753502897918 147.05946841277182,181.53490941599011 169.60354391112924,184.32559142960235 178.42513867095113,164.23265130771324 152.94053158536553,118.46514197252691 130.39645608887076,115.67442863807082 122.06494992785156,135.76753502897918 147.05946841277182,181.53490941599011 170.09363250620663,183.76745513360947 177.93505007214844,163.67451309924945 153.43062018230557,119.02328448183835 131.3766332846135,115.11628581257537 122.06494992785156,136.3256758917123 147.05946841277182,181.53490941599011 170.09363250620663,183.76745513360947 178.42513867095113,164.23265130771324 153.43062018230557,119.02328448183835 132.35681048035622,115.11628581257537 122.06494992785156,135.76753502897918 147.05946841277182,181.53490941599011 169.60354391112924,184.32559142960235 177.93505007214844,163.67451309924945 152.94053158536553,118.46514197252691 130.39645608887076,116.23257141234353 122.06494992785156,136.3256758917123 147.05946841277182,181.53490941599011 170.09363250620663,183.76745513360947 178.42513867095113,164.23265130771324 153.43062018230557,118.46514197252691 127.94601310044527,117.90699941292405 121.57486132904887,130.74426488298923 125.49557011015713,144.13964238623157" stroke="#4dd2ff" stroke-linecap="round" stroke-linejoin="round" stroke-width="0.5"><title>2022-06-04 11.6km</title></polyline><polyline fill="none" points="69.8725957145216,205.76095516677015 71.10114382044412,213.42161055209 68.345211582724,213.9970540573995 60.30984288943,214.06898444858962 54.26671436813194,216.15496124565834 50.979518084437586,217.809350387397 47.72552580374759,218.52864828999736 44.60434953449294,228.09521102774306 45.63367362332065,228.2390677034855 48.42280986381229,234.0652279498463 57.487502646050416,249.60132018770673 56.590994568541646,252.87390710698674 50.28223402437288,261.93634265923174 48.854461901122704,266.0 50.28223402437288,261.9723043747654 56.09293452568818,253.70104103704216 57.28827862883918,251.00386008640635 57.42109464027453,249.2416939329123 49.12009392399341,235.07221166210365 38.59442501596641,215.57952024845872 29.064876193762757,194.21579985911376 38.16277297877241,215.32776460173773 50.28223402437288,237.6975524269219 57.32148263161071,249.31361920479685 56.52458656288218,252.6221704192576 50.11621401004959,262.1521129135799 48.754849892575294,266.0 50.78029406722635,261.2890313323296 56.624198571546,252.76601997073158 57.487502646050416,249.2416939329123 50.38184603292029,237.33791752837715 39.45772909047082,217.2698762746877 29.0316721907584,194.0 29.795364256715402,196.58959209965542 35.07480071228929,207.8110013230471 36.8014088611817,212.84616637788713 50.34864203003235,238.20104084606282 57.28827862883918,249.38554446626222 56.590994568541646,252.73005758682848 50.28223402437288,262.0442277981492 48.78805389534682,266.0 50.44825403857976,261.8644192201609 56.32536254567094,253.08968130883295 57.42109464027453,249.13380600552773 50.614274052903056,237.76947937524528 37.000632878392935,212.34265217682696 31.555176408728585,199.1791706517106 28.898856179555878,194.28773312462727 35.34043273515999,208.06276079206145 37.23306089860853,213.4935410268372 50.647478055791,238.20104084606282 57.32148263161071,249.09784335791483 57.15546261728741,250.96789757459192 56.15934253134765,253.3054554167611" stroke="#4dd2ff" stroke-linecap="round" stroke-linejoin="round" stroke-width="0.5"><title>2021-11-14 17.0km</title></polyline><polyline fill="none" points="168.84378334949724,205.43325521348743 168.44672382320277,206.2217458054074 170.10113851574715,208.08544583109324 169.86952045897488,209.66241727676243 170.5312863360159,211.63362449523993 169.86952045897488,212.38626517369994 169.7040789895691,213.78402338753222 161.5974469955545,214.24994191213045 155.9393487466732,216.11361161066452 151.77022372127976,218.3356701276789 148.69301239284687,218.7657448137761 147.9650699280901,217.5471988961799 147.33639234490693,209.84161825836054 145.8474191215355,201.3115793344041 144.0606512534432,196.65225208867923 143.06800243782345,196.5805697873002 142.27388338535093,197.94253173214383 144.2922693103319,209.98497899691574 143.4981502579758,211.34690393478377 138.83270082459785,215.21761744195828 150.67831002396997,237.3661162990029 158.12317614105996,249.65846260098624 156.99817415012512,252.95548300884548 150.3143387916498,262.91808477739687 149.45404315146152,265.89249165327055 150.97610466869082,261.8788299574808 157.39523367618676,252.34625263573253 158.09008784720208,249.22841483712546 151.43934078258462,238.29790837567998 138.70034764916636,214.7158599968243 135.98710755317006,207.65536183468066 129.4687136641005,194.0 139.39520182018168,216.25697052665055 150.8768397871172,237.54530721961055 158.02391125948634,249.01339081471087 157.2628805008717,252.56127520627342 150.71139831794426,262.34470307835727 149.4871314453194,266.0 150.67831002396997,262.4880485656031 157.49449855776038,252.1312299715355 158.15626443491783,249.40760145089007 151.3731641949853,238.01120330873528 138.23711153515615,213.67650366548332 136.15254902245943,208.08544583109324 129.63415513338987,194.10752401061472 138.93196570617147,215.32513682814897 151.40625248884317,238.3337464973738 158.1893527287757,249.22841483712546 157.1636156194145,252.84797182114562 150.61213343637064,262.5955576537235 149.52021973917726,266.0 150.8768397871172,262.2013575495512 157.3621453824453,252.52543811767828 158.1893527287757,249.80181177231134 157.22979220701382,247.54405748768477" stroke="#4dd2ff" stroke-linecap="round" stroke-linejoin="round" stroke-width="0.5"><title>2021-10-24 14.9km</title></polyline></svg>