<?xml version="1.0" encoding="utf-8" ?>
<svg baseProfile="full" height="200mm" version="1.1" viewBox="0,0,200,200" width="200mm" xmlns="http://www.w3.org/2000/svg" xmlns:ev="http://www.w3.org/2001/xml-events" xmlns:xlink="http://www.w3.org/1999/xlink"><defs /><rect fill="#1a1a1a" height="200" width="200" x="0" y="0" /><text alignment-baseline="middle" fill="#e1ed5e" style="dominant-baseline: central; font-size:9.0px; font-family:Arial;" text-anchor="middle" x="100.0" y="100.0">2024</text><line stroke="#e1ed5e" stroke-width="0.3" x1="100.0" x2="100.0" y1="15.0" y2="10.0" /><path d="M 100.0 14.0 a86.0,86.0 0 0,1 42.35913384403234,11.155469271406648" fill="none" id="id61" stroke="none" /><text fill="#e1ed5e" style="font-size:6.75px; font-family:Arial;" text-anchor="middle"><textPath startOffset="22.145653131862478" xlink:href="#id61">January</textPath></text><path d="M 100.36049292484886 79.00309439819443 l 0.32627787466868424 -19.0040504602094 a40.00685116334853,40.00685116334853 0 0,0 0.6865684050106801,0.017683566687279904 l -0.6524595937501056 18.995649176172073" fill="#ff8e0d" stroke="none" /><path d="M 101.44090949804482 79.04949213459386 l 1.0823238409996012 -15.736751110702642 a36.77392660110338,36.77392660110338 0 0,0 0.62941378115697,0.048720607352509195 l -1.3523066169318048 15.715852736355078" fill="#ff5a08" stroke="none" /><line stroke="#e1ed5e" stroke-width="0.3" x1="143.13028292997686" x2="145.6673583964461" y1="26.7553504044142" y2="22.446841604673864" /><path d="M 143.63769802327073 25.89364864446614 a86.0,86.0 0 0,1 29.32050498858742,28.57503671076993" fill="none" id="id62" stroke="none" /><text fill="#e1ed5e" style="font-size:6.75px; font-family:Arial;" text-anchor="middle"><textPath startOffset="20.669276256404974" xlink:href="#id62">February</textPath></text><path d="M 114.91283532996326 85.21462403516908 l 11.186415036130388 -11.090805225717798 a36.75251858958983,36.75251858958983 0 0,0 0.4403532746709977,0.45184125281859866 l -11.375155111952198 10.897141280831457" fill="#ff5a08" stroke="none" /><path d="M 115.16444852881244 85.47280134310134 l 9.392528048810956 -8.997829403180742 a34.00694111297673,34.00694111297673 0 0,0 0.40021986231174944,0.4250196245840671 l -9.545603744858965 8.83526831865218" fill="#ff2d04" stroke="none" /><path d="M 116.1254893667686 86.54754324733833 l 12.143916899290202 -10.130887390759273 a36.81485368193811,36.81485368193811 0 0,0 0.4006739003938799,0.4887570098156237 l -12.31603761892271 9.920928099245154" fill="#ff5b08" stroke="none" /><path d="M 117.21940702142032 87.97951657250589 l 15.91292736599623 -11.108459161684747 a40.406677260733986,40.406677260733986 0 0,0 0.39215692985373407,0.5721686804084382 l -16.10127403266529 10.833655746206261" fill="#ff940d" stroke="none" /><path d="M 117.62189284568427 88.57770195909679 l 13.349566581885908 -8.653027773490667 a36.90867114415927,36.90867114415927 0 0,0 0.3400559472377544,0.5346244308492927 l -13.496140220749552 8.422589667962702" fill="#ff5d08" stroke="none" /><line stroke="#e1ed5e" stroke-width="0.3" x1="172.87174338648825" x2="177.1583165268699" y1="56.24261187166439" y2="53.66864786411523" /><path d="M 173.72905801456457 55.72781907015455 a86.0,86.0 0 0,1 12.242430191666344,42.057860355516425" fill="none" id="id63" stroke="none" /><text fill="#e1ed5e" style="font-size:6.75px; font-family:Arial;" text-anchor="middle"><textPath startOffset="22.145653131862474" xlink:href="#id63">March</textPath></text><path d="M 118.00360718960297 89.18935116829356 l 33.22073619760573 -19.948097577383006 a59.749760134324774,59.749760134324774 0 0,0 0.5204667591432545,0.8838663419270584 l -33.558276666878754 19.37488006716239" fill="#5eff2a" stroke="none" /><path d="M 119.0197475246899 91.09779779509293 l 14.256541683961533 -6.672781363083905 a36.740870112736864,36.740870112736864 0 0,0 0.26246196626920326,0.5735267631416363 l -14.368988115085788 6.4270656177275844" fill="#ff5a08" stroke="none" /><path d="M 120.35273937422433 94.82641323984039 l 16.47313573511329 -4.187406686169602 a37.99701667066442,37.99701667066442 0 0,0 0.155267523119592,0.6335444795001078 l -16.54259078474917 3.9040063820613993" fill="#ff6e0a" stroke="none" /><path d="M 120.43855184770803 95.1765574152323 l 15.34729828717918 -3.6219206072476147 a36.768889421923724,36.768889421923724 0 0,0 0.1397027623074632,0.6155561476162336 l -15.40721191104431 3.3579301256923544" fill="#ff5a08" stroke="none" /><path d="M 120.592083275326 95.88100663000786 l 22.243364359514636 -4.449295833653806 a43.68399196449988,43.68399196449988 0 0,0 0.14077417638829387,0.7365899763683194 l -22.31646482818509 4.066803292252171" fill="#ffc612" stroke="none" /><path d="M 120.7213421655516 96.59031103205396 l 18.663932577484204 -3.071143003165721 a39.91492264331974,39.91492264331974 0 0,0 0.10544858807942623,0.6770555791829909 l -18.713902657701894 2.750299242051289" fill="#ff8d0c" stroke="none" /><path d="M 120.82617615685814 97.30363454192243 l 27.424274932387085 -3.5506214431092533 a48.653169225233874,48.653169225233874 0 0,0 0.10012802241762593,0.8292036620679246 l -27.481185041064375 3.079324104117916" fill="#efff19" stroke="none" /><path d="M 120.93736805541906 98.37931529534042 l 32.06332673994149 -2.4819042723221365 a53.15924082513792,53.15924082513792 0 0,0 0.06261662121362933,0.9104319299868683 l -32.101207322320185 1.9311289181809341" fill="#b2ff20" stroke="none" /><path d="M 120.96210409425399 98.7389718711861 l 11.96716667686025 -0.7199150301835353 a32.988801271288075,32.988801271288075 0 0,0 0.029153319872766738,0.5655666171596797 l -11.97776158618959 0.514376619647125" fill="#ff1c02" stroke="none" /><line stroke="#e1ed5e" stroke-width="0.3" x1="184.99686870605535" x2="189.99668451229388" y1="99.2704041080226" y2="99.22748670261217" /><path d="M 185.99683186730306 99.26182062694052 a86.0,86.0 0 0,1 -10.086455211305974,41.156179273409016" fill="none" id="id64" stroke="none" /><text fill="#e1ed5e" style="font-size:6.75px; font-family:Arial;" text-anchor="middle"><textPath startOffset="21.40746469413373" xlink:href="#id64">April</textPath></text><path d="M 120.99922638620191 99.81974689727618 l 23.66127751239709 -0.20310360998924987 a44.66214919644999,44.66214919644999 0 0,0 0.0,0.7667134254261506 l -23.66127751239709 -0.203103609989247" fill="#ffd513" stroke="none" /><path d="M 120.98066250479742 100.90099992219065 l 62.94198751439227 2.702999766571932 a84.0,84.0 0 0,0 -0.07423364217370931,1.4401128264930774 l -62.886312282761985 -3.7830843864417396" fill="#4dd2ff" stroke="none" /><path d="M 120.9064616781168 101.97986365728391 l 16.94575533027616 1.6047806482125402 a38.021572919165266,38.021572919165266 0 0,0 -0.06711279724749201,0.6492554335477346 l -16.915710140547002 -1.8954406040432061" fill="#ff6f0a" stroke="none" /><path d="M 120.77682067341334 103.0534771498775 l 13.174268517670466 1.936163791245176 a34.3157831614296,34.3157831614296 0 0,0 -0.09065659266204185,0.5820803575418549 l -13.139090432870157 -2.1620323307184814" fill="#ff3204" stroke="none" /><path d="M 120.43855184770803 104.8234425847677 l 21.563677213275074 5.088969107483993 a43.15603262173183,43.15603262173183 0 0,0 -0.1763488526197254,0.7195634978820117 l -21.473140834139052 -5.458388429974105" fill="#ffbe11" stroke="none" /><path d="M 120.16314734710363 105.8691983318838 l 23.598233795479835 6.8691019335197945 a45.57765651235309,45.57765651235309 0 0,0 -0.22511820281294267,0.7493452814368522 l -23.476839272663266 -7.27318481854737" fill="#ffe215" stroke="none" /><path d="M 119.16976305983485 108.57439118712176 l 14.402899605267192 6.4422337959489875 a36.77801930918685,36.77801930918685 0 0,0 -0.262727345154226,0.5741066638986841 l -14.29018779525791 -6.688529442062361" fill="#ff5a08" stroke="none" /><path d="M 118.5362547648365 109.86951160357373 l 9.15724998899102 4.875719834980884 a31.374385344207244,31.374385344207244 0 0,0 -0.2572022066650301,0.4732230909753757 l -9.072202432710652 -5.032197759430862" fill="#ff0000" stroke="none" /><line stroke="#e1ed5e" stroke-width="0.3" x1="174.33088141563837" x2="178.70328620479359" y1="141.23008692659167" y2="143.65538615756765" /><path d="M 175.20536237346943 141.71514677278685 a86.0,86.0 0 0,1 -30.301960400862466,31.631185727798858" fill="none" id="id65" stroke="none" /><text fill="#e1ed5e" style="font-size:6.75px; font-family:Arial;" text-anchor="middle"><textPath startOffset="22.145653131862474" xlink:href="#id65">May</textPath></text><path d="M 118.36410011445183 110.18625677009912 l 22.03532335483045 12.222622415776613 a46.19817402254737,46.19817402254737 0 0,0 -0.3906311573019291,0.6902078253979436 l -21.822258832507142 -12.59908701127368" fill="#ffeb16" stroke="none" /><path d="M 117.81537515405839 111.11811171558189 l 22.29405748133118 13.913140729712863 a47.279278603981766,47.279278603981766 0 0,0 -0.4356049505981459,0.6848433343994524 l -22.051934839107147 -14.293797738790987" fill="#fffb17" stroke="none" /><path d="M 117.01052211995028 112.31430620078461 l 15.415403148669862 11.159563077644949 a40.030777764451905,40.030777764451905 0 0,0 -0.40773821515737446,0.5531751972525552 l -15.221562913928658 -11.422544584166381" fill="#ff8e0d" stroke="none" /><path d="M 116.35404254752997 113.17365903436017 l 19.66167609287548 15.838054483397004 a46.24728651954905,46.24728651954905 0 0,0 -0.5033316397916894,0.6139827599660154 l -19.386897633845166 -16.17323952506151" fill="#ffec16" stroke="none" /><path d="M 115.6541949942343 113.99807769240083 l 11.915718647116398 10.655109090218868 a36.98485847925161,36.98485847925161 0 0,0 -0.42726722386210175,0.46964152522541125 l -11.731053722412415 -10.85808819100195" fill="#ff5e08" stroke="none" /><path d="M 115.41159269507618 114.26474011684316 l 18.55841886002787 17.17739543573563 a46.287898776685054,46.287898776685054 0 0,0 -0.5447516262506771,0.5785073492936026 l -18.260811400040936 -17.49344424497373" fill="#ffed16" stroke="none" /><path d="M 112.16784306229584 117.11559508785304 l 9.235878839156584 12.991420228068591 a36.93983869033342,36.93983869033342 0 0,0 -0.5199808403862896,0.36298701033680153 l -9.011502907596537 -13.148052054210515" fill="#ff5d08" stroke="none" /><line stroke="#e1ed5e" stroke-width="0.3" x1="143.1302829299769" x2="145.66735839644613" y1="173.24464959558577" y2="177.55315839532614" /><path d="M 143.63769802327073 174.10635135553383 a86.0,86.0 0 0,1 -40.68552437913181,11.842963189579606" fill="none" id="id66" stroke="none" /><text fill="#e1ed5e" style="font-size:6.75px; font-family:Arial;" text-anchor="middle"><textPath startOffset="21.407464694133747" xlink:href="#id66">June</textPath></text><path d="M 110.65571695917076 118.09573695890943 l 8.148019597317463 13.837118603474071 a37.057897577356684,37.057897577356684 0 0,0 -0.5509407023289832,0.3180857627971611 l -7.909286427128081 -13.974951263547403" fill="#ff5f08" stroke="none" /><path d="M 109.3889696526874 118.78422872680471 l 8.973036495400102 17.95208378965389 a41.06969597025665,41.06969597025665 0 0,0 -0.6333333383757385,0.30979507253788235 l -8.663542907762293 -18.103472612288996" fill="#ff9e0e" stroke="none" /><path d="M 104.29559338865022 120.5559693870025 l 2.5776522632451155 12.3349992002511 a33.60144818901415,33.60144818901415 0 0,0 -0.5656300012412336,0.11314184164032338 l -2.3655257764729236 -12.377430438554287" fill="#ff2603" stroke="none" /><path d="M 103.58742460773223 120.69131181640829 l 2.6911600495669403 15.521896017948764 a36.753463060686016,36.753463060686016 0 0,0 -0.6225730310187573,0.10244415533730984 l -2.424309515495111 -15.565806171781745" fill="#ff5a08" stroke="none" /><path d="M 102.875027216393 120.80226474461374 l 2.1595892102028484 15.625711726866026 a36.77424142480211,36.77424142480211 0 0,0 -0.6260765186909394,0.0810581398331149 l -1.8910348696211339 -15.660481462899536" fill="#ff5a08" stroke="none" /><line stroke="#e1ed5e" stroke-width="0.3" x1="101.45913802915013" x2="101.54496967792366" y1="184.9874750549273" y2="189.98673829345242" /><path d="M 101.47630435890484 185.9873277026323 a86.0,86.0 0 0,1 -42.54439059252881,-10.42667462771756" fill="none" id="id67" stroke="none" /><text fill="#e1ed5e" style="font-size:6.75px; font-family:Arial;" text-anchor="middle"><textPath startOffset="22.145653131862474" xlink:href="#id67">July</textPath></text><path d="M 98.91894614982273 120.97215588758144 l -0.649338923620808 12.597001645955835 a33.61372631326457,33.61372631326457 0 0,0 -0.5760042504620219,-0.034650985363061625 l 0.8654875262152761 -12.583998682768081" fill="#ff2603" stroke="none" /><path d="M 97.48249496171623 120.84855314841334 l -1.901225058520402 15.744870845096575 a36.85924382345886,36.85924382345886 0 0,0 -0.6275236731057766,-0.08124550294515645 l 2.1712265535169726 -15.709913745951022" fill="#ff5c08" stroke="none" /><path d="M 97.12497278360702 120.80226474461374 l -1.7250852918702397 12.481857821696154 a33.60050371791797,33.60050371791797 0 0,0 -0.570688386434142,-0.0838715400719129 l 1.9390987839120666 -12.450405208325359" fill="#ff2603" stroke="none" /><path d="M 96.41257539226777 120.69131181640829 l -2.694548268418686 15.541438363901536 a36.77329695370592,36.77329695370592 0 0,0 -0.6210576743948671,-0.11317739679438817 l 2.9609406763646104 -15.49289279317578" fill="#ff5a08" stroke="none" /><path d="M 95.00130118170881 120.39639698878247 l -6.07848790549372 24.802304943498317 a46.53629467498201,46.53629467498201 0 0,0 -0.7742635729687005,-0.1968147725144958 l 6.503356771687799 -24.69430493914856" fill="#fff016" stroke="none" /><path d="M 93.27111125876986 119.89276391827306 l -4.040117445524507 11.943889345868852 a33.60868913408491,33.60868913408491 0 0,0 -0.5449316504423384,-0.1895555152550476 l 4.244554868011867 -11.872775398045214" fill="#ff2603" stroke="none" /><path d="M 91.59046798132341 119.24265499422711 l -5.056258862152845 11.569709780500006 a33.62631926121372,33.62631926121372 0 0,0 -0.5269509990553732,-0.23569847933135038 l 5.254123264063853 -11.4812075502588" fill="#ff2603" stroke="none" /><path d="M 90.6110303473126 118.78422872680471 l -9.858953007063793 19.72451026492537 a43.05119633005517,43.05119633005517 0 0,0 -0.6582174863926115,-0.336090538537339 l 10.196097715169987 -19.552361774715198" fill="#ffbd11" stroke="none" /><path d="M 90.28995756902619 118.62028667847754 l -7.2998545482436406 13.998433618158032 a36.78746402014872,36.78746402014872 0 0,0 -0.5574372614314653,-0.29680394393364123 l 7.539080625461668 -13.871059206501817" fill="#ff5b08" stroke="none" /><line stroke="#e1ed5e" stroke-width="0.3" x1="58.13341422392154" x2="55.67067388415222" y1="173.97424548756322" y2="178.32567169271397" /><path d="M 57.64086615596768 174.84453072859336 a86.0,86.0 0 0,1 -31.369924170532247,-30.572349798747897" fill="none" id="id68" stroke="none" /><text fill="#e1ed5e" style="font-size:6.75px; font-family:Arial;" text-anchor="middle"><textPath startOffset="22.145653131862474" xlink:href="#id68">August</textPath></text><path d="M 88.72937992617639 117.7192867562869 l -10.190259904238154 16.020781126644025 a39.987017270328614,39.987017270328614 0 0,0 -0.5760308213076903,-0.3733762189647026 l 10.463776357802853 -15.843491065975426" fill="#ff8e0d" stroke="none" /><path d="M 88.1277618465304 117.32195027204791 l -8.910942003352252 13.00133068961908 a36.76196330055169,36.76196330055169 0 0,0 -0.5174769909396649,-0.36123912896430627 l 9.132814085465684 -12.846446744849644" fill="#ff5a08" stroke="none" /><path d="M 86.40962598614128 116.0094264158162 l -16.30767459887363 19.210399672408624 a46.19880366994484,46.19880366994484 0 0,0 -0.6001896024556059,-0.5184294837110867 l 16.635043681092096 -18.927626056232814" fill="#ffeb16" stroke="none" /><path d="M 85.86807049272751 115.53346607816431 l -19.09433333386226 20.9880171687862 a49.37411549532263,49.37411549532263 0 0,0 -0.6220438584651476,-0.5757545088197582 l 19.451806963641374 -20.657144913834063" fill="#e5ff1a" stroke="none" /><path d="M 85.34317274990678 115.03919595460226 l -15.421705153331011 15.82402806538978 a43.09590129527464,43.09590129527464 0 0,0 -0.5253761400415201,-0.5208857726644435 l 15.691073213502493 -15.556962282496675" fill="#ffbd11" stroke="none" /><path d="M 81.99639281039703 110.81064883170644 l -14.461940519808502 8.68397975684359 a37.86888342528184,37.86888342528184 0 0,0 -0.3298673498340501,-0.5601868759091057 l 14.608881579772323 -8.434441712640925" fill="#ff6c0a" stroke="none" /><line stroke="#e1ed5e" stroke-width="0.3" x1="26.387840678322732" x2="22.057713659400548" y1="142.50000000000003" y2="145.00000000000006" /><path d="M 25.521815274538298 143.00000000000003 a86.0,86.0 0 0,1 -11.493303480769221,-40.785679425670985" fill="none" id="id69" stroke="none" /><text fill="#e1ed5e" style="font-size:6.75px; font-family:Arial;" text-anchor="middle"><textPath startOffset="21.40746469413373" xlink:href="#id69">September</textPath></text><path d="M 80.9802524753101 108.90220220490708 l -14.305870304760457 6.695869648365884 a36.795334612616934,36.795334612616934 0 0,0 -0.2628510387023337,-0.5743769566244307 l 14.418705808317847 -6.449303709526764" fill="#ff5b08" stroke="none" /><path d="M 79.73907114497094 105.5222062557868 l -25.127208856024808 6.8485325094441585 a47.04379047733269,47.04379047733269 0 0,0 -0.20567213469701384,-0.7809705956475844 l 25.241070471526555 -6.416181409423771" fill="#fff817" stroke="none" /><path d="M 79.56144815229197 104.8234425847677 l -15.387131156875183 3.631321056036589 a36.80981650275846,36.80981650275846 0 0,0 -0.13985826404645194,-0.6162413169702143 l 15.4472002824793 -3.3666454051273482" fill="#ff5b08" stroke="none" /><path d="M 79.48165901384964 104.47187691870673 l -25.220973466905146 5.496793780262087 a46.81302470616455,46.81302470616455 0 0,0 -0.16438569547943083,-0.7866450611607221 l 25.311616873208944 -5.063032267815956" fill="#fff417" stroke="none" /><line stroke="#e1ed5e" stroke-width="0.3" x1="15.003131293944662" x2="10.003315487706104" y1="100.72959589197737" y2="100.7725132973878" /><path d="M 14.003168132696942 100.73817937305945 a86.0,86.0 0 0,1 10.791469493833604,-42.45332614584628" fill="none" id="id70" stroke="none" /><text fill="#e1ed5e" style="font-size:6.75px; font-family:Arial;" text-anchor="middle"><textPath startOffset="22.145653131862435" xlink:href="#id70">October</textPath></text><path d="M 79.64726062577567 94.8264132398404 l -24.42395851356043 -6.2084747450002284 a46.2006926121372,46.2006926121372 0 0,0 0.2019861702810283,-0.7669743883843472 l 24.313782862474675 6.626829637757361" fill="#ffec16" stroke="none" /><line stroke="#e1ed5e" stroke-width="0.3" x1="26.387840678322718" x2="22.05771365940052" y1="57.49999999999999" y2="54.99999999999999" /><path d="M 25.521815274538284 56.99999999999999 a86.0,86.0 0 0,1 29.574782752854787,-30.34633250058573" fill="none" id="id71" stroke="none" /><text fill="#e1ed5e" style="font-size:6.75px; font-family:Arial;" text-anchor="middle"><textPath startOffset="21.40746469413373" xlink:href="#id71">November</textPath></text><path d="M 83.64595745247003 86.82634096563983 l -24.570291555877667 -19.792087637734447 a52.55037179179659,52.55037179179659 0 0,0 0.5719311725336996,-0.6976630357832749 l 24.226913564105338 20.210952955216214" fill="#baff1f" stroke="none" /><path d="M 83.8745106332314 86.54754324733833 l -12.10185292786694 -10.095796129740997 a36.76007435835932,36.76007435835932 0 0,0 0.4083964377946642,-0.4810899768238781 l 11.926761926565161 10.302052889014432" fill="#ff5a08" stroke="none" /><path d="M 84.34580500576568 86.00192230759919 l -20.194812719534827 -18.05832606120286 a48.09120892300312,48.09120892300312 0 0,0 0.5555732311435587,-0.6106723031319626 l 19.881841787549405 18.402335939892478" fill="#f7ff18" stroke="none" /><line stroke="#e1ed5e" stroke-width="0.3" x1="56.869717070023135" x2="54.33264160355391" y1="26.7553504044142" y2="22.446841604673864" /><path d="M 56.362301976729285 25.89364864446614 a86.0,86.0 0 0,1 42.16139366436587,-11.88097634709845" fill="none" id="id72" stroke="none" /><text fill="#e1ed5e" style="font-size:6.75px; font-family:Arial;" text-anchor="middle"><textPath startOffset="22.145653131862474" xlink:href="#id72">December</textPath></text><path d="M 89.97174638481275 81.54914285379989 l -9.684126238640669 -17.817701533228593 a41.27936855360998,41.27936855360998 0 0,0 0.6255027024298662,-0.3330449574640745 l 9.37683472042424 17.981316958415245" fill="#ffa20e" stroke="none" /><path d="M 90.28995756902619 81.37971332152246 l -10.502811846287496 -20.140526562907088 a43.71452986327657,43.71452986327657 0 0,0 0.668359312127942,-0.34126902702117295 l 10.155525312445972 20.317853541601096" fill="#ffc712" stroke="none" /><path d="M 90.93487009805054 81.0573650232925 l -14.14822917219735 -29.56435745262783 a53.77535080355002,53.77535080355002 0 0,0 0.8361075691846271,-0.3913405599245023 l 13.638632889141201 29.802874244122876" fill="#aaff21" stroke="none" /><path d="M 92.93061703081487 80.22567764915836 l -5.316980603577723 -14.87254104730412 a36.79439014152074,36.79439014152074 0 0,0 0.5965846411577147,-0.20752310671641386 l 5.060890190375003 14.96162258658912" fill="#ff5b08" stroke="none" /></svg>