<?xml version="1.0" encoding="utf-8" ?>
<svg baseProfile="full" height="200mm" version="1.1" viewBox="0,0,200,200" width="200mm" xmlns="http://www.w3.org/2000/svg" xmlns:ev="http://www.w3.org/2001/xml-events" xmlns:xlink="http://www.w3.org/1999/xlink"><defs /><rect fill="#1a1a1a" height="200" width="200" x="0" y="0" /><text alignment-baseline="middle" fill="#e1ed5e" style="dominant-baseline: central; font-size:9.0px; font-family:Arial;" text-anchor="middle" x="100.0" y="100.0">2024</text><line stroke="#e1ed5e" stroke-width="0.3" x1="100.0" x2="100.0" y1="15.0" y2="10.0" /><path d="M 100.0 14.0 a86.0,86.0 0 0,1 42.35913384403234,11.155469271406648" fill="none" id="id61" stroke="none" /><text fill="#e1ed5e" style="font-size:6.75px; font-family:Arial;" text-anchor="middle"><textPath startOffset="22.145653131862478" xlink:href="#id61">January</textPath></text><path d="M 100.36049292484886 79.00309439819443 l 0.5304679572950158 -30.897099100560776 a51.90165252997953,51.90165252997953 0 0,0 0.8906983118824402,0.022941228989667464 l -1.0607795832481974 30.883440154221063" fill="#ffc612" stroke="none" /><path d="M 101.44090949804482 79.04949213459386 l 1.759659975871049 -25.585069856885756 a46.64551038315297,46.64551038315297 0 0,0 0.7983734612494741,0.06179915516736791 l -2.198602431895756 25.551092934723336" fill="#ff5f08" stroke="none" /><line stroke="#e1ed5e" stroke-width="0.3" x1="143.13028292997686" x2="145.6673583964461" y1="26.7553504044142" y2="22.446841604673864" /><path d="M 143.63769802327073 25.89364864446614 a86.0,86.0 0 0,1 29.32050498858742,28.57503671076993" fill="none" id="id62" stroke="none" /><text fill="#e1ed5e" style="font-size:6.75px; font-family:Arial;" text-anchor="middle"><textPath startOffset="20.669276256404974" xlink:href="#id62">February</textPath></text><path d="M 114.91283532996326 85.21462403516908 l 18.187058315541613 -18.031614306724187 a46.61070488446914,46.61070488446914 0 0,0 0.5584699312665125,0.5730393479951044 l -18.493915047958936 17.716752266661338" fill="#ff5e08" stroke="none" /><path d="M 115.16444852881244 85.47280134310134 l 15.270527224526807 -14.628819647795849 a42.1468996782685,42.1468996782685 0 0,0 0.49601716102796,0.5267530360678185 l -15.519400219291027 14.364525151783536" fill="#ff0000" stroke="none" /><path d="M 116.1254893667686 86.54754324733833 l 19.743780658337084 -16.47096403707728 a46.71205030710734,46.71205030710734 0 0,0 0.5083898894083155,0.6201530020384111 l -20.023617366984027 16.129608753340374" fill="#ff6008" stroke="none" /><path d="M 117.21940702142032 87.97951657250589 l 25.8715001223899 -18.060316367383727 a52.55169640245686,52.55169640245686 0 0,0 0.5100273845040891,0.7441451963445216 l -26.177717243709317 17.61353643596916" fill="#ffd213" stroke="none" /><path d="M 117.62189284568427 88.57770195909679 l 21.70394582426922 -14.06823546365705 a46.86458028663352,46.86458028663352 0 0,0 0.4317841511829365,0.6788364031008286 l -21.942247667078046 13.693585385877551" fill="#ff6309" stroke="none" /><line stroke="#e1ed5e" stroke-width="0.3" x1="172.87174338648825" x2="177.1583165268699" y1="56.24261187166439" y2="53.66864786411523" /><path d="M 173.72905801456457 55.72781907015455 a86.0,86.0 0 0,1 12.242430191666344,42.057860355516425" fill="none" id="id63" stroke="none" /><text fill="#e1ed5e" style="font-size:6.75px; font-family:Arial;" text-anchor="middle"><textPath startOffset="22.145653131862474" xlink:href="#id63">March</textPath></text><path d="M 118.00360718960297 89.18935116829356 l 54.010821568808936 -32.43194649511934 a84.0,84.0 0 0,0 0.7317051594809292,1.2425953268257741 l -54.55960043841963 31.500000000000007" fill="#4dd2ff" stroke="none" /><path d="M 119.0197475246899 91.09779779509293 l 23.17852092441675 -10.84871814475843 a46.59176659842059,46.59176659842059 0 0,0 0.33283279998145743,0.7272997347163874 l -23.361338189253257 10.449229427827358" fill="#ff5d08" stroke="none" /><path d="M 120.35273937422433 94.82641323984039 l 26.782296141049937 -6.807954947700526 a48.634030418250944,48.634030418250944 0 0,0 0.19873364027009743,0.8109010703230145 l -26.895217307836326 6.347198052769416" fill="#ff860c" stroke="none" /><path d="M 120.43855184770803 95.1765574152323 l 24.951891024373605 -5.8885783412753465 a46.6373208540509,46.6373208540509 0 0,0 0.17719769762873328,0.7807657509216068 l -25.049299583560003 5.4593782564147135" fill="#ff5e08" stroke="none" /><line stroke="#e1ed5e" stroke-width="0.3" x1="184.99686870605535" x2="189.99668451229388" y1="99.2704041080226" y2="99.22748670261217" /><path d="M 185.99683186730306 99.26182062694052 a86.0,86.0 0 0,1 -10.086455211305974,41.156179273409016" fill="none" id="id64" stroke="none" /><text fill="#e1ed5e" style="font-size:6.75px; font-family:Arial;" text-anchor="middle"><textPath startOffset="21.40746469413373" xlink:href="#id64">April</textPath></text><line stroke="#e1ed5e" stroke-width="0.3" x1="174.33088141563837" x2="178.70328620479359" y1="141.23008692659167" y2="143.65538615756765" /><path d="M 175.20536237346943 141.71514677278685 a86.0,86.0 0 0,1 -30.301960400862466,31.631185727798858" fill="none" id="id65" stroke="none" /><text fill="#e1ed5e" style="font-size:6.75px; font-family:Arial;" text-anchor="middle"><textPath startOffset="22.145653131862474" xlink:href="#id65">May</textPath></text><line stroke="#e1ed5e" stroke-width="0.3" x1="143.1302829299769" x2="145.66735839644613" y1="173.24464959558577" y2="177.55315839532614" /><path d="M 143.63769802327073 174.10635135553383 a86.0,86.0 0 0,1 -40.68552437913181,11.842963189579606" fill="none" id="id66" stroke="none" /><text fill="#e1ed5e" style="font-size:6.75px; font-family:Arial;" text-anchor="middle"><textPath startOffset="21.407464694133747" xlink:href="#id66">June</textPath></text><line stroke="#e1ed5e" stroke-width="0.3" x1="101.45913802915013" x2="101.54496967792366" y1="184.9874750549273" y2="189.98673829345242" /><path d="M 101.47630435890484 185.9873277026323 a86.0,86.0 0 0,1 -42.54439059252881,-10.42667462771756" fill="none" id="id67" stroke="none" /><text fill="#e1ed5e" style="font-size:6.75px; font-family:Arial;" text-anchor="middle"><textPath startOffset="22.145653131862474" xlink:href="#id67">July</textPath></text><line stroke="#e1ed5e" stroke-width="0.3" x1="58.13341422392154" x2="55.67067388415222" y1="173.97424548756322" y2="178.32567169271397" /><path d="M 57.64086615596768 174.84453072859336 a86.0,86.0 0 0,1 -31.369924170532247,-30.572349798747897" fill="none" id="id68" stroke="none" /><text fill="#e1ed5e" style="font-size:6.75px; font-family:Arial;" text-anchor="middle"><textPath startOffset="22.145653131862474" xlink:href="#id68">August</textPath></text><line stroke="#e1ed5e" stroke-width="0.3" x1="26.387840678322732" x2="22.057713659400548" y1="142.50000000000003" y2="145.00000000000006" /><path d="M 25.521815274538298 143.00000000000003 a86.0,86.0 0 0,1 -11.493303480769221,-40.785679425670985" fill="none" id="id69" stroke="none" /><text fill="#e1ed5e" style="font-size:6.75px; font-family:Arial;" text-anchor="middle"><textPath startOffset="21.40746469413373" xlink:href="#id69">September</textPath></text><line stroke="#e1ed5e" stroke-width="0.3" x1="15.003131293944662" x2="10.003315487706104" y1="100.72959589197737" y2="100.7725132973878" /><path d="M 14.003168132696942 100.73817937305945 a86.0,86.0 0 0,1 10.791469493833604,-42.45332614584628" fill="none" id="id70" stroke="none" /><text fill="#e1ed5e" style="font-size:6.75px; font-family:Arial;" text-anchor="middle"><textPath startOffset="22.145653131862435" xlink:href="#id70">October</textPath></text><line stroke="#e1ed5e" stroke-width="0.3" x1="26.387840678322718" x2="22.05771365940052" y1="57.49999999999999" y2="54.99999999999999" /><path d="M 25.521815274538284 56.99999999999999 a86.0,86.0 0 0,1 29.574782752854787,-30.34633250058573" fill="none" id="id71" stroke="none" /><text fill="#e1ed5e" style="font-size:6.75px; font-family:Arial;" text-anchor="middle"><textPath startOffset="21.40746469413373" xlink:href="#id71">November</textPath></text><line stroke="#e1ed5e" stroke-width="0.3" x1="56.869717070023135" x2="54.33264160355391" y1="26.7553504044142" y2="22.446841604673864" /><path d="M 56.362301976729285 25.89364864446614 a86.0,86.0 0 0,1 42.16139366436587,-11.88097634709845" fill="none" id="id72" stroke="none" /><text fill="#e1ed5e" style="font-size:6.75px; font-family:Arial;" text-anchor="middle"><textPath startOffset="22.145653131862474" xlink:href="#id72">December</textPath></text></svg>