<?xml version="1.0" encoding="utf-8" ?>
<svg baseProfile="full" height="200mm" version="1.1" viewBox="0,0,200,200" width="200mm" xmlns="http://www.w3.org/2000/svg" xmlns:ev="http://www.w3.org/2001/xml-events" xmlns:xlink="http://www.w3.org/1999/xlink"><defs /><rect fill="#1a1a1a" height="200" width="200" x="0" y="0" /><text alignment-baseline="middle" fill="#e1ed5e" style="dominant-baseline: central; font-size:9.0px; font-family:Arial;" text-anchor="middle" x="100.0" y="100.0">2024</text><line stroke="#e1ed5e" stroke-width="0.3" x1="100.0" x2="100.0" y1="15.0" y2="10.0" /><path d="M 100.0 14.0 a86.0,86.0 0 0,1 42.35913384403234,11.155469271406648" fill="none" id="id61" stroke="none" /><text fill="#e1ed5e" style="font-size:6.75px; font-family:Arial;" text-anchor="middle"><textPath startOffset="22.145653131862478" xlink:href="#id61">January</textPath></text><path d="M 100.36049292484886 79.00309439819443 l 0.3224302126207394 -18.779943435523073 a39.78271111111111,39.78271111111111 0 0,0 0.6827218768864014,0.017584493767373078 l -0.6447654035778821 18.771641224405656" fill="#ff8c0c" stroke="none" /><path d="M 101.44090949804482 79.04949213459386 l 1.069560436889443 -15.551174016123095 a36.58791111111111,36.58791111111111 0 0,0 0.6262299842733843,0.0484741613379809 l -1.3363594159380607 15.530522087790061" fill="#ff5908" stroke="none" /><line stroke="#e1ed5e" stroke-width="0.3" x1="143.13028292997686" x2="145.6673583964461" y1="26.7553504044142" y2="22.446841604673864" /><path d="M 143.63769802327073 25.89364864446614 a86.0,86.0 0 0,1 29.32050498858742,28.57503671076993" fill="none" id="id62" stroke="none" /><text fill="#e1ed5e" style="font-size:6.75px; font-family:Arial;" text-anchor="middle"><textPath startOffset="20.669276256404974" xlink:href="#id62">February</textPath></text><path d="M 114.91283532996326 85.21462403516908 l 11.054498201037651 -10.960015878167113 a36.56675555555556,36.56675555555556 0 0,0 0.4381275398509361,0.44955745281667975 l -11.2410125420394 10.76863573328269" fill="#ff5908" stroke="none" /><path d="M 115.16444852881244 85.47280134310134 l 9.28176579211683 -8.891721666811383 a33.85355555555556,33.85355555555556 0 0,0 0.39841470299242776,0.42310260794281185 l -9.43303632884552 8.731077598924076" fill="#ff2c04" stroke="none" /><path d="M 116.1254893667686 86.54754324733833 l 12.000708634818572 -10.011417963158614 a36.62835555555555,36.62835555555555 0 0,0 0.3986441508705099,0.4862810454297683 l -12.17079960492771 9.803934636030352" fill="#ff5a08" stroke="none" /><path d="M 117.21940702142032 87.97951657250589 l 15.72527269661352 -10.977461628459546 a40.17782222222222,40.17782222222222 0 0,0 0.38993583434753304,0.5689280356866474 l -15.911398267776377 10.70589885770285" fill="#ff920d" stroke="none" /><path d="M 117.62189284568427 88.57770195909679 l 13.192140581898038 -8.550986142265502 a36.721066666666665,36.721066666666665 0 0,0 0.3383274640298216,0.5319069681529924 l -13.336985737553748 8.323265499433838" fill="#ff5b08" stroke="none" /><line stroke="#e1ed5e" stroke-width="0.3" x1="172.87174338648825" x2="177.1583165268699" y1="56.24261187166439" y2="53.66864786411523" /><path d="M 173.72905801456457 55.72781907015455 a86.0,86.0 0 0,1 12.242430191666344,42.057860355516425" fill="none" id="id63" stroke="none" /><text fill="#e1ed5e" style="font-size:6.75px; font-family:Arial;" text-anchor="middle"><textPath startOffset="22.145653131862474" xlink:href="#id63">March</textPath></text><path d="M 118.00360718960297 89.18935116829356 l 32.82897759000138 -19.712857789655647 a59.2928,59.2928 0 0,0 0.5164862819056052,0.8771066213620864 l -33.16253758203675 19.146400000000003" fill="#63ff29" stroke="none" /><path d="M 119.0197475246899 91.09779779509293 l 14.08842009610326 -6.594091971009611 a36.55524444444444,36.55524444444444 0 0,0 0.26113593131846385,0.570629137463064 l -14.199540492276775 6.351273851331864" fill="#ff5908" stroke="none" /><path d="M 120.35273937422433 94.82641323984039 l 16.278874756666617 -4.138026305100105 a37.79657777777777,37.79657777777777 0 0,0 0.15444846801573772,0.6302024551731429 l -16.347510751198644 3.8579680253188675" fill="#ff6d0a" stroke="none" /><path d="M 120.43855184770803 95.1765574152323 l 15.166313851081485 -3.579208773123628 a36.58293333333334,36.58293333333334 0 0,0 0.1389962253504759,0.6124430154189301 l -15.225520937989627 3.318331423765672" fill="#ff5908" stroke="none" /><path d="M 120.592083275326 95.88100663000786 l 21.98105742573429 -4.396827100563607 a43.41648888888889,43.41648888888889 0 0,0 0.13991213234293567,0.7320793976578646 l -22.053295850359383 4.018845137872428" fill="#ffc412" stroke="none" /><path d="M 120.7213421655516 96.59031103205396 l 18.44383642442232 -3.034926264935797 a39.69186666666667,39.69186666666667 0 0,0 0.10485931128159984,0.6732719994222933 l -18.493217227842184 2.7178660835820625" fill="#ff8b0c" stroke="none" /><path d="M 120.82617615685814 97.30363454192243 l 27.10087163096219 -3.508750410980142 a48.32706666666667,48.32706666666667 0 0,0 0.09945690469159447,0.8236458445592267 l -27.157110621913446 3.043010889497502" fill="#f3ff19" stroke="none" /><path d="M 120.93736805541906 98.37931529534042 l 31.68521699053418 -2.4526361863848267 a52.78,52.78 0 0,0 0.06216991093846724,0.9039368606254402 l -31.722650862637714 1.9083559016050524" fill="#b6ff1f" stroke="none" /><path d="M 120.96210409425399 98.7389718711861 l 11.82604275575239 -0.711425365531297 a32.84742222222222,32.84742222222222 0 0,0 0.02902837842349038,0.5631427864220948 l -11.836512723632453 0.5083107857324716" fill="#ff1b02" stroke="none" /><line stroke="#e1ed5e" stroke-width="0.3" x1="184.99686870605535" x2="189.99668451229388" y1="99.2704041080226" y2="99.22748670261217" /><path d="M 185.99683186730306 99.26182062694052 a86.0,86.0 0 0,1 -10.086455211305974,41.156179273409016" fill="none" id="id64" stroke="none" /><text fill="#e1ed5e" style="font-size:6.75px; font-family:Arial;" text-anchor="middle"><textPath startOffset="21.40746469413373" xlink:href="#id64">April</textPath></text><path d="M 120.99922638620191 99.81974689727618 l 23.382249706473118 -0.20070849186256184 a44.38311111111111,44.38311111111111 0 0,0 0.0,0.7619231891727746 l -23.382249706473118 -0.200708491862559" fill="#ffd213" stroke="none" /><path d="M 120.98066250479742 100.90099992219065 l 62.19973829866699 2.6711243915468765 a83.25706666666667,83.25706666666667 0 0,0 -0.07357708684959519,1.4273758286054277 l -62.144719622360824 -3.7384720135290346" fill="#4cdaff" stroke="none" /><path d="M 120.9064616781168 101.97986365728391 l 16.745920941492464 1.5858561238276934 a37.82084444444445,37.82084444444445 0 0,0 -0.06675848656564891,0.6458277991056427 l -16.71623006244515 -1.8730884452162675" fill="#ff6d0a" stroke="none" /><path d="M 120.77682067341334 103.0534771498775 l 13.01890973633616 1.9133314004624924 a34.15875555555556,34.15875555555556 0 0,0 -0.09024175183980414,0.5794167818763624 l -12.98414649235809 -2.136536364270305" fill="#ff3104" stroke="none" /><path d="M 120.43855184770803 104.8234425847677 l 21.309385553100753 5.028956968083146 a42.89475555555556,42.89475555555556 0 0,0 -0.17528119398576583,0.7152070863160543 l -21.21991683259869 -5.3940198790073" fill="#ffbc11" stroke="none" /><path d="M 120.16314734710363 105.8691983318838 l 23.31994943842499 6.788097412940805 a45.287822222222225,45.287822222222225 0 0,0 -0.22368664666239463,0.7445800966000825 l -23.199986471758965 -7.18741511313161" fill="#ffdf14" stroke="none" /><path d="M 119.16976305983485 108.57439118712176 l 14.233052078070267 6.366263157407132 a36.59195555555556,36.59195555555556 0 0,0 -0.2613981806984129,0.5712021996867399 l -14.1216694325168 -6.609654339308561" fill="#ff5908" stroke="none" /><path d="M 118.5362547648365 109.86951160357373 l 9.049262270602325 4.818222457371331 a31.252044444444444,31.252044444444444 0 0,0 -0.25619927548282007,0.4713778105626026 l -8.965217645504167 -4.972855101408537" fill="#ff0000" stroke="none" /><line stroke="#e1ed5e" stroke-width="0.3" x1="174.33088141563837" x2="178.70328620479359" y1="141.23008692659167" y2="143.65538615756765" /><path d="M 175.20536237346943 141.71514677278685 a86.0,86.0 0 0,1 -30.301960400862466,31.631185727798858" fill="none" id="id65" stroke="none" /><text fill="#e1ed5e" style="font-size:6.75px; font-family:Arial;" text-anchor="middle"><textPath startOffset="22.145653131862474" xlink:href="#id65">May</textPath></text><path d="M 118.36410011445183 110.18625677009912 l 21.775469763860897 12.078486009214272 a45.901022222222224,45.901022222222224 0 0,0 -0.38811857419423507,0.6857683317977116 l -21.56491782464528 -12.450511111111107" fill="#ffe815" stroke="none" /><path d="M 117.81537515405839 111.11811171558189 l 22.031152744218 13.749068729403954 a46.96937777777777,46.96937777777777 0 0,0 -0.4327496969209558,0.6803544013738794 l -21.791885355671155 -14.125236805456504" fill="#fff817" stroke="none" /><path d="M 117.01052211995028 112.31430620078461 l 15.23361557968703 11.027962896758945 a39.806355555555555,39.806355555555555 0 0,0 -0.40545233624101895,0.5500739634867617 l -15.042061223862182 -11.287843169514584" fill="#ff8c0c" stroke="none" /><path d="M 116.35404254752997 113.17365903436017 l 19.429813957024685 15.65128275941502 a45.949555555555555,45.949555555555555 0 0,0 -0.5000912893711245,0.6100300593265348 l -19.158275848414934 -15.982515100440049" fill="#ffe915" stroke="none" /><path d="M 115.6541949942343 113.99807769240083 l 11.775201431662996 10.529457729688287 a36.79635555555555,36.79635555555555 0 0,0 -0.4250895456389259,0.46724787538506557 l -11.59271418518219 -10.730043180631025" fill="#ff5d08" stroke="none" /><path d="M 115.41159269507618 114.26474011684316 l 18.339566987248876 16.97482940956014 a45.989688888888885,45.989688888888885 0 0,0 -0.5412420627225348,0.5747803144468837 l -18.045469090790082 -17.287151183951522" fill="#ffea16" stroke="none" /><path d="M 112.16784306229584 117.11559508785304 l 9.126963882771864 12.838217702119813 a36.75186666666667,36.75186666666667 0 0,0 -0.5173348664378185,0.36113991502407605 l -8.905233925160287 -12.99300243294901" fill="#ff5c08" stroke="none" /><line stroke="#e1ed5e" stroke-width="0.3" x1="143.1302829299769" x2="145.66735839644613" y1="173.24464959558577" y2="177.55315839532614" /><path d="M 143.63769802327073 174.10635135553383 a86.0,86.0 0 0,1 -40.68552437913181,11.842963189579606" fill="none" id="id66" stroke="none" /><text fill="#e1ed5e" style="font-size:6.75px; font-family:Arial;" text-anchor="middle"><textPath startOffset="21.407464694133747" xlink:href="#id66">June</textPath></text><path d="M 110.65571695917076 118.09573695890943 l 8.051933321769834 13.673943101127913 a36.86853333333333,36.86853333333333 0 0,0 -0.5481254193146016,0.3164603583909629 l -7.816015434594835 -13.810150356795049" fill="#ff5e08" stroke="none" /><path d="M 109.3889696526874 118.78422872680471 l 8.867221131691384 17.740382179334418 a40.83302222222222,40.83302222222222 0 0,0 -0.6296836065867059,0.3080098058294743 l -8.561377275842608 -17.889985735261114" fill="#ff9c0e" stroke="none" /><path d="M 104.29559338865022 120.5559693870025 l 2.5472550602592925 12.189537580052587 a33.452844444444445,33.452844444444445 0 0,0 -0.5631284800046312,0.11264146733381472 l -2.3376300947237025 -12.231468444049263" fill="#ff2503" stroke="none" /><path d="M 103.58742460773223 120.69131181640829 l 2.659424295500936 15.33885262194451 a36.56768888888889,36.56768888888889 0 0,0 -0.6194261713873324,0.10192634078247943 l -2.3957206210605313 -15.382244961222659" fill="#ff5908" stroke="none" /><path d="M 102.875027216393 120.80226474461374 l 2.134122054479567 15.441444074501796 a36.58822222222222,36.58822222222222 0 0,0 -0.6229095667634869,0.08064811450151972 l -1.8687346658253048 -15.47580378520371" fill="#ff5908" stroke="none" /><line stroke="#e1ed5e" stroke-width="0.3" x1="101.45913802915013" x2="101.54496967792366" y1="184.9874750549273" y2="189.98673829345242" /><path d="M 101.47630435890484 185.9873277026323 a86.0,86.0 0 0,1 -42.54439059252881,-10.42667462771756" fill="none" id="id67" stroke="none" /><text fill="#e1ed5e" style="font-size:6.75px; font-family:Arial;" text-anchor="middle"><textPath startOffset="22.145653131862474" xlink:href="#id67">July</textPath></text><path d="M 98.91894614982273 120.97215588758144 l -0.6416815342400352 12.448450337656858 a33.464977777777776,33.464977777777776 0 0,0 -0.573455298052167,-0.03449764671569197 l 0.8552811844246485 -12.435600713116473" fill="#ff2603" stroke="none" /><path d="M 97.48249496171623 120.84855314841334 l -1.8788046859784433 15.559197997797366 a36.672222222222224,36.672222222222224 0 0,0 -0.6243396554758912,-0.08083326811671408 l 2.1456221633451285 -15.524653133480255" fill="#ff5b08" stroke="none" /><path d="M 97.12497278360702 120.80226474461374 l -1.704742063835741 12.334664357606231 a33.451911111111116,33.451911111111116 0 0,0 -0.5681646125131747,-0.08350063221645879 l 1.9162317819566006 -12.30358265209089" fill="#ff2503" stroke="none" /><path d="M 96.41257539226777 120.69131181640829 l -2.6627725584681485 15.358164512973154 a36.587288888888885,36.587288888888885 0 0,0 -0.617916217258201,-0.11260491865664445 l 2.9260235092774067 -15.310191420385143" fill="#ff5908" stroke="none" /><path d="M 95.00130118170881 120.39639698878247 l -6.006806774045232 24.5098214659424 a46.23515555555556,46.23515555555556 0 0,0 -0.769253267524397,-0.19554117246320088 l 6.426665334795008 -24.403095061643935" fill="#ffed16" stroke="none" /><path d="M 93.27111125876986 119.89276391827306 l -3.9924739864632106 11.803039924842015 a33.46,33.46 0 0,0 -0.5425208032082652,-0.18871689744071254 l 4.194500561716498 -11.73276459483271" fill="#ff2603" stroke="none" /><path d="M 91.59046798132341 119.24265499422711 l -4.99663246134879 11.433272906644033 a33.47742222222222,33.47742222222222 0 0,0 -0.5246176647750597,-0.23465480858658 l 5.192163528979485 -11.345814347147599" fill="#ff2603" stroke="none" /><path d="M 90.6110303473126 118.78422872680471 l -9.742690390861974 19.491907151282696 a42.791155555555555,42.791155555555555 0 0,0 -0.6542416762051666,-0.3340604615268605 l 10.075859288780721 -19.321788738082997" fill="#ffba11" stroke="none" /><path d="M 90.28995756902619 118.62028667847754 l -7.2137703375710185 13.83335579356464 a36.60128888888889,36.60128888888889 0 0,0 -0.5546161657653089,-0.2953018693902583 l 7.45017531912289 -13.70748345645181" fill="#ff5908" stroke="none" /><line stroke="#e1ed5e" stroke-width="0.3" x1="58.13341422392154" x2="55.67067388415222" y1="173.97424548756322" y2="178.32567169271397" /><path d="M 57.64086615596768 174.84453072859336 a86.0,86.0 0 0,1 -31.369924170532247,-30.572349798747897" fill="none" id="id68" stroke="none" /><text fill="#e1ed5e" style="font-size:6.75px; font-family:Arial;" text-anchor="middle"><textPath startOffset="22.145653131862474" xlink:href="#id68">August</textPath></text><path d="M 88.72937992617639 117.7192867562869 l -10.070090320774844 15.831854581802418 a39.763111111111115,39.763111111111115 0 0,0 -0.5728053532034311,-0.37128550950852185 l 10.340381306235285 -15.656655230590001" fill="#ff8c0c" stroke="none" /><path d="M 88.1277618465304 117.32195027204791 l -8.805858894690498 12.84801129363483 a36.57608888888889,36.57608888888889 0 0,0 -0.514860543867631,-0.3594126457045067 l 9.025114529731896 -12.694953832125195" fill="#ff5908" stroke="none" /><path d="M 86.40962598614128 116.0094264158162 l -16.115364836196534 18.983859255531026 a45.90164444444444,45.90164444444444 0 0,0 -0.5963290722415925,-0.5150948496595912 l 16.43887338820099 -18.704420273406715" fill="#ffe815" stroke="none" /><path d="M 85.86807049272751 115.53346607816431 l -18.869161640028857 20.740514032988358 a49.03951111111111,49.03951111111111 0 0,0 -0.6178283175865672,-0.5718526671169151 l 19.222419728929392 -20.413543619739066" fill="#e9ff1a" stroke="none" /><path d="M 85.34317274990678 115.03919595460226 l -15.239843267374699 15.637421749240891 a42.83533333333334,42.83533333333334 0 0,0 -0.522199592250461,-0.5177363746913635 l 15.506034779755122 -15.373505364320868" fill="#ffbb11" stroke="none" /><path d="M 81.99639281039703 110.81064883170644 l -14.291396747160096 8.581573121488814 a37.66995555555555,37.66995555555555 0 0,0 -0.3281345337787731,-0.5572441754174713 l 14.43660499106864 -8.334977777777784" fill="#ff6b09" stroke="none" /><line stroke="#e1ed5e" stroke-width="0.3" x1="26.387840678322732" x2="22.057713659400548" y1="142.50000000000003" y2="145.00000000000006" /><path d="M 25.521815274538298 143.00000000000003 a86.0,86.0 0 0,1 -11.493303480769221,-40.785679425670985" fill="none" id="id69" stroke="none" /><text fill="#e1ed5e" style="font-size:6.75px; font-family:Arial;" text-anchor="middle"><textPath startOffset="21.40746469413373" xlink:href="#id69">September</textPath></text><path d="M 80.9802524753101 108.90220220490708 l -14.137167004573948 6.616907985549598 a36.60906666666666,36.60906666666666 0 0,0 -0.2615204155789013,-0.5714693049604908 l 14.248671885007905 -6.373249698374418" fill="#ff5908" stroke="none" /><path d="M 79.73907114497094 105.5222062557868 l -24.830893918996722 6.767770555703158 a46.736666666666665,46.736666666666665 0 0,0 -0.2043294110534673,-0.7758720552680848 l 24.943412810854923 -6.34051799606227" fill="#fff517" stroke="none" /><path d="M 79.56144815229197 104.8234425847677 l -15.205676987973362 3.588498366249845 a36.623377777777776,36.623377777777776 0 0,0 -0.13914989332080926,-0.6131201048498622 l 15.265037742851836 -3.3269439274609565" fill="#ff5a08" stroke="none" /><path d="M 79.48165901384964 104.47187691870673 l -24.92355280202135 5.43197233064596 a46.50862222222223,46.50862222222223 0 0,0 -0.16331677471768533,-0.7815298883620982 l 25.013127287563407 -5.003325990998453" fill="#fff116" stroke="none" /><line stroke="#e1ed5e" stroke-width="0.3" x1="15.003131293944662" x2="10.003315487706104" y1="100.72959589197737" y2="100.7725132973878" /><path d="M 14.003168132696942 100.73817937305945 a86.0,86.0 0 0,1 10.791469493833604,-42.45332614584628" fill="none" id="id70" stroke="none" /><text fill="#e1ed5e" style="font-size:6.75px; font-family:Arial;" text-anchor="middle"><textPath startOffset="22.145653131862435" xlink:href="#id70">October</textPath></text><path d="M 79.64726062577567 94.8264132398404 l -24.13593672131163 -6.135260731711042 a45.903511111111115,45.903511111111115 0 0,0 0.2006869137141504,-0.7620408995749446 l 24.027060326792757 6.548682135658771" fill="#ffe815" stroke="none" /><line stroke="#e1ed5e" stroke-width="0.3" x1="26.387840678322718" x2="22.05771365940052" y1="57.49999999999999" y2="54.99999999999999" /><path d="M 25.521815274538284 56.99999999999999 a86.0,86.0 0 0,1 29.574782752854787,-30.34633250058573" fill="none" id="id71" stroke="none" /><text fill="#e1ed5e" style="font-size:6.75px; font-family:Arial;" text-anchor="middle"><textPath startOffset="21.40746469413373" xlink:href="#id71">November</textPath></text><path d="M 83.64595745247003 86.82634096563983 l -24.280544117677987 -19.558687611665757 a52.178311111111114,52.178311111111114 0 0,0 0.5678818557714659,-0.6927235277430455 l 23.94121544266789 19.972613421107297" fill="#beff1f" stroke="none" /><path d="M 83.8745106332314 86.54754324733833 l -11.959140706673129 -9.976740519085086 a36.57422222222222,36.57422222222222 0 0,0 0.4063316609496832,-0.478657674892298 l 11.78611448221633 10.18056497642694" fill="#ff5908" stroke="none" /><path d="M 84.34580500576568 86.00192230759919 l -19.95666352064965 -17.845371579058895 a47.77173333333334,47.77173333333334 0 0,0 0.5518824924493306,-0.6066155347847487 l 19.64738332735845 18.185324689401302" fill="#fbff18" stroke="none" /><line stroke="#e1ed5e" stroke-width="0.3" x1="56.869717070023135" x2="54.33264160355391" y1="26.7553504044142" y2="22.446841604673864" /><path d="M 56.362301976729285 25.89364864446614 a86.0,86.0 0 0,1 42.16139366436587,-11.88097634709845" fill="none" id="id72" stroke="none" /><text fill="#e1ed5e" style="font-size:6.75px; font-family:Arial;" text-anchor="middle"><textPath startOffset="22.145653131862474" xlink:href="#id72">December</textPath></text><path d="M 89.97174638481275 81.54914285379989 l -9.569925283293145 -17.607584638110822 a41.040222222222226,41.040222222222226 0 0,0 0.6218789387483806,-0.33111550741298457 l 9.266257528758203 17.76927061324638" fill="#ffa00e" stroke="none" /><path d="M 90.28995756902619 81.37971332152246 l -10.37895646510757 -19.903017538550433 a43.446666666666665,43.446666666666665 0 0,0 0.6642639035214553,-0.3391778822057591 l 10.035765339872533 20.078253372429025" fill="#ffc412" stroke="none" /><path d="M 90.93487009805054 81.0573650232925 l -13.981384869662994 -29.215717029927212 a53.38884444444445,53.38884444444445 0 0,0 0.8300981078318466,-0.3885278285759089 l 13.477798047959626 29.451421090073666" fill="#aeff20" stroke="none" /><path d="M 92.93061703081487 80.22567764915836 l -5.254279617497013 -14.697155229916651 a36.60813333333333,36.60813333333333 0 0,0 0.5935646712479463,-0.20647260441610482 l 5.001209174204062 14.785186266901343" fill="#ff5908" stroke="none" /><path d="M 93.95794788825049 79.88797359093562 l -6.497667596916988 -21.62862217828124 a43.583555555555556,43.583555555555556 0 0,0 0.7183814943030853,-0.2091103831875539 l 6.125426090232278 21.736976255771317" fill="#ffc612" stroke="none" /><path d="M 95.35216902796891 79.52079915486377 l -3.4420803327535143 -15.166441052555776 a36.55213333333333,36.55213333333333 0 0,0 0.6130969101309096,-0.1336216180048602 l 3.1812210060034865 15.223294128694349" fill="#ff5908" stroke="none" /><path d="M 95.70440661134978 79.44403061299748 l -2.596638474623622 -12.425855094783163 a33.694266666666664,33.694266666666664 0 0,0 0.5671924611487204,-0.11345437738106086 l 2.382949527943925 12.46859886882709" fill="#ff2904" stroke="none" /><path d="M 97.12497278360702 79.19773525538626 l -5.120359582902206 -37.048371237607185 a58.400533333333335,58.400533333333335 0 0,0 0.9942612323844106,-0.1287270223355068 l 4.483620528627002 37.13080985614309" fill="#6eff28" stroke="none" /><path d="M 98.5590905019552 79.04949213459386 l -1.5380588184240978 -22.363037662375966 a43.41586666666667,43.41586666666667 0 0,0 0.743973563193478,-0.04475560211238693 l 1.153940903098136 22.38614524231305" fill="#ffc412" stroke="none" /><path d="M 99.27912038922189 79.0123766808444 l -0.6416576114780829 -18.68116124831862 a39.69217777777777,39.69217777777777 0 0,0 0.6811682098403903,-0.01754447681550438 l 0.32087608756694874 18.68942344248417" fill="#ff8b0c" stroke="none" /><path d="M 99.63950707515114 79.00309439819443 l -1.081478774546572 -62.990716805416696 a84.0,84.0 0 0,0 1.4419716993954086,-0.012377592777739643 l 1.543054966925665e-14 63.0" fill="#4dd2ff" stroke="none" /></svg>