<?xml version="1.0" encoding="utf-8" ?>
<svg baseProfile="full" height="200mm" version="1.1" viewBox="0,0,200,200" width="200mm" xmlns="http://www.w3.org/2000/svg" xmlns:ev="http://www.w3.org/2001/xml-events" xmlns:xlink="http://www.w3.org/1999/xlink"><defs /><rect fill="#1a1a1a" height="200" width="200" x="0" y="0" /><text alignment-baseline="middle" fill="#e1ed5e" style="dominant-baseline: central; font-size:9.0px; font-family:Arial;" text-anchor="middle" x="100.0" y="100.0">2023</text><line stroke="#e1ed5e" stroke-width="0.3" x1="100.0" x2="100.0" y1="15.0" y2="10.0" /><path d="M 100.0 14.0 a86.0,86.0 0 0,1 42.46469731375804,11.215312516191453" fill="none" id="id49" stroke="none" /><text fill="#e1ed5e" style="font-size:6.75px; font-family:Arial;" text-anchor="middle"><textPath startOffset="22.20632615414155" xlink:href="#id49">January</textPath></text><path d="M 103.2404852339499 79.25152402106235 l 2.307209931230303 -14.772815297833377 a35.95189919343585,35.95189919343585 0 0,0 0.6106186869589475,0.10075731533102826 l -2.5611578243281254 14.730911719562725" fill="#ff7f0b" stroke="none" /><path d="M 103.59715602781102 79.31037775812273 l 3.021807832243365 -17.380414431093357 a38.64114872596355,38.64114872596355 0 0,0 0.6543324291971936,0.11957506904815546 l -3.320535382543459 17.32582388069446" fill="#ffa60f" stroke="none" /><path d="M 103.95276090670814 79.375362276772 l 3.8658864344904225 -20.171345819372636 a41.53845831821607,41.53845831821607 0 0,0 0.7010773774726418,0.14062952652747338 l -4.212530221430189 20.101812336767953" fill="#ffcf13" stroke="none" /><path d="M 105.36241919743992 79.69619591428918 l 6.003332379127194 -22.730502782287996 a44.50990762189166,44.50990762189166 0 0,0 0.7390808922957743,0.20201872680688632 l -6.393711160646679 22.623797514654818" fill="#fff817" stroke="none" /><path d="M 105.71112130821622 79.79150937346287 l 7.97805281462422 -28.22990387026251 a50.335589294186605,50.335589294186605 0 0,0 0.8317591372256516,0.24281330049347244 l -8.4628021695733 28.088392240850336" fill="#bbff1f" stroke="none" /><path d="M 106.74666289553966 80.11325718540242 l 4.7146239915552846 -13.897020829301692 a35.674974184365496,35.674974184365496 0 0,0 0.5798338425572419,0.20229264233227462 l -4.9531398381758 13.81380733379721" fill="#ff7b0b" stroke="none" /><path d="M 109.08828744355905 81.06846463323043 l 5.386619420023545 -11.220703206276276 a33.44668024894644,33.44668024894644 0 0,0 0.5168766078046574,0.2536291066792835 l -5.578967294838634 11.12631893946216" fill="#ff5908" stroke="none" /><line stroke="#e1ed5e" stroke-width="0.3" x1="143.23703022742887" x2="145.7803849466894" y1="26.81831364943548" y2="22.513508569990506" /><path d="M 143.74570117128098 25.957352633546492 a86.0,86.0 0 0,1 28.547481713284135,27.462654790039103" fill="none" id="id50" stroke="none" /><text fill="#e1ed5e" style="font-size:6.75px; font-family:Arial;" text-anchor="middle"><textPath startOffset="19.985693538727396" xlink:href="#id50">February</textPath></text><path d="M 114.68862486808459 84.99185889309783 l 8.22302269623814 -8.401895075865893 a32.75627250146521,32.75627250146521 0 0,0 0.3995706826113796,0.3978547991171016 l -8.366429179016842 8.259104426098673" fill="#ff4e07" stroke="none" /><path d="M 117.2510076193507 88.02491185347247 l 12.040944295614167 -8.358431721151524 a35.657684686444696,35.657684686444696 0 0,0 0.3456682006218477,0.5072254311969199 l -12.183036961904747 8.149928266684197" fill="#ff7a0b" stroke="none" /><path d="M 117.65298651832404 88.62581576622439 l 7.553424766422514 -4.866827763113807 a29.98555719907343,29.98555719907343 0 0,0 0.2758277220023525,0.436293216037005 l -7.636080084670821 4.736086899362595" fill="#ff2303" stroke="none" /><line stroke="#e1ed5e" stroke-width="0.3" x1="172.23445277983987" x2="176.4835382374775" y1="55.19839476539836" y2="52.563006222186495" /><path d="M 173.08426987136738 54.67131705675599 a86.0,86.0 0 0,1 12.851231095245387,41.99856678651699" fill="none" id="id51" stroke="none" /><text fill="#e1ed5e" style="font-size:6.75px; font-family:Arial;" text-anchor="middle"><textPath startOffset="22.20632615414155" xlink:href="#id51">March</textPath></text><path d="M 117.84615892207809 88.93136811851018 l 12.486483887597265 -7.744428044680576 a35.69314280929921,35.69314280929921 0 0,0 0.31934179254195183,0.524913941668263 l -12.61794147842544 7.528346329805232" fill="#ff7b0b" stroke="none" /><path d="M 118.21658344932153 89.55222093294921 l 12.8455612660066 -7.367330239112469 a35.80830844799196,35.80830844799196 0 0,0 0.30205562951454257,0.5373232606334998 l -12.970474536813576 7.145123468544176" fill="#ff7d0b" stroke="none" /><path d="M 118.3937258080291 89.86733742301442 l 12.851121427763685 -7.0793747021366205 a35.67204376098909,35.67204376098909 0 0,0 0.29164766657553903,0.54037883256035 l -12.971077193557688 6.857114886243812" fill="#ff7b0b" stroke="none" /><path d="M 119.04729006885535 91.15688171328212 l 21.247528231200594 -9.864626661832316 a44.42580447098881,44.42580447098881 0 0,0 0.3160529645240528,0.6963808129207334 l -21.414183512687995 9.49742384006952" fill="#fff717" stroke="none" /><path d="M 119.196687751892 91.48605970444005 l 21.453293730261834 -9.514769647933546 a44.46858865228434,44.46858865228434 0 0,0 0.3043118718817907,0.7023937569042478 l -21.613896311986306 9.144076746442696" fill="#fff717" stroke="none" /><path d="M 119.7369772167798 92.82701384747503 l 22.089319077298857 -8.027894956754766 a44.502874605788286,44.502874605788286 0 0,0 0.2554611632778638,0.7222231093567327 l -22.22423332138653 7.6464742209714185" fill="#fff817" stroke="none" /><path d="M 120.18372546131832 94.20196356495316 l 14.154688772069072 -4.066117594816142 a35.727135720465526,35.727135720465526 0 0,0 0.16470758988152923,0.5925408348883402 l -14.222583132516963 3.8218654565088506" fill="#ff7b0b" stroke="none" /><path d="M 120.37134235888165 94.90015583598534 l 32.70580895138361 -8.187704372724923 a54.715107030225234,54.715107030225234 0 0,0 0.220859352684845,0.9156046029408286 l -32.841901104329274 7.623514538124688" fill="#85ff25" stroke="none" /><path d="M 120.94382443527127 98.46500227214037 l 14.77366421817647 -1.0827793690282779 a35.81329016773185,35.81329016773185 0 0,0 0.03976879813804208,0.6152057051088171 l -14.79011360731893 0.8283145996664255" fill="#ff7d0b" stroke="none" /><line stroke="#e1ed5e" stroke-width="0.3" x1="184.98032266829074" x2="189.97916517819016" y1="98.17113171792111" y2="98.06355123074" /><path d="M 185.9800911702706 98.14961562048488 a86.0,86.0 0 0,1 -9.607161424134198,41.387399972396054" fill="none" id="id52" stroke="none" /><text fill="#e1ed5e" style="font-size:6.75px; font-family:Arial;" text-anchor="middle"><textPath startOffset="21.466115282336823" xlink:href="#id52">April</textPath></text><path d="M 120.99513854157772 99.54816195383933 l 29.324110571363544 -0.6310865155628834 a50.33090061678435,50.33090061678435 0 0,0 0.011185426425595167,0.866323603434754 l -29.330629004906854 0.12622665406766667" fill="#bbff1f" stroke="none" /><path d="M 120.92983693683757 101.71520430193887 l 8.76014525248397 0.7178956466796139 a29.789511875191874,29.789511875191874 0 0,0 -0.04628070722080921,0.5107037476724975 l -8.746489948986085 -0.8685807829006819" fill="#ff2003" stroke="none" /><path d="M 120.89721153311464 102.0752229133903 l 14.583607016027976 1.4482427663414683 a35.655340347743575,35.655340347743575 0 0,0 -0.06590753578552809,0.6102219269251734 l -14.556517178741395 -1.6990610151514332" fill="#ff7a0b" stroke="none" /><path d="M 120.76222939487914 103.15116336523771 l 27.310000658928008 4.1449437796047635 a48.62275683067735,48.62275683067735 0 0,0 -0.13271291045962408,0.8264034201164449 l -27.234605994107095 -4.614426429414413" fill="#d0ff1d" stroke="none" /><path d="M 119.54520255179757 107.68017299344265 l 13.668441096862146 5.370933961742322 a35.685816750858194,35.685816750858194 0 0,0 -0.22957431195860453,0.569784615028965 l -13.573964170646148 -5.605417944614101" fill="#ff7b0b" stroke="none" /><path d="M 119.41010516605496 108.01547362559984 l 13.57098475119335 5.604187582499152 a35.68259328514415,35.68259328514415 0 0,0 -0.23932658346316474,0.5656973473770469 l -13.472507186537877 -5.836959455542361" fill="#ff7b0b" stroke="none" /><line stroke="#e1ed5e" stroke-width="0.3" x1="174.80103733775053" x2="179.2010983576182" y1="140.37084112569926" y2="142.7455964860345" /><path d="M 175.68104954172406 140.8457921977663 a86.0,86.0 0 0,1 -30.038265399797805,32.042727171017184" fill="none" id="id53" stroke="none" /><text fill="#e1ed5e" style="font-size:6.75px; font-family:Arial;" text-anchor="middle"><textPath startOffset="22.206326154141568" xlink:href="#id53">May</textPath></text><path d="M 116.71984013943494 112.70617746262583 l 11.978640180273077 9.103121000093115 a36.045086656805566,36.045086656805566 0 0,0 -0.37966321148901694,0.490765879965499 l -11.820170151565991 -9.307964874171866" fill="#ff800b" stroke="none" /><path d="M 116.0416608686014 113.55231037782055 l 15.790051552418374 13.339745882485923 a41.67062041249198,41.67062041249198 0 0,0 -0.46761875385888285,0.5439462546291022 l -15.558090288988712 -13.609569236276553" fill="#ffd113" stroke="none" /><path d="M 115.07121518719521 114.62390073753431 l 14.780987772968288 14.34228728803811 a41.59560157405599,41.59560157405599 0 0,0 -0.5030282369612495,0.5095649482627967 l -14.531918910951502 -14.59459273028157" fill="#ffd013" stroke="none" /><path d="M 114.0293411484842 115.62618273729858 l 9.813804281660635 10.93082685995423 a35.68991934358516,35.68991934358516 0 0,0 -0.4606678839155169,0.40648584661900544 l -9.62419404483853 -11.098135848345525" fill="#ff7b0b" stroke="none" /><path d="M 112.92097659922987 116.55440617244103 l 12.645471418748965 16.20142784876196 a41.552231308085176,41.552231308085176 0 0,0 -0.5676257823468025,0.4352312450984627 l -12.364716907908669 -16.416698435687792" fill="#ffcf13" stroke="none" /><line stroke="#e1ed5e" stroke-width="0.3" x1="143.8653032363475" x2="146.44561519142675" y1="172.8068346515853" y2="177.08958963109032" /><path d="M 144.38136562736335 173.6633856474863 a86.0,86.0 0 0,1 -40.68145358897372,12.25698825130547" fill="none" id="id54" stroke="none" /><text fill="#e1ed5e" style="font-size:6.75px; font-family:Arial;" text-anchor="middle"><textPath startOffset="21.466115282336833" xlink:href="#id54">June</textPath></text><path d="M 110.8373102113329 117.98757091392108 l 7.670895637292434 12.732013438610874 a35.86427953448131,35.86427953448131 0 0,0 -0.5315293368357068,0.3140369011645945 l -7.450598429428345 -12.862168912069219" fill="#ff7d0b" stroke="none" /><path d="M 107.93186726928326 119.44442032107085 l 6.652023262212257 16.306971852251355 a38.61155144986185,38.61155144986185 0 0,0 -0.6175622073016056,0.24574074731673626 l -6.370339978868785 -16.41905944397416" fill="#ffa60f" stroke="none" /><path d="M 105.53697534728816 120.25689768951611 l 7.731691999624406 28.286218373710046 a50.323867600680984,50.323867600680984 0 0,0 -0.837555841958421,0.22120611028780707 l -7.2436457148544875 -28.41511583330144" fill="#bbff1f" stroke="none" /><path d="M 104.83641907484287 120.43548508189849 l 3.37635529954842 14.266228233613603 a35.66032206748346,35.66032206748346 0 0,0 -0.5985497616642379,0.13622797704406217 l -3.13028538849132 -14.322232944235349" fill="#ff7a0b" stroke="none" /><path d="M 104.48393922423573 120.51570834832081 l 2.5185945362107733 11.523517239772948 a32.795540174709046,32.795540174709046 0 0,0 -0.5525401019451395,0.11579015060938669 l -2.319862972836256 -11.565163371108877" fill="#ff4f07" stroke="none" /><line stroke="#e1ed5e" stroke-width="0.3" x1="102.19456741930631" x2="102.32365962044197" y1="184.97166512339345" y2="189.96999836594603" /><path d="M 102.22038585953345 185.97133177190398 a86.0,86.0 0 0,1 -42.740103519485714,-10.115201625700543" fill="none" id="id55" stroke="none" /><text fill="#e1ed5e" style="font-size:6.75px; font-family:Arial;" text-anchor="middle"><textPath startOffset="22.20632615414155" xlink:href="#id55">July</textPath></text><path d="M 100.18074693466247 120.99922214144158 l 0.05821775481955519 6.7637526927626155 a27.764003237420113,27.764003237420113 0 0,0 -0.4779293789640166,0.0 l 0.05821775481955053 -6.7637526927626155" fill="#ff0000" stroke="none" /><path d="M 99.81925306533755 120.99922214144158 l -0.2048340830259656 23.797672804983865 a44.798554324467645,44.798554324467645 0 0,0 -0.7710477793997975,-0.01327428676880001 l 0.614441552318431 -23.790621040935903" fill="#fffc17" stroke="none" /><path d="M 99.09653310690486 120.98055641714683 l -0.5165855815435411 11.996292305442092 a33.007409784823196,33.007409784823196 0 0,0 -0.5674318458612633,-0.02932974499352328 l 0.7230054958182932 -11.985622753686368" fill="#ff5207" stroke="none" /><path d="M 96.22490169976321 120.6578951692458 l -2.108222404837663 11.536504209667848 a32.72755435237644,32.72755435237644 0 0,0 -0.5533019852837481,-0.10604164234945136 l 2.3064920046931063 -11.49850536896993" fill="#ff4e07" stroke="none" /><line stroke="#e1ed5e" stroke-width="0.3" x1="58.666819895761336" x2="56.23545636021788" y1="174.27360380694188" y2="178.64263932499728" /><path d="M 58.180547188652646 175.14741091055294 a86.0,86.0 0 0,1 -31.652253787137756,-30.449443065178592" fill="none" id="id56" stroke="none" /><text fill="#e1ed5e" style="font-size:6.75px; font-family:Arial;" text-anchor="middle"><textPath startOffset="22.20632615414155" xlink:href="#id56">August</textPath></text><path d="M 89.4739219176387 118.17145234162733 l -5.881572082469238 10.153516433583228 a32.734001283804524,32.734001283804524 0 0,0 -0.48513680520562646,-0.28662737574305774 l 6.0554767587032465 -10.05077048554642" fill="#ff4e07" stroke="none" /><path d="M 88.8546689885994 117.79835938074946 l -7.797159232585714 12.451549624549875 a35.691384555273366,35.691384555273366 0 0,0 -0.5178959230539604,-0.3305456814905521 l 8.010336957686599 -12.31548951423552" fill="#ff7b0b" stroke="none" /><line stroke="#e1ed5e" stroke-width="0.3" x1="26.63291911575756" x2="22.317208475507996" y1="142.92168965132927" y2="145.44649492493687" /><path d="M 25.769776987707644 143.4266507060508 a86.0,86.0 0 0,1 -11.730757126820373,-40.83630448921669" fill="none" id="id57" stroke="none" /><text fill="#e1ed5e" style="font-size:6.75px; font-family:Arial;" text-anchor="middle"><textPath startOffset="21.46611528233685" xlink:href="#id57">September</textPath></text><path d="M 81.87401531095188 110.60418214915194 l -12.817591947161873 7.498631497980443 a35.849920459936925,35.849920459936925 0 0,0 -0.3070255539436051,-0.5353249325616408 l 12.944769497257854 -7.276886719560496" fill="#ff7d0b" stroke="none" /><path d="M 80.0844068197444 106.66101706037122 l -22.85143541681362 7.642945896096738 a45.0956992548352,45.0956992548352 0 0,0 -0.2398828120288497,-0.7382833814324997 l 22.97961047985872 -7.248463614686435" fill="#feff18" stroke="none" /><path d="M 79.50377843672027 104.57218783832718 l -8.601251305747976 1.9187212869025871 a29.81266221986548,29.81266221986548 0 0,0 -0.10741922595474616,-0.5018268619588705 l 8.633004570427163 -1.7703806055275528" fill="#ff2103" stroke="none" /><path d="M 79.18660465613746 102.79330883721812 l -30.205301308453027 4.053770837568692 a51.476110072283774,51.476110072283774 0 0,0 -0.11030225062361379,-0.8792174648226329 l 30.270605068323487 -3.533235618458651" fill="#acff20" stroke="none" /><path d="M 79.1416061653843 102.43462659150553 l -14.57252582573567 1.7009295711857886 a35.67145767631381,35.67145767631381 0 0,0 -0.06593732805224466,-0.6104977663142146 l 14.599645455288966 -1.4498354829867919" fill="#ff7b0b" stroke="none" /><path d="M 79.07016306316243 101.71520430193888 l -21.896566308902713 1.7944279663554148 a42.96997013759035,42.96997013759035 0 0,0 -0.05406735643456575,-0.7377061218349195 l 21.924210224001612 -1.4172487080237346" fill="#ffe315" stroke="none" /><path d="M 79.0235259727143 100.99374915477108 l -14.656777755215455 0.6943569489785028 a35.67321593033965,35.67321593033965 0 0,0 -0.023778520826824735,-0.6136179650581636 l 14.66655840889348 -0.4419617369063424" fill="#ff7b0b" stroke="none" /><line stroke="#e1ed5e" stroke-width="0.3" x1="15.007084014347285" x2="10.007500721073583" y1="101.09737516637583" y2="101.16192664675087" /><path d="M 14.007167355692545 101.11028546245083 a86.0,86.0 0 0,1 10.666146001902534,-42.60595125391555" fill="none" id="id58" stroke="none" /><text fill="#e1ed5e" style="font-size:6.75px; font-family:Arial;" text-anchor="middle"><textPath startOffset="22.20632615414155" xlink:href="#id58">October</textPath></text><path d="M 79.03285615573316 98.82574320788736 l -44.474208088635315 -2.490760845149209 a65.54390053305798,65.54390053305798 0 0,0 0.07278309636649714,-1.1259222862287073 l 44.424744401264405 3.255942195630928" fill="#34ff59" stroke="none" /><path d="M 79.12142395522702 97.74499172005258 l -14.574097980626824 -1.5740877897324945 a35.658856855795264,35.658856855795264 0 0,0 0.07116429062485395,-0.6096921827738438 l 14.544843336998383 1.8247237108312002" fill="#ff7a0b" stroke="none" /><path d="M 79.91906864156998 93.8553929516997 l -11.211213512313732 -3.4305431525138417 a32.724330886662386,32.724330886662386 0 0,0 0.16945673958472982,-0.5372241727135144 l 11.150501288960799 3.6230174916537705" fill="#ff4e07" stroke="none" /><path d="M 80.2630227832202 92.82701384747504 l -13.808888444292734 -5.018547901472138 a35.69255672462393,35.69255672462393 0 0,0 0.2148273997446591,-0.5756306258522818 l 13.720456456046447 5.255501664353761" fill="#ff7b0b" stroke="none" /><path d="M 80.52162464483688 92.15188598940014 l -19.582206386751306 -7.889949007558479 a42.1119421729787,42.1119421729787 0 0,0 0.27669213061778597,-0.6700319413138964 l 19.44349256924732 8.225855519325687" fill="#ffd714" stroke="none" /><path d="M 80.95270993114464 91.15688171328213 l -8.226041421408897 -3.8191184708162123 a30.069367307638636,30.069367307638636 0 0,0 0.2220004294005754,-0.4675895214857156 l 8.15908279816657 3.96015040794246" fill="#ff2503" stroke="none" /><path d="M 81.26839172434947 90.50648371742162 l -56.19482482695157 -28.480548847735136 a84.0,84.0 0 0,0 0.6647622673595439,-1.284109110958658 l 55.69625312643191 29.44363068095413" fill="#4dd2ff" stroke="none" /><line stroke="#e1ed5e" stroke-width="0.3" x1="26.266209847984243" x2="21.928928074336255" y1="57.711370442889674" y2="55.22380399835377" /><path d="M 25.398753493254645 57.213857153982495 a86.0,86.0 0 0,1 29.58750427330803,-30.492523968695096" fill="none" id="id59" stroke="none" /><text fill="#e1ed5e" style="font-size:6.75px; font-family:Arial;" text-anchor="middle"><textPath startOffset="21.46611528233685" xlink:href="#id59">November</textPath></text><line stroke="#e1ed5e" stroke-width="0.3" x1="56.762969772571076" x2="54.21961505331055" y1="26.818313649435495" y2="22.513508569990535" /><path d="M 56.25429882871897 25.957352633546506 a86.0,86.0 0 0,1 42.265352541879196,-11.944610805530505" fill="none" id="id60" stroke="none" /><text fill="#e1ed5e" style="font-size:6.75px; font-family:Arial;" text-anchor="middle"><textPath startOffset="22.20632615414155" xlink:href="#id60">December</textPath></text></svg>