<?xml version="1.0" encoding="utf-8" ?>
<svg baseProfile="full" height="200mm" version="1.1" viewBox="0,0,200,200" width="200mm" xmlns="http://www.w3.org/2000/svg" xmlns:ev="http://www.w3.org/2001/xml-events" xmlns:xlink="http://www.w3.org/1999/xlink"><defs /><rect fill="#1a1a1a" height="200" width="200" x="0" y="0" /><text alignment-baseline="middle" fill="#e1ed5e" style="dominant-baseline: central; font-size:9.0px; font-family:Arial;" text-anchor="middle" x="100.0" y="100.0">2021</text><line stroke="#e1ed5e" stroke-width="0.3" x1="100.0" x2="100.0" y1="15.0" y2="10.0" /><path d="M 100.0 14.0 a86.0,86.0 0 0,1 42.46469731375804,11.215312516191453" fill="none" id="id1" stroke="none" /><text fill="#e1ed5e" style="font-size:6.75px; font-family:Arial;" text-anchor="middle"><textPath startOffset="22.20632615414155" xlink:href="#id1">January</textPath></text><line stroke="#e1ed5e" stroke-width="0.3" x1="143.23703022742887" x2="145.7803849466894" y1="26.81831364943548" y2="22.513508569990506" /><path d="M 143.74570117128098 25.957352633546492 a86.0,86.0 0 0,1 28.547481713284135,27.462654790039103" fill="none" id="id2" stroke="none" /><text fill="#e1ed5e" style="font-size:6.75px; font-family:Arial;" text-anchor="middle"><textPath startOffset="19.985693538727396" xlink:href="#id2">February</textPath></text><line stroke="#e1ed5e" stroke-width="0.3" x1="172.23445277983987" x2="176.4835382374775" y1="55.19839476539836" y2="52.563006222186495" /><path d="M 173.08426987136738 54.67131705675599 a86.0,86.0 0 0,1 12.851231095245387,41.99856678651699" fill="none" id="id3" stroke="none" /><text fill="#e1ed5e" style="font-size:6.75px; font-family:Arial;" text-anchor="middle"><textPath startOffset="22.20632615414155" xlink:href="#id3">March</textPath></text><line stroke="#e1ed5e" stroke-width="0.3" x1="184.98032266829074" x2="189.97916517819016" y1="98.17113171792111" y2="98.06355123074" /><path d="M 185.9800911702706 98.14961562048488 a86.0,86.0 0 0,1 -9.607161424134198,41.387399972396054" fill="none" id="id4" stroke="none" /><text fill="#e1ed5e" style="font-size:6.75px; font-family:Arial;" text-anchor="middle"><textPath startOffset="21.466115282336823" xlink:href="#id4">April</textPath></text><line stroke="#e1ed5e" stroke-width="0.3" x1="174.80103733775053" x2="179.2010983576182" y1="140.37084112569926" y2="142.7455964860345" /><path d="M 175.68104954172406 140.8457921977663 a86.0,86.0 0 0,1 -30.038265399797805,32.042727171017184" fill="none" id="id5" stroke="none" /><text fill="#e1ed5e" style="font-size:6.75px; font-family:Arial;" text-anchor="middle"><textPath startOffset="22.206326154141568" xlink:href="#id5">May</textPath></text><line stroke="#e1ed5e" stroke-width="0.3" x1="143.8653032363475" x2="146.44561519142675" y1="172.8068346515853" y2="177.08958963109032" /><path d="M 144.38136562736335 173.6633856474863 a86.0,86.0 0 0,1 -40.68145358897372,12.25698825130547" fill="none" id="id6" stroke="none" /><text fill="#e1ed5e" style="font-size:6.75px; font-family:Arial;" text-anchor="middle"><textPath startOffset="21.466115282336833" xlink:href="#id6">June</textPath></text><line stroke="#e1ed5e" stroke-width="0.3" x1="102.19456741930631" x2="102.32365962044197" y1="184.97166512339345" y2="189.96999836594603" /><path d="M 102.22038585953345 185.97133177190398 a86.0,86.0 0 0,1 -42.740103519485714,-10.115201625700543" fill="none" id="id7" stroke="none" /><text fill="#e1ed5e" style="font-size:6.75px; font-family:Arial;" text-anchor="middle"><textPath startOffset="22.20632615414155" xlink:href="#id7">July</textPath></text><line stroke="#e1ed5e" stroke-width="0.3" x1="58.666819895761336" x2="56.23545636021788" y1="174.27360380694188" y2="178.64263932499728" /><path d="M 58.180547188652646 175.14741091055294 a86.0,86.0 0 0,1 -31.652253787137756,-30.449443065178592" fill="none" id="id8" stroke="none" /><text fill="#e1ed5e" style="font-size:6.75px; font-family:Arial;" text-anchor="middle"><textPath startOffset="22.20632615414155" xlink:href="#id8">August</textPath></text><line stroke="#e1ed5e" stroke-width="0.3" x1="26.63291911575756" x2="22.317208475507996" y1="142.92168965132927" y2="145.44649492493687" /><path d="M 25.769776987707644 143.4266507060508 a86.0,86.0 0 0,1 -11.730757126820373,-40.83630448921669" fill="none" id="id9" stroke="none" /><text fill="#e1ed5e" style="font-size:6.75px; font-family:Arial;" text-anchor="middle"><textPath startOffset="21.46611528233685" xlink:href="#id9">September</textPath></text><path d="M 79.58551787078972 104.9243191809786 l -35.992070937410844 8.681897691964178 a58.024377346517895,58.024377346517895 0 0,0 -0.22585141745410894,-0.972961995311539 l 36.13618292079551 -8.061067039304065" fill="#5dff2a" stroke="none" /><path d="M 79.35854240842038 103.8639653848113 l -21.83774745041159 4.087904153874443 a43.21706943049019,43.21706943049019 0 0,0 -0.13058460985899498,-0.7323878408843948 l 21.904878502609773 -3.7113975622568347" fill="#ffea16" stroke="none" /><path d="M 79.23777060512086 103.15116336523772 l -18.32710566806184 2.781575276606911 a39.536989053989736,39.536989053989736 0 0,0 -0.09633083642351058,-0.6737376455824555 l 18.37227055550195 -2.465692159044055" fill="#ffb711" stroke="none" /><path d="M 79.1416061653843 102.43462659150553 l -18.436992149621446 2.151996539654662 a39.562159589656815,39.562159589656815 0 0,0 -0.0731291420437413,-0.677085031938281 l 18.47130359316624 -1.834315185831599" fill="#ffb711" stroke="none" /><path d="M 79.07016306316243 101.71520430193888 l -36.921703602412016 3.0257409575087713 a58.04547617788589,58.04547617788589 0 0,0 -0.0730362492660518,-0.9965215936650094 l 36.9683164103424 -2.389746227347001" fill="#5dff2a" stroke="none" /><path d="M 79.0235259727143 100.99374915477108 l -18.52139871765679 0.8774412847892347 a39.54217122309767,39.54217122309767 0 0,0 -0.026357431407428068,-0.6801681880119644 l 18.53375828191542 -0.5584958497632734" fill="#ffb711" stroke="none" /><line stroke="#e1ed5e" stroke-width="0.3" x1="15.007084014347285" x2="10.007500721073583" y1="101.09737516637583" y2="101.16192664675087" /><path d="M 14.007167355692545 101.11028546245083 a86.0,86.0 0 0,1 10.666146001902534,-42.60595125391555" fill="none" id="id10" stroke="none" /><text fill="#e1ed5e" style="font-size:6.75px; font-family:Arial;" text-anchor="middle"><textPath startOffset="22.20632615414155" xlink:href="#id10">October</textPath></text><path d="M 79.00175016825051 100.2711162175752 l -18.546547878996968 0.23946138132085223 a39.54809370207815,39.54809370207815 0 0,0 -0.002929765550824371,-0.680774334686389 l 18.5479219418373 0.07982243156921215" fill="#ffb711" stroke="none" /><path d="M 79.01574976396665 99.18683210126434 l -18.508661304903825 -0.7172355005505104 a39.5225530114748,39.5225530114748 0 0,0 0.03219467978221902,-0.679578806206995 l 18.493573016888107 1.0357254133805145" fill="#ffb710" stroke="none" /><path d="M 79.05617556472873 98.46500227214037 l -18.460822246921722 -1.3530155531538375 a39.510337898577546,39.510337898577546 0 0,0 0.055550624805789955,-0.6778583272035982 l 18.434797138296435 1.670587797565214" fill="#ffb610" stroke="none" /><path d="M 79.21141760316559 97.0276538004421 l -18.365024961608654 -2.6258265766950895 a39.55179525144096,39.55179525144096 0 0,0 0.10216437125171732,-0.6731355585405351 l 18.317104696917635 2.9415612476277166" fill="#ffb711" stroke="none" /><path d="M 79.26566170972629 96.67025291283419 l -23.89896267564872 -3.837957124141975 a45.2051715932526,45.2051715932526 0 0,0 0.12999315057978184,-0.7672269332122311 l 23.829357663548713 4.248769845670035" fill="#faff18" stroke="none" /><path d="M 79.32604984820605 96.31383870115002 l -16.891761150234537 -3.0117977340682156 a38.15816191634498,38.15816191634498 0 0,0 0.12086011984742732,-0.6456395929814353 l 16.837415306477247 3.3021154045122234" fill="#ffa30f" stroke="none" /><path d="M 79.3925641242962 95.95851677861259 l -15.177792608645468 -2.976633994424285 a36.46692401247951,36.46692401247951 0 0,0 0.12610731893336444,-0.6149440732218271 l 15.124305993797108 3.2374537238095145" fill="#ff8b0c" stroke="none" /><path d="M 79.46518482838121 95.60439243477599 l -19.14418256115647 -4.097933825679288 a40.57786473481043,40.57786473481043 0 0,0 0.15208122467150748,-0.6817503100709512 l 19.070806949482925 4.426862305300198" fill="#ffc512" stroke="none" /><path d="M 79.71946130924805 94.55025226153421 l -6.18571980161056 -1.6622148461461939 a27.405161017397283,27.405161017397283 0 0,0 0.12634200672586235,-0.4545194195401574 l 6.156191024318336 1.7684455691052938" fill="#ff0000" stroke="none" /><path d="M 79.81627453868168 94.20196356495316 l -35.594481737346825 -10.224975681286674 a58.03400137486119,58.03400137486119 0 0,0 0.28407395754032483,-0.9577561640970395 l 35.41320188269479 10.836161232130253" fill="#5dff2a" stroke="none" /><path d="M 79.91906864156998 93.8553929516997 l -20.8727287858322 -6.386890833170624 a42.82803659245941,42.82803659245941 0 0,0 0.2217768628764125,-0.7030932613111339 l 20.759696439187586 6.745234260908172" fill="#ffe415" stroke="none" /><path d="M 80.02781315780177 93.51064311812611 l -17.637469074101027 -5.730761093874181 a39.545132462587915,39.545132462587915 0 0,0 0.21592151934828882,-0.6455778598416554 l 17.536210260980965 6.033512056638159" fill="#ffb711" stroke="none" /><path d="M 80.14247586403 93.16781622104843 l -35.05176950890034 -12.059918921536793 a58.06842578393527,58.06842578393527 0 0,0 0.3333318966894103,-0.9423741588969199 l 34.838984531401124 12.661490706860324" fill="#5cff2a" stroke="none" /><path d="M 80.52162464483688 92.15188598940014 l -51.551620037328256 -20.770879711835583 a76.57876368251283,76.57876368251283 0 0,0 0.5031527920596891,-1.2184243956939984 l 51.18644555838237 21.655178677982892" fill="#43ffde" stroke="none" /><path d="M 80.65960295795068 91.81776055985345 l -14.091868798180824 -5.961772367710812 a36.30109460102585,36.30109460102585 0 0,0 0.24841926366891046,-0.573385911028717 l 13.987158824669233 6.203457423326128" fill="#ff880c" stroke="none" /><path d="M 80.803312248108 91.48605970444005 l -19.762102329534844 -8.76470782475601 a42.61852889852466,42.61852889852466 0 0,0 0.30319568913666783,-0.6680515109010712 l 19.608304323434826 9.103581344499151" fill="#ffe215" stroke="none" /><path d="M 81.10775173730289 90.83032412892265 l -16.65813242897714 -8.085309533688907 a39.51663053249431,39.51663053249431 0 0,0 0.30228338175545993,-0.6093848520370219 l 16.516489034268268 8.37085397422489" fill="#ffb710" stroke="none" /><path d="M 81.6062741919709 89.86733742301443 l -6.505710998253433 -3.583840221207981 a28.427528951403943,28.427528951403943 0 0,0 0.23979616812759094,-0.4265706259235097 l 6.443057188833412 3.6952943570662757" fill="#ff1001" stroke="none" /><line stroke="#e1ed5e" stroke-width="0.3" x1="26.266209847984243" x2="21.928928074336255" y1="57.711370442889674" y2="55.22380399835377" /><path d="M 25.398753493254645 57.213857153982495 a86.0,86.0 0 0,1 29.58750427330803,-30.492523968695096" fill="none" id="id11" stroke="none" /><text fill="#e1ed5e" style="font-size:6.75px; font-family:Arial;" text-anchor="middle"><textPath startOffset="21.46611528233685" xlink:href="#id11">November</textPath></text><path d="M 81.78341655067845 89.55222093294921 l -21.879615264840904 -12.548642120245846 a46.22272751308762,46.22272751308762 0 0,0 0.40178627271945144,-0.6867829810114062 l 21.660369317651128 12.923404513611143" fill="#ecff1a" stroke="none" /><path d="M 81.96595687620814 89.24020034530311 l -16.37218886875187 -9.768273865566133 a40.06482999312569,40.06482999312569 0 0,0 0.35845469524080253,-0.5892052696598571 l 16.20161837522485 10.048646908433065" fill="#ffbe11" stroke="none" /><path d="M 82.34701348167596 88.62581576622439 l -28.18043073728757 -18.157234225514628 a54.5234519591772,54.5234519591772 0 0,0 0.5151255390762643,-0.784571536744992 l 27.863708562853382 18.639623826237287" fill="#85ff25" stroke="none" /><path d="M 82.54541684631803 88.32363383020206 l -15.40401652192813 -10.304625198551868 a39.532917349690656,39.532917349690656 0 0,0 0.38323498919699045,-0.5623500579327081 l 15.2243570670624 10.568253279754991" fill="#ffb711" stroke="none" /><path d="M 82.95767976084542 87.72973835380427 l -22.547963257208018 -16.234257124162273 a48.78419967214849,48.78419967214849 0 0,0 0.49652416135896577,-0.6772583980885595 l 22.265176483335416 16.61997796592233" fill="#cbff1d" stroke="none" /><path d="M 83.17141714833178 87.43820079747576 l -18.24201414012818 -13.616863683514628 a43.76378827137645,43.76378827137645 0 0,0 0.4558187353279994,-0.599804025220072 l 18.004919464576073 13.928852484615726" fill="#fff116" stroke="none" /><path d="M 83.6137871275137 86.86637796730984 l -28.908164344711828 -23.17002147578764 a58.04769710750357,58.04769710750357 0 0,0 0.6316183962170188,-0.7742894703622327 l 28.505047456418417 23.664195115757956" fill="#5dff2a" stroke="none" /><path d="M 83.84228863543731 86.58626213691792 l -14.263773434709838 -11.841436789817916 a39.538469673734866,39.538469673734866 0 0,0 0.43923358732588336,-0.5199140259886902 l 14.05782923389683 12.085209765435721" fill="#ffb711" stroke="none" /><path d="M 84.07557802195018 86.31012108654704 l -18.31815174077713 -15.747716281015526 a45.156681296599864,45.156681296599864 0 0,0 0.5117932172577611,-0.5850681197288731 l 18.044366659941527 16.060699956947342" fill="#faff18" stroke="none" /><path d="M 84.5562425177563 85.77008943001954 l -46.331272446731106 -42.68973170994139 a84.0,84.0 0 0,0 0.9889307121181763,-1.0549223324877994 l 45.58957441264248 43.480923459307235" fill="#4dd2ff" stroke="none" /><path d="M 85.05521093208273 85.24692304244772 l -13.866071016111075 -13.688196726625375 a40.48421553593147,40.48421553593147 0 0,0 0.4938384132674244,-0.4917177141795232 l 13.628396802676336 13.924850291455007" fill="#ffc412" stroke="none" /><path d="M 85.57189188830299 84.74124197986013 l -11.474228082131138 -12.134818260142602 a37.70065041510232,37.70065041510232 0 0,0 0.47537309551072754,-0.44180748424569605 l 11.263647102825553 12.330530330462945" fill="#ff9d0e" stroke="none" /><path d="M 85.83668400450813 84.49514656593479 l -16.48729513641574 -18.048957934403873 a45.44577230183491,45.44577230183491 0 0,0 0.5821149242575681,-0.5226285265780374 l 16.1741692245622 18.33008546975119" fill="#f6ff19" stroke="none" /><path d="M 86.65592168130627 83.78471172551755 l -11.786293066640983 -14.322318499538461 a39.54846385701444,39.54846385701444 0 0,0 0.529378037247688,-0.42805355701281617 l 11.538011630828795 14.523078153815412" fill="#ffb711" stroke="none" /><path d="M 86.93701828274178 83.55741782278169 l -11.722905331478474 -14.755806785974935 a39.845698270847656,39.845698270847656 0 0,0 0.5407012773396166,-0.4220259234251154 l 11.46717149897943 14.955411098623273" fill="#ffbb11" stroke="none" /><path d="M 87.22198572758235 83.33499621200491 l -14.189985637827313 -18.506487734674113 a44.32050129554227,44.32050129554227 0 0,0 0.6094150103068615,-0.45899875126498735 l 13.869324473762061 18.748003075444956" fill="#fff917" stroke="none" /><path d="M 88.70189139769569 82.29822771554957 l -9.992313066984314 -15.655863891290508 a39.57289408280894,39.57289408280894 0 0,0 0.5773512777225944,-0.3615373171435822 l 9.721342636889478 15.82554554975702" fill="#ffb711" stroke="none" /><line stroke="#e1ed5e" stroke-width="0.3" x1="56.762969772571076" x2="54.21961505331055" y1="26.818313649435495" y2="22.513508569990535" /><path d="M 56.25429882871897 25.957352633546506 a86.0,86.0 0 0,1 42.265352541879196,-11.944610805530505" fill="none" id="id12" stroke="none" /><text fill="#e1ed5e" style="font-size:6.75px; font-family:Arial;" text-anchor="middle"><textPath startOffset="22.20632615414155" xlink:href="#id12">December</textPath></text><path d="M 89.63071344664047 81.73862282372117 l -9.558137949834071 -16.832861287672102 a40.35725239278727,40.35725239278727 0 0,0 0.6070420886724308,-0.3378182651156857 l 9.266971772089594 16.994894950347973" fill="#ffc212" stroke="none" /><path d="M 89.94658935756843 81.56283822128135 l -8.879068507741108 -16.283510973938917 a39.546983237269316,39.546983237269316 0 0,0 0.6004643571459714,-0.32074726418979416 l 8.597459104066832 16.43393696463046" fill="#ffb711" stroke="none" /><path d="M 90.91171255644093 81.06846463323043 l -8.034050585538827 -16.735486607692646 a39.564010364338216,39.564010364338216 0 0,0 0.6164860114085514,-0.28944844853123913 l 7.744786362830667 16.871300038863893" fill="#ffb711" stroke="none" /><path d="M 91.56875222667455 80.76684994638697 l -14.94152699716462 -34.08423503763688 a58.21537729363862,58.21537729363862 0 0,0 0.9212340676686381,-0.3944243505315906 l 14.352609171705675 34.33637891613126" fill="#5bff2a" stroke="none" /><path d="M 92.57280143429618 80.3572730644239 l -13.107729702157977 -34.666039019576296 a58.06139284014594,58.06139284014594 0 0,0 0.937878601982833,-0.34542860419339166 l 12.509068774402575 34.88653089157601" fill="#5cff2a" stroke="none" /></svg>