<?xml version="1.0" encoding="utf-8" ?>
<svg baseProfile="full" height="200mm" version="1.1" viewBox="0,0,200,200" width="200mm" xmlns="http://www.w3.org/2000/svg" xmlns:ev="http://www.w3.org/2001/xml-events" xmlns:xlink="http://www.w3.org/1999/xlink"><defs /><rect fill="#1a1a1a" height="200" width="200" x="0" y="0" /><text alignment-baseline="middle" fill="#e1ed5e" style="dominant-baseline: central; font-size:9.0px; font-family:Arial;" text-anchor="middle" x="100.0" y="100.0">2022</text><line stroke="#e1ed5e" stroke-width="0.3" x1="100.0" x2="100.0" y1="15.0" y2="10.0" /><path d="M 100.0 14.0 a86.0,86.0 0 0,1 42.46469731375804,11.215312516191453" fill="none" id="id13" stroke="none" /><text fill="#e1ed5e" style="font-size:6.75px; font-family:Arial;" text-anchor="middle"><textPath startOffset="22.20632615414155" xlink:href="#id13">January</textPath></text><path d="M 101.44485096284872 79.0497635885617 l 1.0076263764679316 -14.610510941407329 a35.64521563117243,35.64521563117243 0 0,0 0.61175644836997,0.04748407435798546 l -1.2589730142002429 14.59100160486088" fill="#ff780b" stroke="none" /><path d="M 102.52436894288641 79.15227682838746 l 3.3842902039459943 -27.94945861740509 a49.15360824460276,49.15360824460276 0 0,0 0.839087837923114,0.1089376833446156 l -3.8648927703769544 27.887062610896336" fill="#cbff1d" stroke="none" /><path d="M 103.2404852339499 79.25152402106235 l 2.181490460107673 -13.967847140798115 a35.137172785824006,35.137172785824006 0 0,0 0.5967811100740648,0.09847399658008867 l -2.421600776320613 13.928226881278404" fill="#ff700a" stroke="none" /><path d="M 103.95276090670814 79.375362276772 l 7.807682247856237 -40.73877009531047 a62.480203603189466,62.480203603189466 0 0,0 1.0545277571573093,0.21152834760368214 l -8.507776414480672 40.59833779162958" fill="#2fff30" stroke="none" /><path d="M 104.66035177308747 79.52364482259891 l 4.604313489734067 -20.230137756625567 a41.747486025149996,41.747486025149996 0 0,0 0.6993227005957543,0.16550708902074743 l -4.951859877292344 20.147884755463952" fill="#ffd013" stroke="none" /><path d="M 105.71112130821622 79.79150937346287 l 3.6209204774323216 -12.81242921987276 a34.31425580414234,34.31425580414234 0 0,0 0.5670182112180029,0.16552816451765223 l -3.8409289063737515 12.748202726436405" fill="#ff6409" stroke="none" /><path d="M 106.40334571778207 80.00007090966166 l 6.324595166593015 -19.753963073661723 a41.74173476681453,41.74173476681453 0 0,0 0.682412122611825,0.22498054767688075 l -6.6636901114472575 19.642168801725607" fill="#ffd013" stroke="none" /><path d="M 107.4271985657038 80.35727306442388 l 3.248457947428175 -8.591203245552006 a30.184838171823856,30.184838171823856 0 0,0 0.4844189821745387,0.18794703918329037 l -3.395860094602381 8.53401350247817" fill="#ff2403" stroke="none" /><path d="M 109.73455568895987 81.39251694778311 l 14.885762008081777 -28.453950353260726 a53.11250848605691,53.11250848605691 0 0,0 0.8064374486707788,0.4307709563824574 l -15.373344503280867 28.193500670376515" fill="#9aff23" stroke="none" /><line stroke="#e1ed5e" stroke-width="0.3" x1="143.23703022742887" x2="145.7803849466894" y1="26.81831364943548" y2="22.513508569990506" /><path d="M 143.74570117128098 25.957352633546492 a86.0,86.0 0 0,1 28.547481713284135,27.462654790039103" fill="none" id="id14" stroke="none" /><text fill="#e1ed5e" style="font-size:6.75px; font-family:Arial;" text-anchor="middle"><textPath startOffset="19.985693538727396" xlink:href="#id14">February</textPath></text><path d="M 112.77801427241765 83.33499621200491 l 14.901972608464002 -19.435056549022356 a45.49061474702316,45.49061474702316 0 0,0 0.6173021070802823,0.4818140860599356 l -15.234307270703715 19.175664073739195" fill="#fbff18" stroke="none" /><path d="M 113.06298171725822 83.55741782278167 l 19.64251189874887 -24.72434112308899 a52.57722783373107,52.57722783373107 0 0,0 0.703775240807726,0.5690706337791317 l -20.06519053812109 24.38256439204573" fill="#a0ff22" stroke="none" /><path d="M 113.34407831869373 83.78471172551755 l 5.898803481896645 -7.168033388973568 a30.283134448206376,30.283134448206376 0 0,0 0.39965440331305313,0.33469906932933613 l -6.021315422168815 7.065433162250414" fill="#ff2503" stroke="none" /><line stroke="#e1ed5e" stroke-width="0.3" x1="172.23445277983987" x2="176.4835382374775" y1="55.19839476539836" y2="52.563006222186495" /><path d="M 173.08426987136738 54.67131705675599 a86.0,86.0 0 0,1 12.851231095245387,41.99856678651699" fill="none" id="id15" stroke="none" /><text fill="#e1ed5e" style="font-size:6.75px; font-family:Arial;" text-anchor="middle"><textPath startOffset="22.20632615414155" xlink:href="#id15">March</textPath></text><line stroke="#e1ed5e" stroke-width="0.3" x1="184.98032266829074" x2="189.97916517819016" y1="98.17113171792111" y2="98.06355123074" /><path d="M 185.9800911702706 98.14961562048488 a86.0,86.0 0 0,1 -9.607161424134198,41.387399972396054" fill="none" id="id16" stroke="none" /><text fill="#e1ed5e" style="font-size:6.75px; font-family:Arial;" text-anchor="middle"><textPath startOffset="21.466115282336823" xlink:href="#id16">April</textPath></text><path d="M 120.89721153311464 102.0752229133903 l 12.515800466902581 1.242896731326051 a33.57736274471162,33.57736274471162 0 0,0 -0.062066473495906126,0.5746584605646634 l -12.492551691905623 -1.458151513775506" fill="#ff5808" stroke="none" /><path d="M 120.8583938346157 102.4346265915055 l 12.583338548153884 1.4687483073797378 a33.66876594652717,33.66876594652717 0 0,0 -0.07214493586261131,0.5750661228605928 l -12.556192103044426 -1.6851321845277254" fill="#ff5a08" stroke="none" /><path d="M 120.81339534386255 102.79330883721812 l 12.938473121069752 1.7364370739179018 a34.054474344695805,34.054474344695805 0 0,0 -0.08297283318938876,0.5803118020750655 l -12.90666623686376 -1.9588943479733767" fill="#ff6008" stroke="none" /><path d="M 120.13307415673323 105.97154293290107 l 20.163273750937673 5.980500242249075 a42.031499982236014,42.031499982236014 0 0,0 -0.2117051147395014,0.6918645641446515 l -20.05734186369204 -6.326691778945784" fill="#ffd413" stroke="none" /><path d="M 119.9155931802556 106.66101706037122 l 12.09372494864902 4.044896251759765 a33.75222995483833,33.75222995483833 0 0,0 -0.1890272247048348,0.5494015966747967 l -12.022306893000955 -4.252470551523862" fill="#ff5b08" stroke="none" /><path d="M 118.64920377521936 109.65438752849418 l 11.155355074779145 5.7749447219285 a33.56152591788636,33.56152591788636 0 0,0 -0.2700064582843878,0.5107504644835249 l -11.054296108269865 -5.966110201498159" fill="#ff5808" stroke="none" /><line stroke="#e1ed5e" stroke-width="0.3" x1="174.80103733775053" x2="179.2010983576182" y1="140.37084112569926" y2="142.7455964860345" /><path d="M 175.68104954172406 140.8457921977663 a86.0,86.0 0 0,1 -30.038265399797805,32.042727171017184" fill="none" id="id17" stroke="none" /><text fill="#e1ed5e" style="font-size:6.75px; font-family:Arial;" text-anchor="middle"><textPath startOffset="22.206326154141568" xlink:href="#id17">May</textPath></text><path d="M 118.48025628344425 109.97397251340804 l 18.23141949887683 9.839672901349976 a41.71723484805796,41.71723484805796 0 0,0 -0.3464985661882323,0.6289955449436959 l -18.059344523237083 -10.152038964691478" fill="#ffd013" stroke="none" /><path d="M 118.12598468904814 110.60418214915192 l 17.841914907569542 10.437993787110065 a41.67088875372079,41.67088875372079 0 0,0 -0.3675355011352741,0.6160106405052463 l -17.65959853073604 -10.743566521501414" fill="#ffcf13" stroke="none" /><path d="M 117.94076556474637 110.91462005526583 l 17.716011773909102 10.77788663527232 a41.73692150479592,41.73692150479592 0 0,0 -0.3786837799079162,0.6105588287520436 l -17.52786335433322 -11.081241795389639" fill="#ffd013" stroke="none" /><path d="M 117.75023020441432 111.22182372390056 l 17.730224672785376 11.209176082328714 a41.97633179066582,41.97633179066582 0 0,0 -0.39136960085160377,0.6074143117006562 l -17.534650208556723 -11.512711993950823" fill="#ffd313" stroke="none" /><path d="M 117.35343817320211 111.8261652097733 l 5.745583089627839 3.915547695288818 a27.952930230765944,27.952930230765944 0 0,0 -0.27439007999667575,0.39527937521440754 l -5.677332102469027 -4.013868332690246" fill="#ff0000" stroke="none" /><path d="M 117.14729908036423 112.12312394758627 l 10.160481544096411 7.183450673423903 a33.443365653449156,33.443365653449156 0 0,0 -0.3363768874752459,0.46719807634913585 l -10.035324864245563 -7.35728235522417" fill="#ff5608" stroke="none" /><path d="M 116.498646956653 112.99209946851258 l 32.60456759210554 25.674940884389382 a62.50012550926886,62.50012550926886 0 0,0 -0.672864708189009,0.8395021811443205 l -32.15778497186167 -26.232370899111956" fill="#2fff31" stroke="none" /><path d="M 116.27256486870786 113.27417163493432 l 16.103745004590845 13.13645862719669 a41.78213531947415,41.78213531947415 0 0,0 -0.4594124846788497,0.5533919329933747 l -15.875236520018452 -13.411711817303836" fill="#ffd013" stroke="none" /><path d="M 115.80600337817218 113.82643327865902 l 6.247912032486314 5.465413158610417 a29.301032812849204,29.301032812849204 0 0,0 -0.33534494917771257,0.37676360536855813 l -6.152908233660264 -5.572150933719842" fill="#ff1602" stroke="none" /><path d="M 115.32070863581623 114.36230785411682 l 18.18427810656182 17.046744147380178 a45.92507685611067,45.92507685611067 0 0,0 -0.5456193239531978,0.5720796798076171 l -17.888152231229657 -17.3572309437703" fill="#f5ff19" stroke="none" /><path d="M 114.81725581225074 114.88116024355365 l 8.836543187023343 8.874653770670248 a33.52373646502514,33.52373646502514 0 0,0 -0.41242185296574135,0.4036415864205917 l -8.68247138168181 -9.025445460013412" fill="#ff5808" stroke="none" /><path d="M 114.55890576462653 115.13401014063108 l 5.755165995546129 5.982505962036808 a29.30134406118048,29.30134406118048 0 0,0 -0.36649586138370643,0.34654471245656315 l -5.651334299771615 -6.080685311239292" fill="#ff1602" stroke="none" /><path d="M 113.48314897796784 116.09983520530334 l 8.50330612588079 10.153550001608062 a34.24389643215307,34.24389643215307 0 0,0 -0.4551664004397999,0.3745709599911816 l -8.327269596896299 -10.298416080456423" fill="#ff6309" stroke="none" /><path d="M 112.92097659922987 116.55440617244103 l 12.763146724460404 16.352193914488712 a41.74348476334548,41.74348476334548 0 0,0 -0.5702384071987328,0.43723449442688395 l -12.479779588768178 -16.569467750742966" fill="#ffd013" stroke="none" /><path d="M 112.63410532772338 116.77436683061366 l 14.963258520037966 19.86679554156063 a45.871442873859614,45.871442873859614 0 0,0 -0.6348062251299929,0.4696144692777064 l -14.619067324489409 -20.12141995957811" fill="#f6ff19" stroke="none" /><path d="M 112.04921762599082 117.19931262002967 l 4.777756717656981 6.819872788435256 a29.326921646296192,29.326921646296192 0 0,0 -0.41594389083587896,0.28609000089580816 l -4.659655942198219 -6.9011035786961585" fill="#ff1602" stroke="none" /><path d="M 111.7513745106137 117.40417183066458 l 6.980022975741486 10.33764340861325 a33.4734755375366,33.4734755375366 0 0,0 -0.4803050047889837,0.31831996694273346 l -6.801043272212538 -10.456261396647301" fill="#ff5708" stroke="none" /><path d="M 111.45004920935366 117.60387380957326 l 11.289060147353531 17.356361237325377 a41.704737487133144,41.704737487133144 0 0,0 -0.6051520215802398,0.38623665194943807 l -10.988626323726361 -17.54811231809862" fill="#ffcf13" stroke="none" /><line stroke="#e1ed5e" stroke-width="0.3" x1="143.8653032363475" x2="146.44561519142675" y1="172.8068346515853" y2="177.08958963109032" /><path d="M 144.38136562736335 173.6633856474863 a86.0,86.0 0 0,1 -40.68145358897372,12.25698825130547" fill="none" id="id18" stroke="none" /><text fill="#e1ed5e" style="font-size:6.75px; font-family:Arial;" text-anchor="middle"><textPath startOffset="21.466115282336833" xlink:href="#id18">June</textPath></text><path d="M 110.8373102113329 117.98757091392108 l 6.425500735188037 10.66492956995751 a33.451015317236426,33.451015317236426 0 0,0 -0.49576336730693776,0.2929057359408137 l -6.240969496852717 -10.773953878192074" fill="#ff5708" stroke="none" /><path d="M 110.5260780823613 118.17145234162733 l 10.423708613666403 17.994729168279026 a41.79576829795752,41.79576829795752 0 0,0 -0.625645300092324,0.35525772973174513 l -10.11241454665288 -18.1714900638054" fill="#ffd113" stroke="none" /><path d="M 109.89434966115114 118.52300852407294 l 23.451428624357366 43.90293725076631 a70.77386265670017,70.77386265670017 0 0,0 -1.0795005748705424,0.5647436804242885 l -22.69223714696033 -44.30011035013531" fill="#3bff9a" stroke="none" /><path d="M 109.2508944713604 118.85261126421891 l 5.869925482253367 11.962456561303933 a34.3250287860211,34.3250287860211 0 0,0 -0.5326710500900774,0.2557144744096428 l -5.663141764163058 -12.061725312213136" fill="#ff6409" stroke="none" /><path d="M 108.92500713936063 119.00905698771935 l 8.826384790151197 18.799004734862645 a41.767947599250164,41.767947599250164 0 0,0 -0.6534336922601456,0.2999593592178944 l -8.50148310212363 -18.948151164414615" fill="#ffd013" stroke="none" /><path d="M 108.59647513512805 119.15986991738527 l 5.095356182568709 11.356557205851454 a33.44725054769196,33.44725054769196 0 0,0 -0.5273187212325204,0.2311610309195987 l -4.899116786678435 -11.442582790065506" fill="#ff5608" stroke="none" /><path d="M 107.93186726928326 119.44442032107085 l 15.656544606267435 38.380928949579825 a62.451454691491065,62.451454691491065 0 0,0 -0.9988632095903887,0.3974682852832949 l -14.99356032063518 -38.64474407926919" fill="#2fff30" stroke="none" /><path d="M 107.59598834532513 119.57807347666477 l 7.540880219000895 19.436036535941827 a41.84764712632542,41.84764712632542 0 0,0 -0.6738064611679208,0.2547759482867107 l -7.2052035370727 -19.562960734335167" fill="#ffd113" stroke="none" /><path d="M 106.91757812671514 119.82793768551818 l 13.676114456510632 39.200011948758984 a62.51718973401772,62.51718973401772 0 0,0 -1.0191202979838256,0.34574093729676875 l -12.99932442558958 -39.429615872953875" fill="#2fff31" stroke="none" /><path d="M 106.57524785965236 119.94407469862006 l 6.493713429037235 19.6967640558265 a41.739595665522444,41.739595665522444 0 0,0 -0.684288183436861,0.21908746722787567 l -6.1537039005094325 -19.80562436971408" fill="#ffd013" stroke="none" /><path d="M 105.88484417918355 120.15858648285463 l 5.841369132464996 20.009662320644484 a41.84485978671803,41.84485978671803 0 0,0 -0.6931677378491504,0.1958961265815586 l -5.4960702265112396 -20.10724724056456" fill="#ffd113" stroke="none" /><path d="M 105.18746579009965 120.34920634021253 l 3.080050221896484 12.082311486893657 a33.46871927006647,33.46871927006647 0 0,0 -0.5594801887432584,0.1375066183077292 l -2.8716167484100144 -12.133539363515416" fill="#ff5708" stroke="none" /><path d="M 104.83641907484287 120.43548508189849 l 14.312939836619115 60.47694874721824 a83.14757900787721,83.14757900787721 0 0,0 -1.3956117250972266,0.3176366849104509 l -13.269807962129027 -60.714362165706376" fill="#4cdbff" stroke="none" /><path d="M 103.7750983002368 120.6578951692458 l 3.725614599676494 20.387113055122516 a41.72473360185046,41.72473360185046 0 0,0 -0.7076336565406552,0.12303118168851992 l -3.374131971663789 -20.44822281533204" fill="#ffd013" stroke="none" /><path d="M 103.41894727170886 120.7198165907248 l 3.371733275828148 20.433686019698285 a41.71000023261564,41.71000023261564 0 0,0 -0.7093960100938436,0.11079306731085298 l -3.0195014021257873 -20.488697394356244" fill="#ffcf13" stroke="none" /><path d="M 102.34483914955558 120.86867818915974 l 1.6325174807204779 14.529133885277531 a35.62056239620001,35.62056239620001 0 0,0 -0.6099044346785595,0.06321908840321133 l -1.382180449436316 -14.555082342136501" fill="#ff770b" stroke="none" /><line stroke="#e1ed5e" stroke-width="0.3" x1="102.19456741930631" x2="102.32365962044197" y1="184.97166512339345" y2="189.96999836594603" /><path d="M 102.22038585953345 185.97133177190398 a86.0,86.0 0 0,1 -42.740103519485714,-10.115201625700543" fill="none" id="id19" stroke="none" /><text fill="#e1ed5e" style="font-size:6.75px; font-family:Arial;" text-anchor="middle"><textPath startOffset="22.20632615414155" xlink:href="#id19">July</textPath></text><path d="M 97.2962882734958 120.8252237178851 l -2.6741837981190884 20.597786114786558 a41.770653620351396,41.770653620351396 0 0,0 -0.7122322280421962,-0.09870889693180161 l 3.028344617348116 -20.548702652362152" fill="#ffd013" stroke="none" /><path d="M 96.93821686468263 120.77559828337769 l -2.4591528564610146 16.686476345738686 a37.86671057463005,37.86671057463005 0 0,0 -0.6440300466844749,-0.10058424814524349 l 2.746018766754007 -16.641673790246337" fill="#ff990e" stroke="none" /><path d="M 96.58105272829116 120.7198165907248 l -4.887051376388219 29.616955203173486 a51.01745003597479,51.01745003597479 0 0,0 -0.8652341572945583,-0.15043204887910017 l 5.396134505154827 -29.528444575773378" fill="#b3ff20" stroke="none" /><path d="M 96.22490169976321 120.6578951692458 l -5.243277582729624 28.691988931914963 a50.16714227823298,50.16714227823298 0 0,0 -0.8481409615791535,-0.16254823387914216 l 5.736386158880473 -28.597483499687353" fill="#beff1f" stroke="none" /><path d="M 95.86986931433489 120.58985236759428 l -4.083801103010688 20.358886487890402 a41.764433304950984,41.764433304950984 0 0,0 -0.7036482434216454,-0.14745633085273196 l 4.433640807861721 -20.28557417631113" fill="#ffd013" stroke="none" /><path d="M 95.16358092515715 120.4354850818985 l -4.791928842614117 20.247498999027872 a41.80682094286178,41.80682094286178 0 0,0 -0.6988641508247802,-0.17176380499241783 l 5.139746278182107 -20.162013935721426" fill="#ffd113" stroke="none" /><path d="M 94.81253420990036 120.34920634021253 l -6.177355057193892 24.232308757679416 a46.0072890020119,46.0072890020119 0 0,0 -0.7657136765017628,-0.20223194142742318 l 6.593559176507144 -24.122385466948412" fill="#f4ff19" stroke="none" /><path d="M 93.76903079525671 120.05430185196036 l -6.204081004480717 19.967762492415595 a41.909379714943185,41.909379714943185 0 0,0 -0.6870716607777937,-0.219978648773125 l 6.546874010349451 -19.858010996982763" fill="#ffd213" stroke="none" /><path d="M 93.42475214034765 119.94407469862007 l -13.01492498222429 39.47693555937552 a62.567014728652495,62.567014728652495 0 0,0 -1.0199325172085778,-0.34601648615651637 l 13.692527232370093 -39.24705608632088" fill="#30ff31" stroke="none" /><path d="M 93.08242187328487 119.8279376855182 l -9.74977724762362 27.945904212774387 a50.59783300594556,50.59783300594556 0 0,0 -0.8198787069736607,-0.2939793344335715 l 10.229375515227007 -27.773937337300858" fill="#b9ff1f" stroke="none" /><path d="M 92.7421414339146 119.70592522655815 l -5.180235317232595 14.06493787222143 a35.98857282369981,35.98857282369981 0 0,0 -0.5794670563823856,-0.21910485769880406 l 5.421572594375264 -13.973684764415992" fill="#ff7d0b" stroke="none" /><path d="M 92.40401165467489 119.57807347666478 l -12.012994995143865 30.962567081146098 a54.2113325388763,54.2113325388763 0 0,0 -0.8670687637854655,-0.3450245553701381 l 12.544184834971189 -30.751195681369893" fill="#8cff24" stroke="none" /><path d="M 91.7346041902142 119.30500536409082 l -7.847931569340184 18.329958362521094 a40.93934310574958,40.93934310574958 0 0,0 -0.6454366712098447,-0.28294046902307873 l 8.162288915207771 -18.19215334020356" fill="#ffc512" stroke="none" /><path d="M 91.40352486487194 119.15986991738527 l -13.590510830325137 30.290603477208403 a54.19973860804712,54.19973860804712 0 0,0 -0.847921369227795,-0.3892391126955697 l 14.109900195320352 -30.052177294178758" fill="#8cff24" stroke="none" /><path d="M 91.07499286063937 119.00905698771935 l -8.82161371952256 18.788843000305334 a41.75672155969221,41.75672155969221 0 0,0 -0.6479993610545174,-0.3110790721624938 l 9.14372574857732 -18.63420965164328" fill="#ffd013" stroke="none" /><path d="M 90.7491055286396 118.85261126421891 l -18.376311845120465 37.449509856442184 a62.71516061957421,62.71516061957421 0 0,0 -0.9650551944411159,-0.4838987087099772 l 19.01822094724434 -37.127643306822904" fill="#30ff33" stroke="none" /><path d="M 90.42595943632237 118.69057910512821 l -9.43365251200041 18.416511540045743 a41.69206845682204,41.69206845682204 0 0,0 -0.635921372343249,-0.3326840065098245 l 9.749264786870155 -18.251398114591204" fill="#ffcf13" stroke="none" /><path d="M 90.10565033884886 118.52300852407294 l -29.683048983453403 55.569025572218784 a84.0,84.0 0 0,0 -1.2695087525254378,-0.6922373929609367 l 30.635180547847483 -55.04984752749809" fill="#4dd2ff" stroke="none" /><line stroke="#e1ed5e" stroke-width="0.3" x1="58.666819895761336" x2="56.23545636021788" y1="174.27360380694188" y2="178.64263932499728" /><path d="M 58.180547188652646 175.14741091055294 a86.0,86.0 0 0,1 -31.652253787137756,-30.449443065178592" fill="none" id="id20" stroke="none" /><text fill="#e1ed5e" style="font-size:6.75px; font-family:Arial;" text-anchor="middle"><textPath startOffset="22.20632615414155" xlink:href="#id20">August</textPath></text><path d="M 89.1626897886671 117.98757091392108 l -4.214917236872526 6.995843176590961 a29.167456707270595,29.167456707270595 0 0,0 -0.42781825480539226,-0.26280091439521786 l 4.334714691610227 -6.922253795367365" fill="#ff1402" stroke="none" /><path d="M 88.8546689885994 117.79835938074946 l -28.804697703656846 45.99920460496999 a75.27372692278416,75.27372692278416 0 0,0 -1.0922511629106082,-0.6971263702446984 l 29.592230668614377 -45.49656380590149" fill="#41ffcf" stroke="none" /><path d="M 86.51685102203217 116.09983520530335 l -13.32416402593464 15.909995907967085 a41.75238099066081,41.75238099066081 0 0,0 -0.5470248307446964,-0.46618642821089723 l 13.596054333256394 -15.678285089533237" fill="#ffd013" stroke="none" /><path d="M 85.97065885151581 115.62618273729859 l -13.85071747688956 15.427227839559391 a41.732624856450045,41.732624856450045 0 0,0 -0.5304026845770123,-0.4845102766348275 l 14.114219710933426 -15.186524796337988" fill="#ffd013" stroke="none" /><path d="M 84.67929136418377 114.36230785411682 l -21.70469939342052 20.34694229747424 a50.75049640956425,50.75049640956425 0 0,0 -0.5919769710248868,-0.6424740851757879 l 22.051722772441135 -19.970316957497108" fill="#b7ff1f" stroke="none" /><path d="M 83.72743513129214 113.27417163493432 l -16.070193186375942 13.109089088513509 a41.73883617221631,41.73883617221631 0 0,0 -0.4493525347721314,-0.5606363782390075 l 16.293463633202933 -12.830524876696241" fill="#ffd013" stroke="none" /><path d="M 83.06392112726016 112.41649034213515 l -16.69674849332208 12.24102804257044 a41.70324075569448,41.70324075569448 0 0,0 -0.41945557957275315,-0.582587113404821 l 16.904983865270438 -11.951807323714482" fill="#ffcf13" stroke="none" /><path d="M 82.6465618267979 111.8261652097733 l -10.2374766148014 6.976720611180873 a33.388727050229235,33.388727050229235 0 0,0 -0.3195728786373724,-0.47771809334530746 l 10.356052598849503 -6.799465603629745" fill="#ff5607" stroke="none" /><path d="M 82.24976979558568 111.22182372390057 l -32.89198761047635 20.79455210680553 a59.913959529844554,59.913959529844554 0 0,0 -0.5436060889494495,-0.876466103333397 l 33.24505833909375 -20.225289672106868" fill="#4bff2c" stroke="none" /><line stroke="#e1ed5e" stroke-width="0.3" x1="26.63291911575756" x2="22.317208475507996" y1="142.92168965132927" y2="145.44649492493687" /><path d="M 25.769776987707644 143.4266507060508 a86.0,86.0 0 0,1 -11.730757126820373,-40.83630448921669" fill="none" id="id21" stroke="none" /><text fill="#e1ed5e" style="font-size:6.75px; font-family:Arial;" text-anchor="middle"><textPath startOffset="21.46611528233685" xlink:href="#id21">September</textPath></text><path d="M 81.87401531095188 110.60418214915194 l -34.46325341397499 20.16191798258463 a60.92766926095647,60.92766926095647 0 0,0 -0.5217961759843422,-0.9097956151592773 l 34.80520158611171 -19.565702521567047" fill="#3fff2d" stroke="none" /><path d="M 81.51974371655577 109.97397251340807 l -13.161102480332673 7.103173915536187 a35.95559086670174,35.95559086670174 0 0,0 -0.28926699486768825,-0.547184141176395 l 13.281421983425247 -6.8755747592736665" fill="#ff7c0b" stroke="none" /><path d="M 81.18737489456691 109.33194174019688 l -30.49505542018313 15.126973452686194 a55.04076572168014,55.04076572168014 0 0,0 -0.4137145534571151,-0.8523745183246555 l 30.750923230254966 -14.599809978396255" fill="#82ff25" stroke="none" /><path d="M 79.50377843672027 104.57218783832718 l -20.21035031213405 4.508417203638229 a41.707102294170426,41.707102294170426 0 0,0 -0.15027657081459464,-0.702042109199317 l 20.284960921673086 -4.159861275022748" fill="#ffcf13" stroke="none" /><path d="M 79.4281124754447 104.21870165774334 l -16.24533180921723 3.3314496860013763 a37.58340624244379,37.58340624244379 0 0,0 -0.12450857577569384,-0.6348665454540701 l 16.30027031796859 -3.051319413479351" fill="#ff940d" stroke="none" /><path d="M 79.23777060512086 103.15116336523772 l -20.50693261526926 3.112415991635914 a41.74177954256059,41.74177954256059 0 0,0 -0.10170275059766792,-0.7113088008048186 l 20.557469416883528 -2.758961718850695" fill="#ffd013" stroke="none" /><path d="M 79.18660465613746 102.79330883721812 l -32.93294867739972 4.419840927268896 a54.228212446814005,54.228212446814005 0 0,0 -0.11619941506418645,-0.9262236676858451 l 33.00414960171076 -3.852299505295642" fill="#8cff24" stroke="none" /><path d="M 79.1416061653843 102.43462659150553 l -32.93376279754363 3.8440838398673685 a54.15734779159513,54.15734779159513 0 0,0 -0.10010779038461017,-0.926873809203065 l 32.995052889429296 -3.2766137087795215" fill="#8dff24" stroke="none" /><path d="M 79.07016306316243 101.71520430193888 l -20.64648488021536 1.6919835445126128 a41.7156980626737,41.7156980626737 0 0,0 -0.05248915716835039,-0.7161728467325671 l 20.672550596048048 -1.336337561283285" fill="#ffcf13" stroke="none" /><line stroke="#e1ed5e" stroke-width="0.3" x1="15.007084014347285" x2="10.007500721073583" y1="101.09737516637583" y2="101.16192664675087" /><path d="M 14.007167355692545 101.11028546245083 a86.0,86.0 0 0,1 10.666146001902534,-42.60595125391555" fill="none" id="id22" stroke="none" /><text fill="#e1ed5e" style="font-size:6.75px; font-family:Arial;" text-anchor="middle"><textPath startOffset="22.20632615414155" xlink:href="#id22">October</textPath></text><line stroke="#e1ed5e" stroke-width="0.3" x1="26.266209847984243" x2="21.928928074336255" y1="57.711370442889674" y2="55.22380399835377" /><path d="M 25.398753493254645 57.213857153982495 a86.0,86.0 0 0,1 29.58750427330803,-30.492523968695096" fill="none" id="id23" stroke="none" /><text fill="#e1ed5e" style="font-size:6.75px; font-family:Arial;" text-anchor="middle"><textPath startOffset="21.46611528233685" xlink:href="#id23">November</textPath></text><line stroke="#e1ed5e" stroke-width="0.3" x1="56.762969772571076" x2="54.21961505331055" y1="26.818313649435495" y2="22.513508569990535" /><path d="M 56.25429882871897 25.957352633546506 a86.0,86.0 0 0,1 42.265352541879196,-11.944610805530505" fill="none" id="id24" stroke="none" /><text fill="#e1ed5e" style="font-size:6.75px; font-family:Arial;" text-anchor="middle"><textPath startOffset="22.20632615414155" xlink:href="#id24">December</textPath></text></svg>