<?xml version="1.0" encoding="utf-8" ?>
<svg baseProfile="full" height="200mm" version="1.1" viewBox="0,0,200,200" width="200mm" xmlns="http://www.w3.org/2000/svg" xmlns:ev="http://www.w3.org/2001/xml-events" xmlns:xlink="http://www.w3.org/1999/xlink"><defs /><rect fill="#1a1a1a" height="200" width="200" x="0" y="0" /><text alignment-baseline="middle" fill="#e1ed5e" style="dominant-baseline: central; font-size:9.0px; font-family:Arial;" text-anchor="middle" x="100.0" y="100.0">2023</text><line stroke="#e1ed5e" stroke-width="0.3" x1="100.0" x2="100.0" y1="15.0" y2="10.0" /><path d="M 100.0 14.0 a86.0,86.0 0 0,1 42.46469731375804,11.215312516191453" fill="none" id="id49" stroke="none" /><text fill="#e1ed5e" style="font-size:6.75px; font-family:Arial;" text-anchor="middle"><textPath startOffset="22.20632615414155" xlink:href="#id49">January</textPath></text><path d="M 103.2404852339499 79.25152402106235 l 4.95487662476628 -31.72553837014402 a53.11013215859031,53.11013215859031 0 0,0 0.9020396666225553,0.14884427396683134 l -5.50024549752771 31.635547833237563" fill="#fff417" stroke="none" /><path d="M 103.59715602781102 79.31037775812273 l 6.4895199998269035 -37.32551946300494 a58.88546255506608,58.88546255506608 0 0,0 0.9971408466997114,0.18222111617047998 l -7.131055967629516 37.20828286548372" fill="#aaff21" stroke="none" /><path d="M 103.95276090670814 79.375362276772 l 8.302231222645347 -43.31921796001923 a65.10761485210824,65.10761485210824 0 0,0 1.0988726525268686,0.22042351643969957 l -9.04667028463934 43.16989048750232" fill="#4cff2c" stroke="none" /><path d="M 105.36241919743992 79.69619591428918 l 12.892529142408012 -48.81516648339244 a71.48898678414096,71.48898678414096 0 0,0 1.1870647899470568,0.324469648724755 l -13.73089182157878 48.58601029384139" fill="#37ff77" stroke="none" /><path d="M 105.71112130821622 79.79150937346287 l 17.13336392464865 -60.62547187961136 a84.0,84.0 0 0,0 1.3880391291062915,0.40520668432518603 l -18.174393271478365 60.321566866367476" fill="#4dd2ff" stroke="none" /><path d="M 106.74666289553966 80.11325718540242 l 10.124947840295926 -29.84471535465305 a52.51541850220264,52.51541850220264 0 0,0 0.853545590426204,0.29778529669270287 l -10.637175434785403 29.66600920478814" fill="#ffea16" stroke="none" /><path d="M 109.08828744355905 81.06846463323043 l 11.568099759589055 -24.0971570370155 a47.73001887979861,47.73001887979861 0 0,0 0.737607740601391,0.36194091491785596 l -11.981178767200877 23.894460961962814" fill="#ff930d" stroke="none" /><line stroke="#e1ed5e" stroke-width="0.3" x1="143.23703022742887" x2="145.7803849466894" y1="26.81831364943548" y2="22.513508569990506" /><path d="M 143.74570117128098 25.957352633546492 a86.0,86.0 0 0,1 28.547481713284135,27.462654790039103" fill="none" id="id50" stroke="none" /><text fill="#e1ed5e" style="font-size:6.75px; font-family:Arial;" text-anchor="middle"><textPath startOffset="19.985693538727396" xlink:href="#id50">February</textPath></text><path d="M 114.68862486808459 84.99185889309783 l 17.65945196013718 -18.043591504890816 a46.247325361862806,46.247325361862806 0 0,0 0.5641385283677656,0.5617159382443204 l -17.967426288672268 17.736939715996378" fill="#ff770a" stroke="none" /><path d="M 117.2510076193507 88.02491185347247 l 25.858675720348298 -17.950251251196033 a52.47828823159219,52.47828823159219 0 0,0 0.5087283603588858,0.7464960950441231 l -26.163828546375917 17.502477132881502" fill="#ffe915" stroke="none" /><path d="M 117.65298651832404 88.62581576622439 l 16.22144881810573 -10.451814892872475 a40.29704216488358,40.29704216488358 0 0,0 0.3706798332937447,0.5863264773161901 l -16.398956247645433 10.17104076784208" fill="#ff0000" stroke="none" /><line stroke="#e1ed5e" stroke-width="0.3" x1="172.23445277983987" x2="176.4835382374775" y1="55.19839476539836" y2="52.563006222186495" /><path d="M 173.08426987136738 54.67131705675599 a86.0,86.0 0 0,1 12.851231095245387,41.99856678651699" fill="none" id="id51" stroke="none" /><text fill="#e1ed5e" style="font-size:6.75px; font-family:Arial;" text-anchor="middle"><textPath startOffset="22.20632615414155" xlink:href="#id51">March</textPath></text><path d="M 117.84615892207809 88.93136811851018 l 26.815499665947286 -16.6316402211004 a52.55443675267463,52.55443675267463 0 0,0 0.4701975426568289,0.772881130008386 l -27.097813006890338 16.167591317884934" fill="#ffeb16" stroke="none" /><path d="M 118.21658344932153 89.55222093294921 l 27.586640637854448 -15.821799262647302 a52.801762114537446,52.801762114537446 0 0,0 0.44540136594690544,0.7923193307995721 l -27.854899645093788 15.344596421912936" fill="#ffef16" stroke="none" /><path d="M 118.3937258080291 89.86733742301442 l 27.59858143056133 -15.203396862492568 a52.50912523599749,52.50912523599749 0 0,0 0.4293043581020993,0.7954357755308713 l -27.856193887881897 14.726080103629238" fill="#ffea16" stroke="none" /><path d="M 119.04729006885535 91.15688171328212 l 45.63038652954229 -21.184898433882562 a71.30837004405285,71.30837004405285 0 0,0 0.5073002507477034,1.1177688573261022 l -45.988289097253336 20.3963075677144" fill="#37ff74" stroke="none" /><path d="M 119.196687751892 91.48605970444005 l 46.07228071857183 -20.433558767425268 a71.40025173064821,71.40025173064821 0 0,0 0.48861330920311236,1.1277868845613288 l -46.417184737617625 19.637472738277335" fill="#37ff76" stroke="none" /><line stroke="#e1ed5e" stroke-width="0.3" x1="184.98032266829074" x2="189.97916517819016" y1="98.17113171792111" y2="98.06355123074" /><path d="M 185.9800911702706 98.14961562048488 a86.0,86.0 0 0,1 -9.607161424134198,41.387399972396054" fill="none" id="id52" stroke="none" /><text fill="#e1ed5e" style="font-size:6.75px; font-family:Arial;" text-anchor="middle"><textPath startOffset="21.466115282336823" xlink:href="#id52">April</textPath></text><line stroke="#e1ed5e" stroke-width="0.3" x1="174.80103733775053" x2="179.2010983576182" y1="140.37084112569926" y2="142.7455964860345" /><path d="M 175.68104954172406 140.8457921977663 a86.0,86.0 0 0,1 -30.038265399797805,32.042727171017184" fill="none" id="id53" stroke="none" /><text fill="#e1ed5e" style="font-size:6.75px; font-family:Arial;" text-anchor="middle"><textPath startOffset="22.206326154141568" xlink:href="#id53">May</textPath></text><line stroke="#e1ed5e" stroke-width="0.3" x1="143.8653032363475" x2="146.44561519142675" y1="172.8068346515853" y2="177.08958963109032" /><path d="M 144.38136562736335 173.6633856474863 a86.0,86.0 0 0,1 -40.68145358897372,12.25698825130547" fill="none" id="id54" stroke="none" /><text fill="#e1ed5e" style="font-size:6.75px; font-family:Arial;" text-anchor="middle"><textPath startOffset="21.466115282336833" xlink:href="#id54">June</textPath></text><line stroke="#e1ed5e" stroke-width="0.3" x1="102.19456741930631" x2="102.32365962044197" y1="184.97166512339345" y2="189.96999836594603" /><path d="M 102.22038585953345 185.97133177190398 a86.0,86.0 0 0,1 -42.740103519485714,-10.115201625700543" fill="none" id="id55" stroke="none" /><text fill="#e1ed5e" style="font-size:6.75px; font-family:Arial;" text-anchor="middle"><textPath startOffset="22.20632615414155" xlink:href="#id55">July</textPath></text><line stroke="#e1ed5e" stroke-width="0.3" x1="58.666819895761336" x2="56.23545636021788" y1="174.27360380694188" y2="178.64263932499728" /><path d="M 58.180547188652646 175.14741091055294 a86.0,86.0 0 0,1 -31.652253787137756,-30.449443065178592" fill="none" id="id56" stroke="none" /><text fill="#e1ed5e" style="font-size:6.75px; font-family:Arial;" text-anchor="middle"><textPath startOffset="22.20632615414155" xlink:href="#id56">August</textPath></text><line stroke="#e1ed5e" stroke-width="0.3" x1="26.63291911575756" x2="22.317208475507996" y1="142.92168965132927" y2="145.44649492493687" /><path d="M 25.769776987707644 143.4266507060508 a86.0,86.0 0 0,1 -11.730757126820373,-40.83630448921669" fill="none" id="id57" stroke="none" /><text fill="#e1ed5e" style="font-size:6.75px; font-family:Arial;" text-anchor="middle"><textPath startOffset="21.46611528233685" xlink:href="#id57">September</textPath></text><line stroke="#e1ed5e" stroke-width="0.3" x1="15.007084014347285" x2="10.007500721073583" y1="101.09737516637583" y2="101.16192664675087" /><path d="M 14.007167355692545 101.11028546245083 a86.0,86.0 0 0,1 10.666146001902534,-42.60595125391555" fill="none" id="id58" stroke="none" /><text fill="#e1ed5e" style="font-size:6.75px; font-family:Arial;" text-anchor="middle"><textPath startOffset="22.20632615414155" xlink:href="#id58">October</textPath></text><line stroke="#e1ed5e" stroke-width="0.3" x1="26.266209847984243" x2="21.928928074336255" y1="57.711370442889674" y2="55.22380399835377" /><path d="M 25.398753493254645 57.213857153982495 a86.0,86.0 0 0,1 29.58750427330803,-30.492523968695096" fill="none" id="id59" stroke="none" /><text fill="#e1ed5e" style="font-size:6.75px; font-family:Arial;" text-anchor="middle"><textPath startOffset="21.46611528233685" xlink:href="#id59">November</textPath></text><line stroke="#e1ed5e" stroke-width="0.3" x1="56.762969772571076" x2="54.21961505331055" y1="26.818313649435495" y2="22.513508569990535" /><path d="M 56.25429882871897 25.957352633546506 a86.0,86.0 0 0,1 42.265352541879196,-11.944610805530505" fill="none" id="id60" stroke="none" /><text fill="#e1ed5e" style="font-size:6.75px; font-family:Arial;" text-anchor="middle"><textPath startOffset="22.20632615414155" xlink:href="#id60">December</textPath></text></svg>