<?xml version="1.0" encoding="utf-8" ?>
<svg baseProfile="full" height="200mm" version="1.1" viewBox="0,0,200,200" width="200mm" xmlns="http://www.w3.org/2000/svg" xmlns:ev="http://www.w3.org/2001/xml-events" xmlns:xlink="http://www.w3.org/1999/xlink"><defs /><rect fill="#1a1a1a" height="200" width="200" x="0" y="0" /><text alignment-baseline="middle" fill="#e1ed5e" style="dominant-baseline: central; font-size:9.0px; font-family:Arial;" text-anchor="middle" x="100.0" y="100.0">2023</text><line stroke="#e1ed5e" stroke-width="0.3" x1="100.0" x2="100.0" y1="15.0" y2="10.0" /><path d="M 100.0 14.0 a86.0,86.0 0 0,1 42.46469731375804,11.215312516191453" fill="none" id="id49" stroke="none" /><text fill="#e1ed5e" style="font-size:6.75px; font-family:Arial;" text-anchor="middle"><textPath startOffset="22.20632615414155" xlink:href="#id49">January</textPath></text><path d="M 103.2404852339499 79.25152402106235 l 3.2631678844477348 -20.893710533337764 a42.14699516463274,42.14699516463274 0 0,0 0.7158382011538357,0.11811943672877172 l -3.6223352917404457 20.83444483366937" fill="#ffb911" stroke="none" /><path d="M 103.59715602781102 79.31037775812273 l 4.273848745914094 -24.58172939628983 a45.95049504950495,45.95049504950495 0 0,0 0.7781057251114744,0.1421938477374929 l -4.6963495921284695 24.5045200672016" fill="#fff016" stroke="none" /><path d="M 103.95276090670814 79.375362276772 l 5.4676587020516285 -28.529041494185353 a50.04826157034308,50.04826157034308 0 0,0 0.8447040499192945,0.16943968585068944 l -5.957929161438049 28.430697852257456" fill="#d5ff1c" stroke="none" /><path d="M 105.36241919743992 79.69619591428918 l 8.490723429222978 -32.14854689749 a54.250886483997235,54.250886483997235 0 0,0 0.90082850611689,0.24623045971570712 l -9.04284982456358 31.997629896948" fill="#9dff22" stroke="none" /><path d="M 105.71112130821622 79.79150937346287 l 11.283639764513026 -39.926542636441276 a62.49035229104307,62.49035229104307 0 0,0 1.0326077877571995,0.30144652921626613 l -11.969237769993653 39.72639777830631" fill="#3aff2e" stroke="none" /><path d="M 106.74666289553966 80.11325718540242 l 6.668057981306563 -19.65504371572154 a41.755330416762604,41.755330416762604 0 0,0 0.6786593189297736,0.23677091054955549 l -7.00539930429961 19.537351951999778" fill="#ffb310" stroke="none" /><path d="M 109.08828744355905 81.06846463323043 l 7.618484672433023 -15.8698338837835 a38.60377619157264,38.60377619157264 0 0,0 0.5965730750506633,0.29273581703894147 l -7.890529014494118 15.736342906609726" fill="#ff830c" stroke="none" /><line stroke="#e1ed5e" stroke-width="0.3" x1="143.23703022742887" x2="145.7803849466894" y1="26.81831364943548" y2="22.513508569990506" /><path d="M 143.74570117128098 25.957352633546492 a86.0,86.0 0 0,1 28.547481713284135,27.462654790039103" fill="none" id="id50" stroke="none" /><text fill="#e1ed5e" style="font-size:6.75px; font-family:Arial;" text-anchor="middle"><textPath startOffset="19.985693538727396" xlink:href="#id50">February</textPath></text><path d="M 114.68862486808459 84.99185889309783 l 11.630109255441946 -11.883094732279236 a37.627308312226575,37.627308312226575 0 0,0 0.4589890155075702,0.4570179708087519 l -11.832934071116838 11.681140910820366" fill="#ff730a" stroke="none" /><path d="M 117.2510076193507 88.02491185347247 l 17.02992960979512 -11.821622986108887 a41.730877273773885,41.730877273773885 0 0,0 0.4045421732914776,0.5936157214229432 l -17.230896248755332 11.526729241415536" fill="#ffb210" stroke="none" /><path d="M 117.65298651832404 88.62581576622439 l 10.683073430703665 -6.8833251108896745 a33.708588533271936,33.708588533271936 0 0,0 0.31007471781562645,0.4904637389797703 l -10.799975744765247 6.6984137241956985" fill="#ff3405" stroke="none" /><line stroke="#e1ed5e" stroke-width="0.3" x1="172.23445277983987" x2="176.4835382374775" y1="55.19839476539836" y2="52.563006222186495" /><path d="M 173.08426987136738 54.67131705675599 a86.0,86.0 0 0,1 12.851231095245387,41.99856678651699" fill="none" id="id51" stroke="none" /><text fill="#e1ed5e" style="font-size:6.75px; font-family:Arial;" text-anchor="middle"><textPath startOffset="22.20632615414155" xlink:href="#id51">March</textPath></text><path d="M 117.84615892207809 88.93136811851018 l 17.660071873023817 -10.953216062719635 a41.78102693990329,41.78102693990329 0 0,0 0.3738092806374049,0.6144441708354883 l -17.845996951947445 10.647604118677066" fill="#ffb310" stroke="none" /><path d="M 118.21658344932153 89.55222093294921 l 18.167927596682315 -10.4198734172286 a41.94390973981119,41.94390973981119 0 0,0 0.35381157641559274,0.6293913150867197 l -18.34459681439034 10.105598592207086" fill="#ffb610" stroke="none" /><path d="M 118.3937258080291 89.86733742301442 l 18.175791528365536 -10.012607807069132 a41.75118581625605,41.75118581625605 0 0,0 0.34134954536552725,0.6324688655510081 l -18.34544917294953 9.698257958185666" fill="#ffb310" stroke="none" /><path d="M 119.04729006885535 91.15688171328212 l 30.051124004558343 -13.951887290027843 a54.1319364494589,54.1319364494589 0 0,0 0.38510408970650023,0.848525814186762 l -30.28683041122819 13.432539466999017" fill="#9fff22" stroke="none" /><path d="M 119.196687751892 91.48605970444005 l 30.342145362942475 -13.457072251114381 a54.192447616854714,54.192447616854714 0 0,0 0.37085515137647135,0.8559848205455443 l -30.569291224161628 12.932788285982234" fill="#9eff22" stroke="none" /><path d="M 119.7369772167798 92.82701384747503 l 31.241698306977877 -11.354133253332982 a54.24093944278149,54.24093944278149 0 0,0 0.31136086399090446,0.8802590908071521 l -31.43251225177859 10.814676536099217" fill="#9eff22" stroke="none" /><path d="M 120.18372546131832 94.20196356495316 l 20.01947251966738 -5.750852651157152 a41.82910430577942,41.82910430577942 0 0,0 0.19283860343614057,0.6937430579910772 l -20.115497893669883 5.405398289747123" fill="#ffb410" stroke="none" /><path d="M 120.37134235888165 94.90015583598534 l 46.25697209448476 -11.580157312421566 a68.6844577481004,68.6844577481004 0 0,0 0.27724710232907307,1.1493682289594291 l -46.449451997074654 10.78220385180273" fill="#37ff77" stroke="none" /><path d="M 120.94382443527127 98.46500227214037 l 20.8949111911377 -1.5314128181961997 a41.95095556067234,41.95095556067234 0 0,0 0.04658435668928132,0.7206393792588702 l -20.9181761388314 1.1715143746842942" fill="#ffb610" stroke="none" /><line stroke="#e1ed5e" stroke-width="0.3" x1="184.98032266829074" x2="189.97916517819016" y1="98.17113171792111" y2="98.06355123074" /><path d="M 185.9800911702706 98.14961562048488 a86.0,86.0 0 0,1 -9.607161424134198,41.387399972396054" fill="none" id="id52" stroke="none" /><text fill="#e1ed5e" style="font-size:6.75px; font-family:Arial;" text-anchor="middle"><textPath startOffset="21.466115282336823" xlink:href="#id52">April</textPath></text><path d="M 120.99513854157772 99.54816195383933 l 41.47411753097045 -0.8925677815519364 a62.483720930232565,62.483720930232565 0 0,0 0.013886241944763962,1.075504741797507 l -41.483336780032936 0.17852678169396657" fill="#3aff2e" stroke="none" /><path d="M 120.92983693683757 101.71520430193887 l 12.389780515446981 1.0153449787642739 a33.431314759382914,33.431314759382914 0 0,0 -0.05193857814347798,0.5731378818413674 l -12.370467341026428 -1.228464249154212" fill="#ff3004" stroke="none" /><path d="M 120.89721153311464 102.0752229133903 l 20.62610662772797 2.048300512250827 a41.72756159336864,41.72756159336864 0 0,0 -0.07713180500131767,0.7141447197826478 l -20.5877925212256 -2.403041553918266" fill="#ffb210" stroke="none" /><path d="M 120.76222939487914 103.15116336523771 l 38.62549127765729 5.862339287537315 a60.06783329495741,60.06783329495741 0 0,0 -0.16395156303740696,1.0209265395379215 l -38.51885796025859 -6.526345056768442" fill="#56ff2b" stroke="none" /><path d="M 119.54520255179757 107.68017299344265 l 19.33175538732282 7.59630017893579 a41.77066543863688,41.77066543863688 0 0,0 -0.26871941435661584,0.666939548914347 l -19.19813335870881 -7.927939095692951" fill="#ffb310" stroke="none" /><path d="M 119.41010516605496 108.01547362559984 l 19.19391946133386 7.926198951423719 a41.76610637807967,41.76610637807967 0 0,0 -0.2801292906081033,0.6621428941428404 l -19.054639189533447 -8.255416371232723" fill="#ffb310" stroke="none" /><line stroke="#e1ed5e" stroke-width="0.3" x1="174.80103733775053" x2="179.2010983576182" y1="140.37084112569926" y2="142.7455964860345" /><path d="M 175.68104954172406 140.8457921977663 a86.0,86.0 0 0,1 -30.038265399797805,32.042727171017184" fill="none" id="id53" stroke="none" /><text fill="#e1ed5e" style="font-size:6.75px; font-family:Arial;" text-anchor="middle"><textPath startOffset="22.206326154141568" xlink:href="#id53">May</textPath></text><path d="M 116.71984013943494 112.70617746262583 l 16.941810715411908 12.874863138225834 a42.278793460741426,42.278793460741426 0 0,0 -0.44532289951244336,0.5756398777507945 l -16.717680998681395 -13.164581010089881" fill="#ffbb11" stroke="none" /><path d="M 116.0416608686014 113.55231037782055 l 22.33242342717816 18.866870223296065 a50.23518305318904,50.23518305318904 0 0,0 -0.5637284366460511,0.655743528699611 l -22.00435248096133 -19.248490851157204" fill="#d2ff1c" stroke="none" /><path d="M 115.07121518719521 114.62390073753431 l 20.905269151405278 20.284799677024836 a50.129081280221044,50.129081280221044 0 0,0 -0.6062261975459613,0.6141039374929893 l -20.55300232880378 -20.64164410849849" fill="#d4ff1c" stroke="none" /><path d="M 114.0293411484842 115.62618273729858 l 13.880007416184293 15.459851605632187 a41.77646787934607,41.77646787934607 0 0,0 -0.5392300517737648,0.47580782548728023 l -13.611835011503942 -15.696482572891755" fill="#ffb310" stroke="none" /><path d="M 112.92097659922987 116.55440617244103 l 17.88493351160268 22.914247343797495 a50.06774119272392,50.06774119272392 0 0,0 -0.6839522179721615,0.5244253955223038 l -17.487852565137022 -23.21871208114717" fill="#d5ff1c" stroke="none" /><line stroke="#e1ed5e" stroke-width="0.3" x1="143.8653032363475" x2="146.44561519142675" y1="172.8068346515853" y2="177.08958963109032" /><path d="M 144.38136562736335 173.6633856474863 a86.0,86.0 0 0,1 -40.68145358897372,12.25698825130547" fill="none" id="id54" stroke="none" /><text fill="#e1ed5e" style="font-size:6.75px; font-family:Arial;" text-anchor="middle"><textPath startOffset="21.466115282336833" xlink:href="#id54">June</textPath></text><path d="M 110.8373102113329 117.98757091392108 l 10.849216601289111 18.0073329240038 a42.02307160948653,42.02307160948653 0 0,0 -0.6228061925212974,0.367964876388304 l -10.537642537739432 -18.191416372685854" fill="#ffb711" stroke="none" /><path d="M 107.93186726928326 119.44442032107085 l 9.40818968487855 23.063521927753097 a45.908634584388665,45.908634584388665 0 0,0 -0.7342734659329347,0.2921825657720107 l -9.00979514290375 -23.222051337931177" fill="#fff016" stroke="none" /><path d="M 105.53697534728816 120.25689768951611 l 10.93520302773759 40.006190212758966 a62.47377388901681,62.47377388901681 0 0,0 -1.0397705260878525,0.2746128462670538 l -10.24494205883824 -40.1884944083296" fill="#3aff2e" stroke="none" /><path d="M 104.83641907484287 120.43548508189849 l 4.775297657502825 20.177226690119763 a41.7346074142298,41.7346074142298 0 0,0 -0.7005051517388224,0.15943269188678594 l -4.42727235637114 -20.256436115584236" fill="#ffb310" stroke="none" /><path d="M 104.48393922423573 120.51570834832081 l 3.562136541309887 16.29811438643352 a37.6828459590145,37.6828459590145 0 0,0 -0.6348815551400375,0.13304560271733099 l -3.2810635247404716 -16.35701596987739" fill="#ff740a" stroke="none" /><line stroke="#e1ed5e" stroke-width="0.3" x1="102.19456741930631" x2="102.32365962044197" y1="184.97166512339345" y2="189.96999836594603" /><path d="M 102.22038585953345 185.97133177190398 a86.0,86.0 0 0,1 -42.740103519485714,-10.115201625700543" fill="none" id="id55" stroke="none" /><text fill="#e1ed5e" style="font-size:6.75px; font-family:Arial;" text-anchor="middle"><textPath startOffset="22.20632615414155" xlink:href="#id55">July</textPath></text><path d="M 100.18074693466247 120.99922214144158 l 0.08233941145118179 9.56621253515518 a30.566566889247063,30.566566889247063 0 0,0 -0.5261726922272679,0.0 l 0.0823394114511752 -9.56621253515518" fill="#ff0000" stroke="none" /><path d="M 99.81925306533755 120.99922214144158 l -0.2897040240348688 33.657882869986246 a54.65912963389362,54.65912963389362 0 0,0 -0.9407625126224464,-0.01619607981182193 l 0.869026226549983 -33.647909312895266" fill="#98ff23" stroke="none" /><path d="M 99.09653310690486 120.98055641714683 l -0.7306250967647099 16.966776734829605 a37.98250057563896,37.98250057563896 0 0,0 -0.6529588523474852,-0.03375051430458099 l 1.022572017525684 -16.951686413762822" fill="#ff790b" stroke="none" /><path d="M 96.22490169976321 120.6578951692458 l -2.981732850409064 16.316482313211093 a37.586691227262264,37.586691227262264 0 0,0 -0.6354520307986697,-0.12178589409114186 l 3.262152495779429 -16.262739220771483" fill="#ff730a" stroke="none" /><line stroke="#e1ed5e" stroke-width="0.3" x1="58.666819895761336" x2="56.23545636021788" y1="174.27360380694188" y2="178.64263932499728" /><path d="M 58.180547188652646 175.14741091055294 a86.0,86.0 0 0,1 -31.652253787137756,-30.449443065178592" fill="none" id="id56" stroke="none" /><text fill="#e1ed5e" style="font-size:6.75px; font-family:Arial;" text-anchor="middle"><textPath startOffset="22.20632615414155" xlink:href="#id56">August</textPath></text><path d="M 89.4739219176387 118.17145234162733 l -8.31851357338069 14.360474221179068 a37.5958093483767,37.5958093483767 0 0,0 -0.5571916087574444,-0.3291986237500717 l 8.564473053166518 -14.215157025135248" fill="#ff730a" stroke="none" /><path d="M 88.8546689885994 117.79835938074946 l -11.027795630253427 17.61066312018341 a41.778540179599354,41.778540179599354 0 0,0 -0.6062229274589389,-0.3869201547493822 l 11.32930035975929 -17.418228536610226" fill="#ffb310" stroke="none" /><line stroke="#e1ed5e" stroke-width="0.3" x1="26.63291911575756" x2="22.317208475507996" y1="142.92168965132927" y2="145.44649492493687" /><path d="M 25.769776987707644 143.4266507060508 a86.0,86.0 0 0,1 -11.730757126820373,-40.83630448921669" fill="none" id="id57" stroke="none" /><text fill="#e1ed5e" style="font-size:6.75px; font-family:Arial;" text-anchor="middle"><textPath startOffset="21.46611528233685" xlink:href="#id57">September</textPath></text><path d="M 81.87401531095188 110.60418214915194 l -18.128369608582233 10.605577390380736 a42.00276306700437,42.00276306700437 0 0,0 -0.35971967112787573,-0.6272015674727734 l 18.308241275862486 -10.291955977049655" fill="#ffb710" stroke="none" /><path d="M 80.0844068197444 106.66101706037122 l -32.319586161765024 10.809686302544344 a55.07939212525904,55.07939212525904 0 0,0 -0.29299023379552436,-0.9017312191056177 l 32.5008686465768 -10.251756183460923" fill="#93ff23" stroke="none" /><path d="M 79.50377843672027 104.57218783832718 l -12.165051236587841 2.7137147763957747 a33.46405710338476,33.46405710338476 0 0,0 -0.12057571661465784,-0.5632896063007082 l 12.20996099192694 -2.5039113506789024" fill="#ff3004" stroke="none" /><path d="M 79.18660465613746 102.79330883721812 l -42.72041648037289 5.733390199569374 a64.10343080819709,64.10343080819709 0 0,0 -0.1373598875460937,-1.094893453341231 l 42.812777877165836 -4.997178991940735" fill="#30ff39" stroke="none" /><path d="M 79.1416061653843 102.43462659150553 l -20.610434111849013 2.4056843182194534 a41.750356896154734,41.750356896154734 0 0,0 -0.0771739412484959,-0.7145348491000507 l 20.64879035459856 -2.0505531472346203" fill="#ffb310" stroke="none" /><path d="M 79.07016306316243 101.71520430193888 l -30.969081309731646 2.5379223760724003 a52.07289891779875,52.07289891779875 0 0,0 -0.06552119951106909,-0.8939847104931054 l 31.008179067907047 -2.0044645290825343" fill="#baff1f" stroke="none" /><path d="M 79.0235259727143 100.99374915477108 l -20.729594569144098 0.9820533734620068 a41.752843656458666,41.752843656458666 0 0,0 -0.027830988504175674,-0.7181941490752467 l 20.743427690499477 -0.6250819773727634" fill="#ffb310" stroke="none" /><line stroke="#e1ed5e" stroke-width="0.3" x1="15.007084014347285" x2="10.007500721073583" y1="101.09737516637583" y2="101.16192664675087" /><path d="M 14.007167355692545 101.11028546245083 a86.0,86.0 0 0,1 10.666146001902534,-42.60595125391555" fill="none" id="id58" stroke="none" /><text fill="#e1ed5e" style="font-size:6.75px; font-family:Arial;" text-anchor="middle"><textPath startOffset="22.20632615414155" xlink:href="#id58">October</textPath></text><path d="M 79.03285615573316 98.82574320788736 l -62.90143153280056 -3.522770376337934 a84.0,84.0 0 0,0 0.09327763598234728,-1.442963742987953 l 62.831473305813795 4.604993183578899" fill="#4dd2ff" stroke="none" /><path d="M 79.12142395522702 97.74499172005258 l -20.612657665623086 -2.226287540300845 a41.73253511397651,41.73253511397651 0 0,0 0.08328551499486124,-0.7135394308690879 l 20.57128179762464 2.5807707094947947" fill="#ffb210" stroke="none" /><path d="M 79.91906864156998 93.8553929516997 l -15.856412276953261 -4.85193743749443 a37.582132166705044,37.582132166705044 0 0,0 0.19461194197275072,-0.616973038562479 l 15.770544851212307 5.124160642483324" fill="#ff730a" stroke="none" /><line stroke="#e1ed5e" stroke-width="0.3" x1="26.266209847984243" x2="21.928928074336255" y1="57.711370442889674" y2="55.22380399835377" /><path d="M 25.398753493254645 57.213857153982495 a86.0,86.0 0 0,1 29.58750427330803,-30.492523968695096" fill="none" id="id59" stroke="none" /><text fill="#e1ed5e" style="font-size:6.75px; font-family:Arial;" text-anchor="middle"><textPath startOffset="21.46611528233685" xlink:href="#id59">November</textPath></text><line stroke="#e1ed5e" stroke-width="0.3" x1="56.762969772571076" x2="54.21961505331055" y1="26.818313649435495" y2="22.513508569990535" /><path d="M 56.25429882871897 25.957352633546506 a86.0,86.0 0 0,1 42.265352541879196,-11.944610805530505" fill="none" id="id60" stroke="none" /><text fill="#e1ed5e" style="font-size:6.75px; font-family:Arial;" text-anchor="middle"><textPath startOffset="22.20632615414155" xlink:href="#id60">December</textPath></text></svg>