<?xml version="1.0" encoding="utf-8" ?>
<svg baseProfile="full" height="200mm" version="1.1" viewBox="0,0,200,200" width="200mm" xmlns="http://www.w3.org/2000/svg" xmlns:ev="http://www.w3.org/2001/xml-events" xmlns:xlink="http://www.w3.org/1999/xlink"><defs /><rect fill="#1a1a1a" height="200" width="200" x="0" y="0" /><text alignment-baseline="middle" fill="#e1ed5e" style="dominant-baseline: central; font-size:9.0px; font-family:Arial;" text-anchor="middle" x="100.0" y="100.0">2020</text><line stroke="#e1ed5e" stroke-width="0.3" x1="100.0" x2="100.0" y1="15.0" y2="10.0" /><path d="M 100.0 14.0 a86.0,86.0 0 0,1 42.35913384403234,11.155469271406648" fill="none" id="id13" stroke="none" /><text fill="#e1ed5e" style="font-size:6.75px; font-family:Arial;" text-anchor="middle"><textPath startOffset="22.145653131862478" xlink:href="#id13">January</textPath></text><path d="M 100.0 79.0 l 0.0 -62.655649394214464 a83.65564939421446,83.65564939421446 0 0,0 1.4360604633452714,0.01232685192570177 l -1.0755675384964165 62.6464169404832" fill="#4cd6ff" stroke="none" /><path d="M 100.72087961077811 79.0123766808444 l 0.5813494773450159 -16.925355724980673 a37.93533683255061,37.93533683255061 0 0,0 0.650634813810238,0.02794105841431107 l -0.87181005175609 16.91288209814053" fill="#ff0000" stroke="none" /><path d="M 101.44090949804482 79.04949213459386 l 1.8343319836292122 -26.67078446143645 a47.73378981017404,47.73378981017404 0 0,0 0.8170001930789795,0.06324098201465694 l -2.2919011714834254 26.635365712426744" fill="#ffb510" stroke="none" /><line stroke="#e1ed5e" stroke-width="0.3" x1="143.13028292997686" x2="145.6673583964461" y1="26.7553504044142" y2="22.446841604673864" /><path d="M 143.63769802327073 25.89364864446614 a86.0,86.0 0 0,1 29.32050498858742,28.57503671076993" fill="none" id="id14" stroke="none" /><text fill="#e1ed5e" style="font-size:6.75px; font-family:Arial;" text-anchor="middle"><textPath startOffset="20.669276256404974" xlink:href="#id14">February</textPath></text><line stroke="#e1ed5e" stroke-width="0.3" x1="172.87174338648825" x2="177.1583165268699" y1="56.24261187166439" y2="53.66864786411523" /><path d="M 173.72905801456457 55.72781907015455 a86.0,86.0 0 0,1 12.242430191666344,42.057860355516425" fill="none" id="id15" stroke="none" /><text fill="#e1ed5e" style="font-size:6.75px; font-family:Arial;" text-anchor="middle"><textPath startOffset="22.145653131862474" xlink:href="#id15">March</textPath></text><line stroke="#e1ed5e" stroke-width="0.3" x1="184.99686870605535" x2="189.99668451229388" y1="99.2704041080226" y2="99.22748670261217" /><path d="M 185.99683186730306 99.26182062694052 a86.0,86.0 0 0,1 -10.086455211305974,41.156179273409016" fill="none" id="id16" stroke="none" /><text fill="#e1ed5e" style="font-size:6.75px; font-family:Arial;" text-anchor="middle"><textPath startOffset="21.40746469413373" xlink:href="#id16">April</textPath></text><line stroke="#e1ed5e" stroke-width="0.3" x1="174.33088141563837" x2="178.70328620479359" y1="141.23008692659167" y2="143.65538615756765" /><path d="M 175.20536237346943 141.71514677278685 a86.0,86.0 0 0,1 -30.301960400862466,31.631185727798858" fill="none" id="id17" stroke="none" /><text fill="#e1ed5e" style="font-size:6.75px; font-family:Arial;" text-anchor="middle"><textPath startOffset="22.145653131862474" xlink:href="#id17">May</textPath></text><line stroke="#e1ed5e" stroke-width="0.3" x1="143.1302829299769" x2="145.66735839644613" y1="173.24464959558577" y2="177.55315839532614" /><path d="M 143.63769802327073 174.10635135553383 a86.0,86.0 0 0,1 -40.68552437913181,11.842963189579606" fill="none" id="id18" stroke="none" /><text fill="#e1ed5e" style="font-size:6.75px; font-family:Arial;" text-anchor="middle"><textPath startOffset="21.407464694133747" xlink:href="#id18">June</textPath></text><line stroke="#e1ed5e" stroke-width="0.3" x1="101.45913802915013" x2="101.54496967792366" y1="184.9874750549273" y2="189.98673829345242" /><path d="M 101.47630435890484 185.9873277026323 a86.0,86.0 0 0,1 -42.54439059252881,-10.42667462771756" fill="none" id="id19" stroke="none" /><text fill="#e1ed5e" style="font-size:6.75px; font-family:Arial;" text-anchor="middle"><textPath startOffset="22.145653131862474" xlink:href="#id19">July</textPath></text><path d="M 99.63950707515114 120.99690560180557 l -0.43286466440866256 25.212196607622094 a46.21591223015905,46.21591223015905 0 0,0 -0.7931237831344949,-0.02042805524979695 l 0.8656017616139015 -25.20105083502225" fill="#ff9b0e" stroke="none" /><path d="M 98.19965949673042 120.92268563240118 l -2.3258986824670713 27.030468324017733 a48.13035242116895,48.13035242116895 0 0,0 -0.8225716427805059,-0.07789838979582686 l 2.7895698886325926 -26.98655817871672" fill="#ffbc11" stroke="none" /><line stroke="#e1ed5e" stroke-width="0.3" x1="58.13341422392154" x2="55.67067388415222" y1="173.97424548756322" y2="178.32567169271397" /><path d="M 57.64086615596768 174.84453072859336 a86.0,86.0 0 0,1 -31.369924170532247,-30.572349798747897" fill="none" id="id20" stroke="none" /><text fill="#e1ed5e" style="font-size:6.75px; font-family:Arial;" text-anchor="middle"><textPath startOffset="22.145653131862474" xlink:href="#id20">August</textPath></text><line stroke="#e1ed5e" stroke-width="0.3" x1="26.387840678322732" x2="22.057713659400548" y1="142.50000000000003" y2="145.00000000000006" /><path d="M 25.521815274538298 143.00000000000003 a86.0,86.0 0 0,1 -11.493303480769221,-40.785679425670985" fill="none" id="id21" stroke="none" /><text fill="#e1ed5e" style="font-size:6.75px; font-family:Arial;" text-anchor="middle"><textPath startOffset="21.40746469413373" xlink:href="#id21">September</textPath></text><path d="M 79.407916724674 104.11899336999214 l -36.75393086749798 7.351815527366885 a58.482004025415364,58.482004025415364 0 0,0 -0.1884616212937944,-0.9861108389100455 l 36.87471878107393 -6.719802123423524" fill="#9cff22" stroke="none" /><path d="M 79.2786578344484 103.40968896794605 l -61.483237303994436 10.117043301256544 a83.31005564544773,83.31005564544773 0 0,0 -0.22009131319463532,-1.4131441135646192 l 61.647850109327344 -9.060111005760474" fill="#4cdaff" stroke="none" /><line stroke="#e1ed5e" stroke-width="0.3" x1="15.003131293944662" x2="10.003315487706104" y1="100.72959589197737" y2="100.7725132973878" /><path d="M 14.003168132696942 100.73817937305945 a86.0,86.0 0 0,1 10.791469493833604,-42.45332614584628" fill="none" id="id22" stroke="none" /><text fill="#e1ed5e" style="font-size:6.75px; font-family:Arial;" text-anchor="middle"><textPath startOffset="22.145653131862435" xlink:href="#id22">October</textPath></text><line stroke="#e1ed5e" stroke-width="0.3" x1="26.387840678322718" x2="22.05771365940052" y1="57.49999999999999" y2="54.99999999999999" /><path d="M 25.521815274538284 56.99999999999999 a86.0,86.0 0 0,1 29.574782752854787,-30.34633250058573" fill="none" id="id23" stroke="none" /><text fill="#e1ed5e" style="font-size:6.75px; font-family:Arial;" text-anchor="middle"><textPath startOffset="21.40746469413373" xlink:href="#id23">November</textPath></text><line stroke="#e1ed5e" stroke-width="0.3" x1="56.869717070023135" x2="54.33264160355391" y1="26.7553504044142" y2="22.446841604673864" /><path d="M 56.362301976729285 25.89364864446614 a86.0,86.0 0 0,1 42.16139366436587,-11.88097634709845" fill="none" id="id24" stroke="none" /><text fill="#e1ed5e" style="font-size:6.75px; font-family:Arial;" text-anchor="middle"><textPath startOffset="22.145653131862474" xlink:href="#id24">December</textPath></text><path d="M 95.70440661134978 79.44403061299748 l -5.156949796074801 -24.677871611058702 a46.21093965823434,46.21093965823434 0 0,0 0.7778918845762763,-0.15560016304807792 l 4.732561425967548 24.762761170769647" fill="#ff9b0e" stroke="none" /><path d="M 96.05791012581881 79.37332000966035 l -11.826269622543562 -61.88003997101895 a84.0,84.0 0 0,0 1.4186610657958458,-0.25852730427455484 l 10.762273823196677 62.07393544922487" fill="#4dd2ff" stroke="none" /><path d="M 96.76829788921471 79.25015418208739 l -9.614948284420752 -61.734865284490525 a83.47912309088755,83.47912309088755 0 0,0 1.4178527339240663,-0.2083755254464101 l 8.553770444889 61.890821883235816" fill="#4cd8ff" stroke="none" /><path d="M 97.12497278360702 79.19773525538626 l -8.589170756326494 -62.146960902152095 a83.73769683097201,83.73769683097201 0 0,0 1.425623036231308,-0.18457544400766485 l 7.5210698982043915 62.28524794236016" fill="#4dd5ff" stroke="none" /><path d="M 98.1996594967304 79.07731436759882 l -5.336863197544977 -62.02244005652089 a83.2516279253325,83.2516279253325 0 0,0 1.4249150624667553,-0.11029743762760472 l 4.271379140303004 62.10491526114355" fill="#4cdbff" stroke="none" /><path d="M 98.9189461498227 79.02784411241856 l -1.2841967487770483 -24.913073850354994 a45.94615020324402,45.94615020324402 0 0,0 0.7880295096558995,-0.033841377826918026 l 0.8563414785203286 24.931447796607742" fill="#ff960d" stroke="none" /></svg>